<svg xmlns="http://www.w3.org/2000/svg" viewBox="0 0 100 100">
    <path
        d="M58.9 30.3c-.7-.2-1.3-.4-2-.5.6.7 1.1 1.4 1.7 2.1-2.4-2.2-5.3-3.9-8.4-4.9-.2-.3-.7.4-.3.5-.9.1-1.1-1.7-.2-1.8l-3.9 1.5c.5-.5 1-.9 1.6-1.3-1.5.3-7.8 2.6-5.9-.8-.7.2-1 1.1-.6 1.7-.5-.2-.9-.5-1.4-.7.4-.2.6-.7.6-1.2-.4.4-1 .7-1.5.9 1.8-.4-.5 2.2-.7-.7-.6.4-1.5.5-2.2.2-.2.9-1.2 1.3-2 1.8-2.7 1.7-3.1 5.8-5.8 7.3.3-.3.8.2.5.5-1 .9-1.5 2.2-1.4 3.6-.1-.3-.2-.6-.4-.8-.4 1.4-.3 3 .2 4.4-.3-1.1-.2-2.3.4-3.3-.6 3.5 1.6 6.8 1.6 10.3-.4 4.7-2 9.3-1.2 14.1.1-.7.2-1.5.2-2.2.9 3.4 1.6 6.8 2 10.3.5-.2.9.7.4 1 .3-.2.6-.4.9-.5.1.5-.3 1-.8 1 0 .4.4.8.8.7-.3.4-.5.8-.5 1.2l1.2-.6c-1.1.4-.8 2.1.1 1.2-.5.1-.7.8-.5 1.2 0-.5.4-.9.8-1.1-.4.3-.6 1-.4 1.5.4-.6.9-1.3 1.3-1.9-1 1.8 1.3 4.6-.3 6 .3.2.9.1 1.1-.2-.2.3-.2.7-.1 1.1.1-.6.4-1.1.9-1.3-.5.8-.4 1.9.3 2.6.4-.5.3-1.3-.2-1.7.4.1.8.3 1.1.6-.5.4-.4 1.3 0 1.7.3-.3.5-.7.8-1 .7.8.9 1.9.5 2.9.7-.5 1.3-.9 2-1.4-.6 1-1.1 2.1-1.4 3.2.3-.2.6-.4.8-.7l.5.5c-.3.4-.7.9-1 1.3-.2-1 1.4-.5.6.2.8-.4 1.2-1.3 1.1-2.2.4.3.4.9.1 1.3.3-.2.6-.4.9-.5-.4.8-.9 1.4-1.6 1.9.5-.3 1.1-.6 1.6-.8-1.2.6-.8 2.7.5 2.9-.1.4-.1.8-.2 1.2-1.3-1.5-2.7-2.8-4.1-4.1.5-.4 1-.8 1.5-1.1-2.3 2-3.5-3-4.4-1.9.2-.5.5-1 .7-1.5l-.9.3c-.3-.6-.6-1.3-.9-1.9 0 .3-.2.5-.4.7-.5-1.3-.7-2.7-.7-4.1l-.9.3c.1-3.5-11.4-36.2-4.3-32-.8-8.7-8.8-23.2 2.7-27.6.8-.2 1.5-1.6.4-1.8.6-.3 1.3-.5 1.9-.6-1 .5-1.6 1.8-1.2 3-.7-.4-1.7-.1-2.1.7l1.2-.6c.9.3 1.7.8 2.3 1.4-1.1-1.7-.6-4.2 1-5.3-.3 1.5-.5 2.9-.8 4.3 3.3-1.6-.9-8.5 6.4-8.1-1.4-2.4-2.5-.1-1.2-.5-1-.2-2.1.3-2.6 1.2 1.4-3.4 6.2-4.9 9.2-2.7-.8-1.7-3-2.4-4.6-1.5 1.9-1.6 5.2 1.2 7.4-.6-.1.5-.3.9-.4 1.4.3.4.7.7 1 1.1-.1-.6-.2-1.2-.2-1.8.3.2.5.3.8.5.7-1.2 2.3-1.9 3.6-1.3-.1-.7.3-1.4.9-1.7-.2.7-.4 1.3-.6 2-1.6-.6-3.6.8-3.6 2.5.4-.9 1.3-1.6 2.4-1.6-.2.4-.3.9-.2 1.4.5-.4.7-1.2.3-1.8.3.1.7.1 1-.1-.1.4-.2.8-.3 1.3.6-.1 1.2-.6 1.2-1.3.2.4.3.8.3 1.2 1.8-1.3 4.1-1.6 6.2-1-1-.2-2.1-.2-3.2 0 7.3.3 11.4 6.7 12.3 4.6l-.3.9c.5.2 1 .5 1.2 1-.7-.4-1.5-.7-2.2-1.1.7 1.7 2 3.2 3.6 4.1-.3-.4-.5-.8-.7-1.1 1 .5 2.2.4 3.2-.1.4.6.7 1.4.7 2.1-.2-2.5-4.3-1.9-3 .4-.1-.8.9-1.5 1.6-1.2-.3.1-.7.2-1 .3-.1 1.1 1.6.7 1.1-.2.6.1 1 .6 1 1.2-.2-.5-.8.3-.7.9.4.1.8-.3.9-.7 5.4 8.4-.1 17.7.2 26.2.7.9-.2 2.1-.8 3.1-2.2 3.7.2 8.9-2 12.6.7-3.5.9-7.2.4-10.8 1.4-1.2 2.1-3.1 2-4.9-.6 1.5-1.1 3-1.7 4.6-.1-1.4.1-2.9.3-4.3-.1 2.2 1.6-5.5 1.6-6.2.4-4.4-3.1-7.7-3.9-12-.3.7-.4 1.6-.1 2.3-.6-1.1-1.2-2.2-1.7-3.4.1 1.3.3 2.5.6 3.8-.4-1-.8-2-1.3-3-.8.5-2 .2-2.4-.7-.6.6-1.3 1.1-1.9 1.7 0-.7.6-1.4 1.3-1.5-.5.1-1.1.3-1.6.4-.2.3-.1.7.1.9-.7.2-1.4.4-2.1.7.6.1 1.3-.2 1.8-.6-.2.2-.2.6.1.7-1.1.6-2.3.9-3.5 1-.1-.7-.8-1.3-1.5-1.2.5-.3 1 0 1.4.4M45.5 15.8c.4.3.6.8.8 1.3.3-.6-.2-1.2-.7-1.5.1 0 0 .1-.1.2m-2 9.7c-.1 0-.2 0-.3.1.2.2.4.4.6.5l.2-.2c.2.2.5.2.7 0 0-.2.1-.9-.3-.7-.1.3 0 .6.1.8-.2-.2-.5-.2-.7-.1 0-.4-.1-.8-.2-1.1-.3.2-.3.5-.1.7m-16.9 9.1c-.1-.3-.2-.7-.4-1-.3.2-.2.7.1.9-.1.2-.3.3-.4.4.2.6.3 1.3.4 1.9.1 0 .3.1.4.1-.2-.2-.1-.6.2-.7V35c-.3.3-.4.8-.2 1.2-.1 0-.1.1-.2.1-.3-.6-.3-1.2.1-1.7m9.3-19.2c0-.5.1-1 .3-1.5.4 0 .2.6.3.8.4-.1.4-.7.7-1 .3-.3.9-.4.9-.9-.8-.5-1.9.1-2 1.1-2.3-.7-1.2 2.4-1.8 3.5.1.1.2.1.2.2.1-.8 1.2-1.4 1.4-2.2m-9.7 31.3c-.8-.2-1.5 0-1.3 1.1.2 1 1.3 1.4 1.8 2.2-.1.3-.1.5-.2.8-.1-.3-.1-.7-.2-1-.3 0-.3.4-.2.6.3 2.2-.4 4.4.8 6.6 1-3.1 1.8-6.5.3-9.6-.2 0-.3 0-.4.1-.3-.2-.5-.4-.6-.8m15.1-33.4c.3 0 .6.1.8.1-.3-1 1.2-1.9.5-2.7.1-.1 0-.3-.1-.3.6-.3.5 1.4.3 1.8 3.9-2.7-4.5-4-5.7-1.3 1.3-.2 2.4.2 3.4.8 1.4-.8-1.3-1.9-2.1-1.7l1.8-.3c.3 1.1 2.8 2.7 1.1 3.6m-14.6 14c-.1-.5-.2-1 0-1.5-.1.1-.3.1-.4.2.6 2.1-1.2 4.6.3 6.5-.4-1.7 0-3.5.3-5.2h-.2m.6-5.4c0 .5-.8.7-.6 1.2-.9 1-1.3 2.7-1.7 4 1-1.3 1.1-2.8 2-4.1.4-.2.5-.7.3-1.1m-1.8 31.2c.1-.2.1-.6-.2-.7-.3-1.1.3-2.6-.3-3.5 0 1.4-.5 3 .5 4.2m9.7-28.3c.2-.1.2-.5 0-.5-.1.2-.2.3-.4.4v.2c-.8.3-1.1 1.3-1.5 2 .2-.1.3-.1.5-.1 0-.1.1-.2.1-.3.2.1.4-.2.2-.3.3.1.2-.4.2-.5.2-.5.6-.6.9-.9m-6.1-2c1 .3 1.5 1.2 2 2 .4-.9-1.1-2-1.9-2.3 0 .2 0 .2-.1.3m8.9-9.1c.5.4-.4.6-.6.7 0 .2 0 .5-.1.7.4 0 .7-.8 1.2-.9 1-.1-.4-1.6-.1-.5 0 .1-.1.1-.1.2-.1-.2-.3-.3-.3-.2m23.1 13.5c1.1-.6 2.4-2 2-3.3-.1 1.2-.9 2.3-1.9 3 0 .1-.1.2-.1.3m6.4-9.9c0-.3.1-.6.3-.8-.2-.9-.6-1.7-1.2-2.3-.2.6.5 1 .8 1.4.1.5.1 1.2.1 1.7M38.1 85.1c-.1.7-.9 1.2-.7 2.1.2-.5 1.7-1.9.7-2.1m.5-72.7c-.2.3.4.4.6.5.3 0 .2-.7.5-.8-.1-.2-.2-.4-.4-.6-.2.3-.3.7-.2 1-.1 0-.3-.1-.5-.1M68 25.5c-.1 0-.3-.1-.4-.1 0 .4-.1.8-.3 1.1.3 0 .3.8.6.5-.4-.3 0-.9.2-1.2 0-.1-.1-.2-.1-.3m1.3-7.3c.2.1.4.1.5 0-.3-.5-.7-.9-1.2-1.1.1.4.3.9.7 1.1m-44.7 6.5c.4-.5 1.5-1.4 1.1-2-.5.6-.9 1.3-1.1 2m12.5 59.1c-.3 0-.3.4-.5.6-.2.1-.6 0-.7.2.5.8 1.3 0 1.2-.8m37.7-60.9c.1.7-1.1 1.3-.2 1.9 0-.3 0-.7.1-1 .1 0 .2.1.3.1.1-.3 0-.7-.2-1M74 34.8c-.5.4.1 1.6.7 1.5-.3-.5-.5-1-.7-1.5M49.5 20.2c.3-.6.5-1.5.1-2-.4.4 0 1.4-.1 2m7.8-9.1c-.1.1-.1.2-.2.3-.1-.1.2-.6-.1-.6-.6.6.7 1 1.1 1.3-.1-.4-.4-.8-.8-1M25.7 33.4c.1-.1.2-.1.3-.2-.4-.3.1-1-.4-1.3.1.9-.3 1.8-.3 2.8.3-.3.4-.8.4-1.3M45.6 11c.2-.5.5-1.3.3-1.8-.5.5-.6 1.2-.3 1.8m26.2 17.2c.2-.8-.6-1.6-.9-2.3-.1.8.8 1.5.9 2.3m-4.6-2.9c-.3.3-1.4 1.3-.4 1.4-.3-.4.6-1 .4-1.4m2.6-5.7c-.1.2-.1.5.1.7 1-.9-.6-3 .2-.8-.1.1-.2.1-.3.1m4.8 9.5c.2-.4-.9-.6-.5-1-.1 0-.2-.1-.2-.3-.1.1-.3.1-.2 0-.3.3.5 1 .8 1.3 0-.1.1-.1.1 0M45 9.5c0-.2-.1-.5-.3-.4-.1.4-.2.8-.1 1.2h.3c0-.2.1-.5.1-.8M72.6 22c.3-.2.9-.2 1.1.2.1-.1.3 0 .2.1.2-.9-1.3-.6-1.8-.5.2.1.3.2.5.2m-38.2.2c0-.7.7-1.4.6-2.1-.3.6-1 1.4-.6 2.1m19.5 5.5c.1-.1.2-.2.3-.2-.5-.5-1.3-.2-1.9-.4 0 .6 1.1 0 1.3.5 0-.2.2-.1.3.1m-28.5-.1v.3c.4-.4.6-1.1.4-1.7-.1.5-.2 1-.4 1.4M36 18.5c-.5.2-.7.8-.4 1.3.1-.3.3-.6.5-.9 0-.1 0-.2-.1-.4m32.3 5.1c.1.7.5 1.3 1 1.8 0-.7-1-1.2-.7-1.9-.1.1-.2.1-.3.1M28.5 49c.1-.3 0-.6-.1-.8-.1.1-.2.2-.3.2.1.4.1.9.2 1.3.2-.2.2-.4.2-.7m12.4-24.4c-.2.2-.3.5-.3.8h.3c-.1-.3.2-.6.5-.7-.1-.1-.2-.3-.3-.4-.2-.4-.2.1-.2.3m33 8.6c-.1-.1-.3-.2-.5-.1 0 .1.1.1.2.1 0 .5 0 1 .3 1.4 0-.1.1-.2.2-.2 0-.4-.2-.7-.4-1 0-.1.1-.2.2-.2M67 27.1c-.3 0-.6.1-.9.1-.1.1-.1.2 0 .3.3.1.6.1.8.2.1-.2.2-.4.1-.6m-42.9.6c.1.5.1 1.2.4 1.6.2-.3.1-.7-.2-.9.2-.2.1-.6-.2-.7m36.4-17.4c-.1-.1-.3-.2-.4-.2-.4.2-.7.3-1.1.5.5-.2 1.4 0 1.5-.3M28.7 26.6c-.4.2-.6.8-.3 1.2.3-.4.5-.8.3-1.2m6-6.8c.1.1.2.1.3.2.1-.4.2-.9.1-1.4-.1.1-.2.3-.4.4.2.2.1.5 0 .8m22-9.8c.1-.2.2-.4.4-.5-.3.1-.7.1-1-.1-.1.2.1.5.3.4-.1.1-.2.1-.2.2h.5M30.5 21.9c-.2 0-.4.1-.5.1.1.2.2.3.2.5.3-.2.6-.4 1-.5-.3-.1-.5-.1-.7-.1m-2.6.9c-.6.3-.8.9-.8 1.5.4-.3.4-1.1.8-1.5m40.3.1c-.1-.4.2-1.1-.2-1.2-.1.4-.1.9 0 1.4l.2-.2m6 9.2c0 .2.1.5.3.6.1-.5 0-1-.2-1.4-.2.3-.2.6-.1.8m-3.1-9.6c.1.1.2.1.4.1-.2-.4-.5-.7-1-.7 0 .2.3.5.6.6m1 2.9c.1 0 .2.1.2 0-.4-.3-.8-.6-1.2-.8.2.4.6.7 1 .8m-24.8-10c-.3.4-.4.9-.4 1.4.5-.1.3-1.1.4-1.4m5.2 4c.1-.4.5-.9.3-1.2-.3.3-.5.7-.5 1.1l.2.1m10.1 7.4c-.3.3-1 .7-.9 1.2.4-.4.7-.8.9-1.2M40.9 12.4c0 .1.1.3.2.3.2-.2.2-.6.1-.8-.2-.1-.3.3-.3.5m32.9 12.5c0 .3.1.5.3.7-.2 0-.3.3-.1.4.1 0 .2-.2.1-.3.2-.1.3-.3.3-.4-.2.3-.1-.4-.3-.2-.1 0 0-.2.1-.2-.1 0-.3-.1-.4 0m-12.1 3.5c.1-.1.1-.2.2-.3-.1 0-.3-.1-.4-.1-.2.1-.3.3-.5.4.2.3.5.3.7 0M72 26.1c.1.4.5.8.9.9-.1-.5-.5-.8-.9-.9m-46.2-3.6c.3-.2.6-.5.8-.8-.5-.4-.7.5-.8.8m25.4 3.2c.5-.2-1.1-.6-.8.2.2-.2.5-.2.8-.2m-17.6-5.2c-.1 0-.1.1-.2.1v.5c.3-.2.6-.4.7-.7-.1 0-.3 0-.5.1m9.7 2.9c.1-.1.1-.2 0-.2-.3.3-.6.6-.8 1 .3-.2.6-.5.8-.8m-14.3.2c.3-.2-.2-.6-.4-.7 0 .3.1.6.2.9h.3c0-.1 0-.1-.1-.2m37.4-7.5c.1-.2.3-.5.5-.6-.3-.2-1.2.5-.5.6m-6.8 13c.1-.1.3-.1.4-.1.1-.1.1-.2 0-.3-.3.1-.6.2-.9.2.2.1.3.3.4.6.1-.1.2-.3.1-.4m1.2-15.7c.1-.4-.2-1.2-.6-1.2l.6 1.2m-29 9.7c0-.1 0-.3-.1-.4-.1.3-.6 1-.2 1.1.1-.3.2-.5.3-.7m-6.7 1.7c-.1.2-.2.5-.2.7.4.2.5-.7.5-1l-.3.3m6.3 1.3v.8c.1 0 .1-.1.2-.1.1-.4 0-.7-.1-1.1-.1.1-.1.3-.1.4m29.7-5.9c0-.3.2-1-.1-1.1-.3.4-.2.9.1 1.1M54.5 28c-.3-.2-.6.1-.4.4.1-.1.2-.1.4-.2 0 .2.3.4.5.3-.1 0-.2 0-.3-.1 0-.1 0-.3-.2-.4m6.4-.7c-.3 0-.4.4-.3.7.3 0 .6-.5.3-.7m13.4 6.4c.1.1.2.1.3.2-.1-.3-.1-.7-.2-1-.1.1-.3.2-.3.4.1.1.2.3.2.4m-47-3.3c.2-.3.1-.6-.1-.9-.1.2-.2 1.1.1.9m8.2 53.8c.3-.2.6-.3.9-.3-.3-.1-.5-.1-.8-.2 0 .1-.2.1-.2.1 0 .1-.1.1-.1.2.1 0 .2.1.2.2m2.1-64.6c.2-.1.4-.3.5-.5-.4.2-.8.5-1.1.7.2 0 .4 0 .6-.2m31.7 8c-.1.3 0 .7.1 1 .1-.3.1-.5.2-.8-.1 0-.2-.1-.3-.2m-40.9 4.3c.3-.1.7-.7.5-.9-.3.2-.4.5-.5.9m-.7-11.3c-.3 0-.9.6-.5.8.2-.2.4-.5.5-.8m33.2 0c-.3.3-.3.8.1 1-.1-.3-.1-.7-.1-1m5.6-1.6c.1.1.2.1.3.1 0-.3-.1-.6-.1-.8-.3 0-.3.4-.2.7m2.7 8.1l.6.3c-.1-.4-.3-.7-.7-.8 0 .2.1.4.1.5m-26.8-1.6c.2-.1.3-.5.1-.6-.1.2-.6.8-.1.9v-.3m29.8-2.3c-.2-.2-.3-.4-.3-.6-.1.1-.2.2-.4.2.3.1.5.9.8.7-.1-.1-.1-.2-.1-.3M26 37.9c.2-.3.3-.7.3-1.1-.3.3-.4.8-.3 1.1m8.1-18c.1-.2.3-.4.3-.7-.2.3-.4.5-.7.8.1.1.3 0 .4-.1m-1.6 1.8c0 .2 0 .4-.1.5.5.1.4-.6.2-.8 0 .1-.1.2-.1.3m-5.7 11.5c-.6-.4.1.3-.1.6.1 0 .1.1.2.1.1-.2 0-.5-.1-.7m7.6-14.8c.1.1 0 .3-.2.3.5.2.7-.6.2-.7v.4M25 31.8c0 .1-.2.1-.2 0-.1.4-.1.8 0 1.1.1-.3.2-.7.2-1.1m38.7-11.2c0-.1-.1-.3-.3-.3 0 .3.1.7.1 1l.2-.2v-.5m-26.3-2.3c0-.1 0-.3-.2-.3v1.2c.1-.3.2-.6.2-.9m15.1-.3c.1 0 .2-.2.2-.3-.3.2-.6.4-.8.6.2.2.5 0 .6-.3m-.4-7.6c-.2.1-.3.3-.3.5.3 0 .6-.3.6-.6-.1 0-.2 0-.3.1m1.9 4.5c-.2.2-.2.5-.1.8.3-.2.3-.5.2-.8M56 28.4c.3.2.9.7 1.2.3l-1.2-.3m18.9 1.4c0 .1.2.1.2 0-.2-.1-.3-.4-.1-.5-.1 0-.2-.1-.3-.1-.1.2-.1.5.2.6m-11.8-3.9c-.2.1-.3.3-.3.5.3-.2.6-.5.6-.9-.1.2-.2.3-.3.4m-34.2-3.5c0 .1.1.2.2.3 0-.3.1-.7.1-1-.2.1-.3.4-.3.7m9.2-4.1c-.1 0 0 .2.1.2.1-.1.2-.1.3 0 .2-.1.3-.3.3-.5-.3.1-.5.2-.7.3m35.1 12.1c-.1-.3-.2-.7-.5-1 0 .4.1.8.5 1M30.5 25c-.1.1-.2.2-.2.4.3.1.5-.2.7-.5-.2 0-.3 0-.5.1m14.2-2.5c.2.1.4.2.6.4l.3-.3c-.3-.1-.6-.1-.9-.1M56 20.4c-.3.2-.7.4-1 .6.4.1.9-.2 1-.6m16.8 14.1c0 .3.2.5.4.7.1-.3 0-.6-.2-.8-.1 0-.2.1-.2.1m2.3-1.3c.1-.1 0-.3-.1-.3-.2.2-.2.5 0 .8.2-.1.2-.3.1-.5M37.9 17.1c-.1.2-.2.4-.3.5.3-.1.6-.3.5-.6 0 .1-.1.1-.2.1m-8.6 8.6c.2.2.5.2.8.1-.4-.1-.7-.2-1.1-.3 0 .1.2.3.3.2m6.9-8.6c-.1-.2-.1-.4-.2-.6-.4-.1-.1.5-.2.6.2-.1.3-.1.4 0M45 13c0-.2.1-.5.1-.7-.2 0-.3.3-.2.4-.1.1-.2.2-.2.3 0 .1.2.1.3 0m28.6 13.1c-.1-.1-.2-.1-.3-.1.2.2.4.5.4.7.2-.1.2-.5-.1-.6m-20.9-2c.1 0 .3 0 .4.1 0-.1.1-.1 0-.2-.3-.1-.6-.1-.9.1.3-.1.4 0 .5 0m13.4-10.2c-.1-.1-.2-.2-.3-.2-.1 0-.1.1-.2.1.2.1.4.3.4.5.2 0 .2-.3.1-.4M55.9 27.4c-.1-.1-.3-.3-.4-.3.1.2.1.4.1.5.1.2.3 0 .3-.2m-11.8-9.1c0 .1.1.2.1.2.2-.3.1-.7-.2-.9-.1.2 0 .4.1.7M25.6 31c0-.1 0-.3-.1-.4-.2.2-.3.7 0 .8.1-.1.1-.3.1-.4m2.3-.6c-.3.3.7.1.7-.3-.2.1-.5.2-.7.3m38.3-5.3c0 .1 0 .2-.1.2.3.2.4-.3.4-.5-.1 0-.2-.1-.2 0s-.1.2-.1.3m-41.9 2.1c.1-.3.2-.6.1-.9-.3.2-.3.6-.1.9m3.9 19.3c0-.2 0-.4-.1-.5-.1.3-.1.6-.1.9.2 0 .3-.3.2-.4m37.5-20c-.3.1 0 .5.2.5.1-.1.1-.3 0-.5 0 .1-.1.1-.2 0m-23.2-4.1c.2 0 .3-.2.3-.3-.3.1-.6.4-.6.7.3-.1.4-.2.3-.4M72.1 31c.1.1.2.3.2.5.1-.3.1-.8-.2-1 .1.2.1.3 0 .5m-39 48.2c-.1-.1-.1-.2-.2-.3-.2.3-.1.6 0 .9.2-.2.2-.4.2-.6m41.3-52.4c.1.1.2 0 .3-.1h-.2c0-.2 0-.4-.2-.4 0 .2-.1.4-.1.6.1 0 .2 0 .2-.1m-43.6-3.6c0-.2.1-.4.2-.6-.3-.1-.5.4-.2.6m24.3-7.5v.3c.2-.2.3-.6.2-.9-.1.2-.2.4-.2.6M73.4 32l.3.6c.1-.3 0-.6-.2-.8-.1-.1-.2.1-.1.2m-21.7-6.4c0-.1.2-.1.2 0 .1-.1.1-.1.1-.2-.2-.1-.4-.1-.6 0 .1 0 .1.1.3.2M31.3 25v.5c.1 0 .1.1.2.1.1-.2 0-.5-.2-.6m1.1 52.6h-.2v.4c.3.2.5-.2.2-.4m-.5-.7c0 .2.2.5.4.6.1-.3-.2-.6-.4-.6m-2.1-55.5c-.1-.1-.2.1-.1.2.3 0 .5.1.7.1 0-.3-.3-.4-.6-.3m43.5 10.1c-.1.1 0 .3.1.2 0-.3-.1-.6-.1-.8-.1.1-.2.3-.2.5.1-.1.2 0 .2.1M26.9 42.2c-.1.2 0 .5.1.6.2-.1.1-.5-.1-.6M68 18.1c0 .2.2.5.4.3-.2-.2-.3-.4-.3-.6-.1.1-.1.2-.1.3m-1.3 2.1c.2-.2.2-.5 0-.7-.1.2-.1.5 0 .7m-15.2-7c0-.1-.1-.2-.1-.3H51c.2.2.4.3.5.5v-.2M39.8 23.6c-.1 0-.2.1-.3.1.2.2.5.2.7.1 0-.1-.1-.1-.1-.2h-.3M40 90c-.1-.1-.1-.2 0-.3-.1-.1-.1-.1-.2-.1 0 .2-.1.4 0 .6 0-.1.1-.1.2-.2m.3-74.7c0 .1.1.3.3.3.1-.4-.4-.7-.3-.3m31.3 9.2l.3.3c-.1-.3-.2-.6-.5-.8.1.2.1.4.2.5m-35.2-4.8c.1-.1 0-.2-.1-.2l-.3.6c.3 0 .5-.2.4-.4m1.3 2.6c-.1.2-.1.4.1.5.1-.2.1-.4.2-.6-.1 0-.2 0-.3.1M29.8 30c-.2.3-.2.6-.1.9.1-.3.1-.6.1-.9m1.1-2.4c-.2 0-.3.3-.1.4.2-.2.2-.4.2-.6 0 0-.1.1-.1.2m2-6.5c.1.3.2-.1.2-.3-.2-.3-.5.1-.2.3M37 86.3c-.1.1-.1.3-.1.4.3.1.3-.4.2-.6-.1 0-.2.1-.1.2m6.9-65.6c.2-.2.2-.5.2-.7-.1.3-.2.5-.3.8 0 0 .1 0 .1-.1M35 25.8c.1-.3-.4-.2-.4.1.1.1.3.1.4-.1M61.3 77.2c.1.2.2.4.1.6-.1 0-.1-.1-.2-.1-.1-.2-.1-.4.1-.5M65.5 12c0-.1-.1-.2-.1-.3.2 0 .4 0 .6.2-.1.1-.3.1-.5.1" />
    <path
        d="M61.7 60.4c-.1-.1-.2-.3-.1-.5.4-.2.6.6.1.5M41.7 87.7c-.3.1 0-.5.2-.5v.4c0 .1-.1.1-.2.1M51.1 27.7c.3.3-.3.4-.4.2-.1-.3.3-.2.4-.1M47 91c-.3-.1-.3-.5-.1-.6.1.1.1.3.1.6M53 80.4c.1.1.1.3-.1.3-.1-.2-.1-.3-.2-.5.1 0 .1-.1.2-.1.1.1.1.2.1.3M46.2 7.3c.1-.1.2-.1.4-.2 0 .3-.2.5-.5.4 0-.1 0-.2.1-.2M53.2 87.9c.2 0 .3.2.4.3-.2 0-.4-.1-.5-.1-.1 0 0-.1.1-.2M55.7 7.4c.2.1.2.4-.1.4 0-.1-.2-.5.1-.4M42.9 90.2c-.2-.2 0-.5.2-.6.1.1.2.3.1.5-.1-.1-.2 0-.3.1M62.2 74.7c.2 0 .4.2.4.4-.1.1-.3.1-.4-.1v-.3M62.7 74.3c-.3.1-.6-.2-.5-.4.2 0 .4.1.5.4M49.4 90.1v.3c-.2-.1-.3-.3-.3-.5.2-.1.6.1.3.2M57 57.1c.1-.1.1-.1.2-.1s.1.1.1.2l-.4.4c.1-.2.1-.3.1-.5M31.9 51.2c.1 0 .3-.1.4-.1-.1.2-.3.3-.5.4-.1 0-.1-.1-.1-.2.1 0 .2 0 .2-.1M38.1 82.6c-.2.1-.4.2-.7.1 0-.1.1-.2.1-.2.2 0 .4 0 .6.1M40.3 77.4c.1.2 0 .5-.2.5 0-.2.1-.5.2-.6M36 48.7c.5-.1-.1.3-.4.2.1 0 .2-.1.2-.2h.2M64.8 77.2c-.1.1-.1.2-.2.4-.2-.2-.2-.4-.1-.6 0 .1.1.2.1.3M47.2 85.1c.1 0 .2-.1.2-.1.1.2.2.5.1.7-.2-.1-.4-.4-.3-.6M36.7 81.6c0-.2.1-.4.2-.5.1.2.1.4.1.6-.1 0-.2.1-.2.1s0-.1-.1-.2M61.2 72c.2.1.2.4 0 .6-.1-.2-.2-.4-.2-.6h.2M43.2 88.9c0 .2 0 .3-.1.5-.2-.2-.3-.4-.2-.6.1-.1.3 0 .3.1M47.2 87c.2.2.3.5.2.8-.4-.1-.3-.5-.2-.8M39.9 79.1c.1.2 0 .4-.1.6-.1-.3-.2-.6 0-.9.1.1.2.2.1.3M51.7 84.6c-.3 0-.5-.4-.3-.6.1.1.2.3.1.4.1 0 .2.1.2.2M46.1 88.5c-.1-.2.1-.4.3-.5 0 .3-.1.5-.2.7-.1 0-.1-.1-.1-.2M55.1 88.9c-.1 0-.2.3 0 .3-.1 0-.2.1-.2.1-.1-.2-.1-.4 0-.6 0 0 .2 0 .2.2M48.3 82.6c.1-.2.5-.1.4.2-.1-.1-.2 0-.3.1-.1-.1-.4-.4-.1-.3M71.6 34c-.1-.1-.1-.2 0-.4h.2c.2.1.2.3.1.5 0-.1-.2-.3-.3-.1M41.6 8.9h-.2c.1-.3.7-.4.7 0-.2-.1-.4-.1-.5 0M56.5 6.7c-.1.2-.1.3-.2.5-.2-.1-.3-.3-.3-.6.2 0 .7-.1.5.1M34.4 80.1c0 .1-.1.2-.2.1.1-.1.1-.3 0-.4.1-.1.2-.2.4-.2.1.1 0 .4-.2.5M52.7 83.7l.1-.1c.2.3.2.6 0 .9 0-.2 0-.5-.1-.8M63 75c-.1-.1-.1-.3-.1-.4h.2c0 .1.1.3.2.4 0 .1-.1.1-.1.2-.1 0-.3-.1-.2-.2M41.1 86.4c.1-.2.2-.4.4-.4-.1.2-.2.5-.3.7-.1 0-.1-.1-.1-.3M33.6 14.6c.1-.2.2-.5.4-.6 0 .2-.1.6-.4.6M30.9 51.6c0 .2 0 .3-.1.5-.1-.1-.1-.2-.2-.3.1-.2.2-.3.3-.5v.3M62.6 59.3l-.2-.2h.8c0 .1-.1.1-.1.2h-.5M36.1 81.1c0-.2.2-.4.4-.6-.1.3-.2.5-.3.8 0 0-.1-.1-.1-.2M42.2 87.8c.2-.2.5-.1.6.1-.1.1-.3 0-.4-.1 0 .1-.1.2-.3.3.1-.1.1-.2.1-.3M36.3 27.5c-.1.2-.5 0-.5-.2 0 .1.1.1.1.2.1-.1.1-.2.2-.3.1.1.2.2.2.3M60.1 74.8c.1.1.2.2.4.3-.2.2-.5-.2-.7-.3h.3M33.7 77.7c.3 0 .5 0 .8-.1-.2.2-.6.3-.8.1M42.4 11.3c-.3.5-.1-.9.3-.4-.2.1-.3.2-.3.4M52.6 76c0 .2 0 .4-.1.6-.4.2-.4-.7-.1-.8l.2.2M44.6 77.1c0-.2.1-.5.1-.7.3.2.4.9-.1.7M49.6 80.3c.1.2.1.5-.2.7-.1-.2-.1-.4-.1-.6.1-.1.2-.1.3-.1M57.9 75.2c-.3.3-.7-.2-.4-.4-.1.3.9.3.4.5M51.9 86.3c0-.1 0-.4.1-.4 0 .3.1.6.2.9-.2 0-.3-.3-.3-.5M47.1 92.5c.1.1 0 .2-.1.2-.2-.2-.2-.5-.1-.8.1.3.1.4.2.6M44.3 57.3c.1-.1.1-.3-.1-.3.1-.1.2-.2.3-.2.1.2.1.3 0 .5h-.2M54.7 81.1h.2c-.2.1-.3.1-.5.2.1-.3.2-.5.2-.8 0 .3 0 .5.1.6M37.4 25.1l.3.3c.1.2-.2.4-.3.3.1-.2.1-.4 0-.6M64.6 55.6c.2 0 .3 0 .4.1-.3.1-.6 0-.9-.1h.5M35.1 15.5c-.1.1-.1.3-.2.4-.1-.3.2-.6.4-.6 0 .1 0 .2-.2.2M56 75.6c-.1 0-.2 0-.2-.1-.1-.2-.1-.4 0-.6 0 .2.1.4.2.7M60.6 75.9c.3-.1.7.2.6.5-.3-.1-.5-.3-.7-.5M57.8 7.7c0-.2 0-.3.2-.4 0 .3.2.6.4.7-.3.2-.7 0-.6-.3M47 7.6c0-.2.2-.5.4-.6-.1.1-.1.9-.4.6M44.8 48.6c-.1-.3.2-.7.5-.6v.2c-.2 0-.4.2-.5.4M40.9 77c0-.1.1-.2.2-.2.1.2.2.5 0 .7-.1-.1-.2-.2-.2-.3V77M57.7 6.8c.2 0 .3.2.2.4-.2-.2-.5-.4-.8-.4.2-.1.4-.1.6 0M43.7 89c.2-.2 0 .6 0 .8-.1 0-.1-.1-.2-.1 0-.2.1-.5.2-.7M36.7 56.1c.1.1.3.1.4.2 0-.1.1-.2.3-.3.1.1 0 .3-.1.4l-.6-.3M59.5 31.1c.1 0 .3 0 .4.1 0 .1.1.1 0 .2-.1 0-.1.1-.2.1 0-.1-.1-.2-.1-.3 0 .1-.1.2-.1.3v-.4M54.9 79.8c.4.2-.3.6-.3.1-.2.2-.4-.2-.1-.3.1 0 .6 0 .4.2M58.2 30.6c.2 0 .5-.1.7-.1 0 .1.1.2.1.3-.1.1-.2.2-.4.2-.1-.1-.3-.2-.4-.3M61.1 9.5c.1-.2.3-.5.4-.7 0 .3 0 .6-.1.9-.1 0-.2-.1-.3-.2M47.1 6.1c-.1.2-.4.2-.6.1.3-.2.7-.3 1.1-.2-.1 0-.3.1-.5.1M37.8 81.8c.1.2-.1.5-.3.5.1-.3.2-.6.4-.9 0 .1 0 .2-.1.4M60.9 81.1c-.2 0-.3-.1-.5-.1-.1-.1 0-.3.2-.3.1.1.1.2.2.2.2 0 .3.1.5.1-.2.1-.3.1-.4.1M60.5 75.7c-.2-.1-.5-.2-.7-.3.1 0 .3-.1.3-.3.1.2.3.3.5.4 0 .1 0 .1-.1.2M51.2 80.8l.2-.2c.2.2.3.5.3.8-.2-.1-.4-.3-.5-.6M48.9 81.9c0 .1 0 .2.2.2-.2.1-.3.1-.5 0 .1 0 .1-.1.3-.2-.2 0-.3-.2-.3-.3.1-.1.2-.1.3 0-.1 0-.1.2 0 .3M38.2 83.2c-.1 0-.2.1-.3.1.1-.2.3-.4.6-.5 0 .2.1.3 0 .5-.1 0-.2-.1-.3-.1M56.1 74.8c-.1 0-.3.1-.4.1.1-.1 0-.4-.1-.5.3 0 .5.2.5.4M52.5 87.5c0 .3-.1.5-.2.8-.2-.4-.2-.9 0-1.2.2 0 .3.2.2.4M53.7 51.2c.1 0 .1-.1.2-.1.2.3.3.8-.1 1 0-.1 0-.3-.1-.3.1-.2.1-.4 0-.6M55 90.3c-.1 0-.2 0-.3.1-.2-.3-.2-.6 0-.9 0 .1.1.2.2.2 0 .2 0 .4.1.6M47.3 82.7c-.1 0-.3-.1-.4-.1.2-.1.4-.3.3-.6.1-.1.2-.1.3 0 0 .3-.1.5-.2.7M45 27.6c.2.2-1.1.1-.6-.4.2.1.4.3.6.4M53 88.2c0 .2.1.4.1.6l-.6-.6c.1 0 .3 0 .4.1-.2-.1.1-.2.1-.1M31.5 50.6c0 .3-.1.5-.2.8-.3-.4-.3-1 .1-1.2 0 .1 0 .2.1.4M44.6 81c-.2.1-.4-.3-.1-.4-.2-.1-.1-.5.1-.5.2.3.2.7 0 .9M60.6 77.3c.4 1.4-.1.7-.3-.1 0-.2.3 0 .3.1M42.2 88.9v.4c-.1.1-.2.1-.3.1-.1-.2-.1-.5 0-.7l.3-.3c0 .1-.1.3 0 .5M44.9 73.4c0 .1-.1.3-.2.3 0-.4.2-.8.5-1-.1.2-.2.4-.3.7M56.1 74.8c.2 0 .4.1.6.1-.1.2-.2.5-.3.7-.1-.3-.2-.6-.3-.8M28.2 39.3c0 .2 0 .4-.1.5-.2-.4-.1-.9.2-1.1 0 .2-.1.4-.1.6M55.3 75.6c.1.2.2.5.1.8-.1-.3-.2-.7-.4-1 .1 0 .1-.1.2-.1s.1.2.1.3M56.5 59.6c-.1.1.1.3.2.2.1.1.1.4 0 .5-.1-.1-.1-.3-.1-.4-.2 0-.4-.1-.5-.2.1 0 .2-.2.2-.3.1 0 .2.1.2.2M52.2 81.1c-.2 0-.3-.2-.3-.4.3.1.6.3.9.4-.1-.1-.4-.1-.6 0M59 52.5c-.2 0-.4.1-.6.1.2-.1.5-.3.7-.4.1.1.1.2.2.4-.1 0-.2 0-.3-.1M43.9 59.3c.2-.3.4-.6.7-.9v.3c-.3.2-.5.4-.7.6M47.1 73c.1.2.3.4.2.6-.3-.2-.4-.6-.3-.9.1 0 .1-.1.2 0-.1.1-.1.2-.1.3M33.2 18.3c.2.2.3.5.3.8-.1.1-.2.2-.4.3 0-.4-.1-.9.1-1.1M36.6 55.4c-.2 0-.4-.1-.4-.3.3-.3.9-.1.9.3h-.5M33.8 18c0 .1 0 .2.1.3-.1 0-.1.1-.2.1l-.2-.2c0-.2 0-.5.1-.7.1.2.2.3.2.5M52.5 8.6c-.1 0-.2-.3-.1-.3.3.3.2.8-.2 1 .1-.3.2-.5.3-.7M55.1 74.3c.3.1.4.5.5.8h-.3c0-.4-.1-.6-.2-.8M50 8.6c.3-.2.7-.2 1 0-.2.2-.6.4-.9.3 0-.2 0-.3-.1-.3M49.3 83.9v.3H49c.1-.3.1-.6.2-.9.1.1.1.2.2.3-.1.1-.1.2-.1.3M29.3 33.7c-.2-.2 0-.6.3-.7-.1-.1 0-.3.1-.3-.1.4-.2.7-.4 1M35 14.6c.1-.2.3-.4.4-.7 0 .1.1.2.2.3-.3.2-.4.4-.5.7-.1 0-.1-.1-.1-.3M60.4 83.4c.1.2.1.4.2.6-.2 0-.3.1-.5.1-.1-.3 0-.5.1-.8 0 .1.1.2.1.3 0-.1 0-.1.1-.2M39.8 86.1c.1 0 .2 0 .3.1-.1.1-.1.2 0 .3-.2.1-.3.3-.4.4-.2 0 .3-.5 0-.4.1 0 .2-.2.1-.4M56.3 76.7c-.3-.2-.8-1.1-.2-1.1.2.3.3.7.2 1.1M48.5 88.8v-.3c.1-.1.3-.1.4 0-.1.2.3 1-.2 1 0-.2.1-.3.1-.5-.1-.1-.2-.1-.3-.2M59.1 74.9c-.2-.1-.3-.2-.4-.3.3.1.5.2.8.2.1.2.1.4.1.5-.2 0-.4-.2-.5-.4M59.9 76.8c-.1.3-.5-.3-.4-.4.3 0 .5 0 .8.1.1.1.1.2 0 .3l-.2-.2c-.1.1-.2.1-.3.1 0 0 0 .1.1.1M53.3 5.5c.3 0 .5.1.8.1-.1 0-.2.1-.3.2.1.1 0 .3-.1.4v-.4c-.1-.1-.3-.2-.5-.1-.1-.1 0-.2.1-.2M55.9 88.2c0-.1 0-.2-.1-.3 0-.1.1-.1.2-.1-.3.4.6.8.2 1 0-.2-.1-.3-.3-.4v-.2M53 82.1c.1-.2.1-.5.1-.7.2.1.4.3.5.4 0 .3-.9.8-.6.3M50 80.6c.3-.1.5-.1.8-.1-.2.1-.4.2-.5.1.1.2.1.5.1.7-.1 0-.2.1-.3 0-.2-.1-.2-.4-.1-.7M46.1 54.8c.1.3.2.6.3 1-.2-.2-.5-.4-.7-.6 0-.1.1-.2.1-.2l.1.1c0-.2.1-.3.2-.3M67.8 50.6c-.2-.3-.3-.5-.5-.8.4 0 1 .5.5.8M47.9 8.5c.1-.4.3-.9.8-1-.3.3-.4.9-.8 1M52.7 5.6c-.3.2-.6.9-1 .8.1-.4.5-.7 1-.8M66.5 49.8c-.1-.1-.2-.2-.2-.3 0-.2.5.1.6-.1.2.1.3.3.5.4-.4-.1-.7-.1-.9 0M56.1 51.3v-.2c.1.1.2.4 0 .4l.2.2c-.1.1-.2 0-.2-.1l-.3.3c-.1-.1-.1-.2-.2-.3.1-.1.2-.1.3-.1-.1-.1.1-.3.2-.2M51.9 94c-.4.2-.6-.5-.4-.7l.3.3c0-.1.2-.1.2 0 0-.2.1-.3.3-.3-.1.2-.1.4-.1.5-.1.1-.2.2-.3.2M33.1 73.7c-.2.2-.3.3-.4.6-.3-.5.4-.9.8-1 0 .2-.2.4-.4.4M54.7 6.5l-.6.3c-.2-.2.1-.5.3-.3.1-.2.3-.2.3 0 .2-.2.4-.3.6-.3-.1.3-.3.4-.6.3M32.6 74.9c-.3.1-.5.2-.8.2l.8-.8c.1.3 0 .5 0 .6M45.3 58c-.2.1-.4.3-.4.6-.1-.3 0-.6.2-.8-.1-.1-.1-.2-.1-.3l.1.1c0-.1.2-.2.3-.2 0 .2-.1.4-.1.6M52.7 94c0-.2.1-.4.2-.5-.1.3 0 .7.3.8-.1 0-.2.1-.1.2h-.5c.1-.1.2-.4.1-.5M63 75.9c.1.1.1.2.1.3l-.6-.3c0-.2 0-.4.2-.6.1.2.1.4.1.6h.2M49.5 7.6c.5-.2 1.1-.6 1.5-.4-.3.4-.9.5-1.5.4M47.3 81.9c-.1-.5 0-1.1.2-1.6.1.6.1 1.2-.2 1.6M48.9 84.3c.1.4-.2.9-.5 1.1-.2-.1-.1-.4.1-.5 0-.2-.1-.3-.2-.4.1 0 .3 0 .3.1 0-.2.1-.3.3-.3M56.7 85.5c.5.2.9.5 1.1.9-.4.2-.9-.5-1.1-.9M52.9 28.5c0 .1.1.2.1.3.2-.2.6 0 .6.3-.5 0-1-.3-1.3-.7.2 0 .4 0 .6.1M34.2 48.5c-.2-.2-.5-.1-.5.2-.5-.6.6-.6 1-.5-.1 0-.3 0-.4.1 0 .1.1.1.1.1-.1-.1-.2 0-.2.1M41.4 89c-.1.5-.3.9-.6 1.3-.1-.2-.2-.3-.3-.5.5.1.5-1 .9-.8M38.5 84c0 .2-.1.5-.1.7h-.2c0-.4 0-.7-.1-1.1.1-.1.1-.2.2-.3.1.2.3.4.4.6-.1 0-.2 0-.2.1M51 87.9c-.3-.4-.9-.6-1-1.1.6-.2 1 .6 1 1.1M42.9 57.4v-.3c.1.3.4.4.6.4 0 .1 0 .2-.1.3-.3.1-.6.2-.8.3-.1-.3.1-.6.3-.7M57.8 41.5c.1 0 .3 0 .4.1-.6.1-1.1.1-1.7 0 .4 0 .8-.1 1.3-.1M52.7 92c.1.4.2.8.2 1.2-.1-.1-.4-.1-.3.1-.1-.1-.2-.1-.2-.2.2-.2 0-.8.1-1.1h.2M37.6 78.6c.2.6.2 1.4-.4 1.7.1-.6.3-1.2.4-1.7" />
    <path
        d="M43.5 57.4c0-.2-.1-.3-.1-.5.1-.1.3 0 .3.1.4-.2.7.4.4.6-.1-.2-.2-.3-.2-.5-.1.1-.3.2-.4.3M44.2 74.6c0 .2.1.5.1.7-.4.2-.4-.7-.1-.7.2-.1.5-.2.5-.3.1.2.1.5 0 .7 0-.1 0-.2-.1-.3-.1-.1-.2-.1-.4-.1M37.4 25.7l.6.6c-.4-.1-.8-.2-1.1-.5 0-.1 0-.2.1-.3.1 0 .2.1.2.2.1-.1.2-.1.3-.1M35.5 48.5c-.1-.1-.3-.1-.4-.1 0 .4-.3.7-.7.8.1-.1.1-.2 0-.3.3-.3.6-.5.8-.8.2 0 .3.2.3.4M41.8 92.2c.1-.3.3-.6.6-.7 0 .1.1.1.1.2-.3.3-.2.8.1 1.1-.3 0-.6-.3-.8-.6M44.6 92.5c-.2-.5-.5-1.8.3-1.8-.4.5.3 1.4-.3 1.8M64.7 28.1c0 .1.1.2.2.2-.1 0-.2.1-.2.2-.4.2-.7.3-1.1.4 0-.1 0-.3-.1-.4.3-.1.6-.1.9-.2.1 0 .2-.1.3-.2M46.3 54c-.2-.1-.5-.3-.7-.4.5-.5 1.2.6 1.1 1.1-.2-.2-.3-.4-.4-.7M63.2 76.1c.1.1.1.2.2.3-.3.2.3.9-.2 1 .1-.5-.9-.6-.7-1.1l.6.3c.1-.2.1-.4.1-.5M42.2 77.8c.1-.6.3-1.2.7-1.7.1 0 .2.1.2.2-.5.4-.5 1.3-.9 1.5M52.8 74.6c.1.3.2.6.3 1-.1 0-.3-.1-.3-.2-.3.1-.5-.2-.6-.5 0-.2.5.3.4 0 0 .1 0 .1.1.2s.2 0 .2-.1c-.2-.2-.3-.5-.1-.4M70.7 63.8c.2-.6 0-1.7.5-2 .3.7.1 1.6-.5 2M43.9 80.8c.1.1.3.2.4.4-.1 0-.1.1-.2.1 0-.1-.2-.2-.3-.1-.3-.2-1.2-.4-.8-.9 0 .2.2.4.4.4l.3-.3c.2 0 .2.2.2.4M41.7 90.7c.1-.6.4-1.1.8-1.5.2.5-.5 1.3-.6 2-.1-.2-.2-.3-.2-.5M46.4 27.5c.2-.2.6-.2.7.1-.1 0-.2.1-.3.1.3.2.6.4.9.7-.4.2-.8 0-1-.4.1-.1.1-.3 0-.4-.1 0-.2 0-.3-.1M45.2 82.1c.2-.1 0-.3-.1-.1 0-.1-.1-.2-.1-.3-.2.1-.6-.1-.4-.3 0 .2.3.1.3-.1 0 .5 1 .4.8.6.1 0 .2-.1.2-.2.1.2 0 .4-.1.6-.2-.1-.4-.2-.6-.2M38.4 26.9c.1-.2.5.1.6-.2.1-.3.4-.4.6-.5.1.1.2.1.2.1l-.8.8c-.1 0-.4-.1-.4 0-.1-.1-.1-.2-.1-.3 0 .2-.1.2-.1.1M51.3 75.7c.1 0 .3-.1.3-.2 0 .1.1.2.2.2.1.3-.2 1.3.3 1 .1 0 .2 0 .2.1-.2.2-.4.3-.7.5.3-.5-.3-1.1-.1-1.4-.1-.2-.2-.2-.2-.2M44.4 49.5c-.4-.2-.9-.3-1.2-.6-.1-.4-.2-.8-.5-1 .6-.2 1 1 1.6.9 0 .2 0 .4.1.7M68.4 51.3c-.1-.2-.1-.4-.2-.7.7 0 1.6.8 1 1.4H69c.4-.4-.5-1.7-.4-.9 0 .1-.1.2-.2.2M49.5 75.9c.2-.4.3-.9.5-1.3.6.6-.3 1.4-.2 2-.1 0-.2.2-.1.3-.6.1-.2-.7-.2-1M53.5 7.9c-.1 0-.1-.1-.2-.1-.1.1-.1.3 0 .4-.4 0-.7-.1-1-.3.6-.2 1.3-.5 2-.7-.2.3-.5.6-.7 1-.1-.1-.1-.2-.1-.3M56.2 72.8c.3.5 1.8 1.3 1 1.9-.1-.3-.2-.7-.3-1-.5-.1-.9-.5-.9-.9h.2M45.6 73.8c-.2.1-.3 0-.5-.1.2-.2.5-.4.7-.6.1.2 0 .5-.1.6.1 0 .2.1.2.2-.3 0-.2.7-.3 1-.2.1-.3.2-.4.3 0-.4.1-1 .4-1.4M51.3 77.1c-.4 0-.6-1-1.1-.7.3-.3.4-.8.4-1.2.2.6.5 1.2.7 1.9M49.1 79.1c-.4-.3-.9-.4-1.4-.4.5.1-.6.3-.7 0 .6-.4 1.4-.4 1.9.1.1-.1.2 0 .3 0 0 .1-.1.2-.1.3M33.4 80c.1 0 .2.1.3.1 0-.5.1-1 .1-1.5.7.2.4 1.9-.3 2.2-.1-.3-.2-.6-.1-.8M46.2 71.9c-.1 0-.2.3 0 .3-.1 0-.2.1-.3.1.1-.2-.1-.4-.2-.6.3 0-.1-.4 0-.4-.4.3-.9-.2-.8-.6.1.5.9.1 1.1.5l-.2.2c.1.1.3.3.4.5M44.4 48.9c.1-.1.3-.2.4-.3-.2.9.9 1.7.7 2.5-.1-.1-.2-.3-.1-.5-.6-.3-1-1-.8-1.7-.1.1-.1 0-.2 0M61.9 42.3c-1-.1-2-.4-3-.6.5-.3 1.2.2 1.8.3.4 0 1-.1 1.2.3M69.8 16c0 .4.1.8.1 1.2-.6.2-.4-1-.6-1.3-.5-.1-.9-.4-1.2-.8.4.1.7.4 1.1.6.1-.2.4.2.6.3M47.8 87h.4c0 .6-.1 1.2-.3 1.7.4.3.1.8.1 1.2-.5-.7-.1-2-.2-2.9M54.3 9v-.7c-.8 1.5-.4-.6.5-.7.4.2.7.5.9.8-.4-.4-1.3-.1-1.1.5-.1.1-.2.1-.3.1M31.5 51.8c.2.1.5.2.7.1.2-.5 1.1-.1 1.5-.5-.1.2-.4.4-.7.4-.1-.2-.4-.1-.5.1-.4.5-1.1.1-1.7.1.3-.2.5-.3.7-.2M33.4 49.5c-.2.5-.7.9-1.2.9 0 .2-.2.3-.4.3.3-.4 1-.8 1.1-1.3 0-1 1-1.2.6.1h-.1M40.8 85.5c-.2-.1-.4-.1-.6-.1-.1.3-.1.5-.1.8-.2.1-.2-.2-.1-.3-.5-.3-.6 1.1-1 .4.4-.5.9-1.7 1.8-.8M40.4 40.4c-4.2.5-3.8 0 .1-.2.1 0 0 .2-.1.2M53.5 78.4c-.4.3-.9.5-1.3.8-.1-.1-.1-.3-.3-.3.1-.1.3-.1.5 0 0-.1.2-.2.3-.2-.3-.6 1.6-.9 2-.5 0 .1-.1.2-.1.2-.4.1-.8-.3-1.1 0" />
    <path
        d="M44.8 92.6c.8-.6.4-1.9.6-2.8.1 0 .2 0 .2-.1.4 1.2-.5 2.4-.2 3.6-.2 0-.3 0-.5-.1 0-.1-.1-.3-.1-.6M47.4 76.6c-.1-.2-.1-.3-.1-.5.1.1.2.3.3.5h.3c.4-.5-.2-1.1-.1-1.6-.1 0-.2-.1-.1-.2.5.3.6 1 .9 1.4-.1 0-.2-.1-.2-.1v.7c-.1 0-.2-.1-.3-.1-.1 0-.3.1-.4.1-.1-.1-.2-.2-.3-.2M48.8 41.6c-1.4-.4-2.8.3-4.2-.1 1 0 2.2-.6 3.1-.1.3-.1.8 0 1.1.2M42.7 92.8c-.2-.5-.2-1.7.4-1.8v1c.2-.2.5-1.1.8-.3 0 .4-.4.8-.1 1.1.1-.2.3-.2.5-.2.2.1.2.3.2.5-.6.1-1.2.1-1.8-.3M46.5 50.2c0-.3.1-.6.3-.8-.1-.1-.3-.2-.3-.4 0 .1-.1.1-.1.1 0-.1-.1-.2-.1-.2-.2.1-.3.2-.5.3l-.2-.2c.2-.1.3-.3.2-.5-.2 0-.2-.3 0-.2.1.2.2.4.4.6 0-.1 0-.2.1-.3.3.1.5.3.6.6.1 0 .2.1.3.1v.5c.3.1.5.2.7.4-.3 0-.5.1-.8.3-.3-.2-.4-.3-.6-.3M47.6 71.5c-.8-.7-2.2-.9-3-1.6 1.3-.5 3.2 1.1 4.1 2.1-.4 0-.9-.2-1.1-.5M45.4 8.8c-.1-.5-.4-1.1-.9-1 0 .3 0 .6-.2.8 0-1.8-1.1-.3-1.8-1 1.1-.1 2.8-.6 3.7.3-.7-.2-.5.6-.8.9M54.3 50.4c-.1 0-.2.1-.3.1.6.3 1.2.7.4 1.2V51c-1.1.1-.5-1.1-.2-.9.3-.5.7-.9 1.2-1.1v.2c.1 0 .2.1.3.1-.1.2-.4.3-.5.1-.5.2-.7.7-.7 1.2-.1 0-.2-.1-.2-.2M47.5 74.2c-.3 0-.5.3-.4.5.6.6-.5 1.5-.1 2.3-.1-.2-.3-.4-.4-.6.7-1.1-.1-2.4.1-3.6.2.4.4.9.4 1.3.1-.1.3-.2.3-.3 0 .1.1.2.2.1-.1.2-.1.3-.1.3M51.3 89c.2.7.3 1.5.5 2.2-.1 0-.3 0-.4.1 0 .1.1.2.1.2l-.3.9c-.4-.7.6-2.4-.3-3 0-.1.1-.2.1-.3-.2-.2-.4-.3-.6-.3-.3-.2-.5-.8-.1-1-.1.7.7.8 1 1.2M56.1 41.9c-2.4-.2-4.9-.5-7.3-.3 2.2-.7 5.4-.2 7.7.2-.1 0-.3 0-.4.1M68.9 73.2c.1-.1 0-.2-.1-.2-.6-.3-1.1-.7-1.6-1.1.3-.5.7.4 1 .4.8-1.6 1-3.1 1.6-4.8 0-1.2.5-2.3.7-3.4.7 1.7-1.2 4.5-.9 6.5-.2.5-.6 1-.2 1.7-.2 0-.4-.1-.5-.3 0 .4.2.8.4 1-.3.6-1.4 1-.4.2" />
    <path
        d="M49.2 85.7c0 .5-.1 1.1-.1 1.6-.8-.4.1-1.4-.4-1.7 0-.3.4-.6.6-.3 0-.4.1-.7 0-1 .2.3.3.6.5 1 .4 0 0-.7.3-.9l-.2-.2c.1-.2.3-.4.3-.7-.1-.1-.3-.1-.5-.1-.1-.1-.1-.1 0-.2.6.1 1.3.1 1.9-.1 0 .1-.1.3-.2.3-.1-.1-.3-.1-.4-.1 0 .1-.1.2-.2.3-.6-.6-.7 1-.5 1.4 0-.1.1-.1.2 0 .7-.8 1.1.7 1.2 1.2-.5.2-.8-.9-1.3-.6 0 .2 0 .5.1.7-.1 0-.2.1-.2.2-.1-.4-.4-.7-.8-.9-.2.8.3 1.6.1 2.5 0 .4-.1 1.1.4 1.2l-.2.2h.2c0 .4.1.7.3 1-.2 0-.3.1-.5.1 0-.4 0-1-.6-1-.1-.7.2-1.7-.3-2.4.8-.2.3-1 .3-1.5M41.5 48.2h.4c0 .2 0 .3-.2.4-.1-.1-.4 0-.4.2 1 0 2 .4 2.8.9-.7 0-2.4-.9-2.5.1.2 0 .3-.1.4-.3.9.1 1.7.4 2.4.9-.7-.1-1.6-.2-2 .4-.3.5-1.4-.2-1.6.4-2.3-.4-4.6-.5-6.9-.2.3-.6-.6-.4-.8-.1-.7.3-.6-.7-.1-.2 1.8-1.9 4.7-2.3 7.2-2.4-.2.2-.4.4-.6.5.6.1 1.5.1 1.9-.6M37 49c0 .1.1.2.1.1-.1.1-.1.2-.2.3-.2-.2-.3.3 0 .1-.2.3-.4.6-.7.8.7.1 1.3-1.2 2.2-1.3-.1-.2-.3-.2-.5-.1-.3.1-.6.1-.9.1m-1.1.4c-.1 0-.1.1-.1.2.3.1.6.1.9 0-.1-.2-.5-.2-.8-.2" />
    <path
        d="M50.6 94c.1-.2.2-.4.2-.7-.2 0-.3-.1-.4-.3h-.3c0 .3 0 .7-.1 1-1-.3-2.8.1-3.3-.9-.1.2-.1.4-.1.6-.3.1-.7-.2-.8-.5-.8-.3.3-1.1.1-1.6.1-.1.2-.1.4-.2-.1-.2-.1-.5.1-.6l.3.6c-.1.1-.2.1-.3 0-.1.4 0 .9.2 1.2h.5c0 .1.1.1.2 0 0 .2 0 .4-.1.5.5-.2 0-.9.3-1.3.2-.7-.6-1.6-.4-2.4.2.7 1.3 1.8.7 2.5.1.6 0 1.3.7 1.5v-.8c-.5-.3-.1-1 .1-1.4.2-.7-.1-1.5-.2-2.2.7.2.2 1.2.9 1.5 1.6 0 0 1.7.7 2.2.1 0 .1-.2 0-.3 0-.4.2-.7.5-1-.1-.4-.1-.9-.1-1.4.1.1.2.2.3.2-.2.7-.2 1.5 0 2.3.1 0 .2-.1.2-.2.5.4-.5 1.2.1 1.6-.1.4-.3.3-.4.1m-4.3-.7c.1-.2.2-.3.3-.4-.2-.1-.4-.2-.5-.3.1.2.1.5 0 .7h.2m3.5-1.9c-.2-.1-.3-.2-.5-.3 0 .2.1.3.3.4-.1.1-.1.3 0 .4h.2c-.1-.2-.1-.3 0-.5m-.6 1.5H49c-.1.2 0 .6.3.6 0-.2-.1-.4-.1-.6M51.5 72.9c1.2-1.1 2.8-3.1 4.5-3 2.2.2.9-3.3.2-4.5.5-.7.7.7 1.1.8.3 1.4.9 3.8-1.1 4.2-.1-.1-.2-.2-.1-.3-.1.1-.2.1-.3.2-.2.8.5 2.6-.7 2.8.3.4.5.8.6 1.2-.1-.2-.5-.3-.7 0 0-.7-1.2-1.5-1.4-.5.1 0 .2-.1.4-.1.7.4 1 1.4.5 2-.2-.2-.2-.5.1-.6-.2-.4-.5-.8-.8-1.2-.1 0-.3.1-.4.1.4.7 1.5 2.1.9 2.8 0-1.6-1.7-2.7-1.5-4.2-.2-.1-.5.1-.5.4-.3-.1-.6-.1-.8-.1m3.2 0c-.1-.1-.3-.1-.4-.1.1-.2 0-.5-.2-.3l.3.6c.1-.1.2-.2.3-.2M55.6 80.1c-.3-.4.2-.7.6-.7l-.6-.3c0 .2-.1.3-.1.5-.1-.1-.1-.3-.1-.4-2.4.3-4.8 1.5-7.3.9.4.3.3 1.1-.2 1.3.9-1.5-1.7-2.2-1.6-.4-.2-.4-.1-.9.2-1.2-.4.1-.9.1-1.3.2.2 0 .3-.2.3-.4-1.2.3-2.7.6-3.7-.2-.4-.3-1-.2-1.2.3-.6-1.1 1.1-1.3 1.7-.7 5 .8 10.9 1.1 15.8-1.1.5-.5 1.8-1.1 1.9 0-.6 1-2.5.4-3 1.8-.2 0-.4-.1-.6-.1-.1.6-.5 1.2-.9 1.7-.1-.2-.2-.3-.3-.5 0-.3.2-.5.4-.7M67 53c-.1-.1.1-.3.2-.2-2.4-.5-5.1-1.3-7.6-1.1-.4.1-1.1 0-1-.5-.4 0-.8.3-1 .7 0-.2.1-.4.1-.7-.6.2-1.3-.5-1.2-1.1-.3.3-.6.7-.9 1-.1-.4 0-.9.3-1.3.1.2.1.3.1.5.3-.4.7-.8 1.2-.8-.2.2-.3.4-.4.6.5-.3.9-.7 1.2-1.1.9 0 1.9 0 2.8-.1.7.6 2.1-.3 2.6.5-.1.4.4.6.8.6l-.3-.3c.7-.3 1.4-.3 2.1-.1-.1 0-.3.1-.4.2.4.2.7.6.7 1.1l.3-.3c-.2-.3-.3-.5-.5-.7.6 0 1.7.5 1.3 1.2.8.4 1 2 2.4 1.4-.5 1.2-1.9.2-2.8.5m0-1.2c-.2-.2-.8 0-.5.3.2.1.5 0 .5.1.2.4.8.7 1.2.4.2-.3-1.3-.4-1.2-.8m-1.9-.1c-.2-.1-.4-.2-.6-.1.1.2.4.3.6.3v-.2m-7.9-1.3c-.1.1-.1.3 0 .4.1-.2.2-.4.2-.5 0-.1-.1-.2-.1-.3 0 0-.1.2-.1.4m9.1.9v-.2c-.1.1-.3.2-.4.3.1 0 .2.1.2.3.2 0 .3-.2.1-.2-.1-.1 0-.2.1-.2M42.6 54.5c-.2-.3-.5-.5-.8-.6.4 2.5-4.6 2.6-4.5.3-1.2.6-2.3 2.1-3.9 1.5-.1.3-.2.6-.2.9-.5-.5.1-1.5.8-1.1 2.4-2.2 6-3 9-2-2.9-1.7-6.9 0-9.2 1.6 2.3-3 8-3.6 11.2-1.4-.2.3.3.3.4.1.1.1-.1.4-.2.3.1.1.2.2.3.2 0 .3-.1.5-.1.8H45c.1-.5-1.1-1.7-1-.7.2.4.7.8.7 1.2-.1.1 0 .5.2.4-.4.2-.9.2-1.3.1l-.5.5c-.1-.1-.1-.3-.2-.4-.4 1.2-.7.2-1.6.3.4-.8.9-1.3 1.3-2m1.1.7c.2.2.5.2.7.1-.1-.2-.4-.3-.7-.1.1-.2 0-.5-.2-.5-.2.2-.4.6 0 .7l.2-.2m-4.1.1c.2.1.6-.1.4-.4-.5.2-1.4 0-1.2-.7.1-.2.6-.5.4-.8-.8.3-.6 1.1-.5 1.7.3.1.6.1.9.2m.8-.8c-.1.2.2.5.4.3.1-.4 0-.8-.2-1.2-.1.3-.2.6-.2.9M54.7 56.7c.2.5 2 0 1.5.9-.1-.2-.3-.4-.6-.4.2.3.3.7.3 1.1.2-.1.3-.3.4-.4 0 .3-.2.7-.5.8-.4-.6-.9-1.1-1.3-1.7-.3 0-.8.1-.7.4-.1-.1-.3-.1-.4-.2.5.7.8 1.5.9 2.3-.6-.7-1.1-1.6-1.4-2.4.1.1.3.1.4.2.2-.3.3-.8.1-1.2-.1.2-.2.4-.3.7.1-.6.1-1.1.2-1.7.7-.9 1.7-1.6 2.7-2-.2.2-.4.5-.3.7 4.1-2.6 8.6.6 12.2 2-1.5 1.3-2.5-1-4-.4-.5.2-1 .4-1.5.2.4-.2.8-.5 1.2-.8-.3-.2-.5-.4-.8-.6-.2 2.6-3.1 1.3-4.7 1.3.4.4.9.6 1.4.7-.2.1-.3.2-.5.3 0-.1-.1-.3-.2-.3-.1.2-.3.3-.4.5-.2-.3-.8-.6-.9-.1-.7-.9-2.3 0-1.4-2-.6.2-.8 1.2-.3 1.6-.5-.1-1-.7-1-1.2 0 .6-.3 1.2-.1 1.7m5.4-2.8c-.7-.3-1.1.7-.7 1.2.1.3 1.4.7 1.1.1-1.1-.1-1.2-.7-.4-1.3m-2.3 1.3c0 .2.3.3.4.1 0-.4-.1-.8-.3-1.1-.2.2-.2.7-.1 1m3.3-.8c.3-.3-.3-.5-.5-.3.2.1.3.3.5.4m.4-.1c-.1-.3-.4.6 0 .6.1-.2.1-.4 0-.6m.5.1c.5.3-.2-.7-.4-.3.1.1.3.2.4.3M57.2 86.9c.3.1.5.2.7.2.4-.7-.4-2.1.6-2.4-.1.6.1 1.2.6 1.6.3-.2-.1-.5-.3-.8-.4-.6.4-1.4 0-2 .3.1.5.4.4.7 1.2-.7 1.4 1.5 2.3 1-.3-.2-.6-.5-.8-.8.5-.5 1.6 1.5 1.3-.2-.1.2-.2.3-.4.4-.3-.3-.7-.6-1.2-.7-.1-.3-.1-.6-.1-.9-3.2-1.8 1.2-1.9 2.6-.8.6.2.8-.6.7-1 .3.2.7.3 1.1.3 0-.2-.1-.4-.1-.6-.2.1-.2.2-.2.4-.7-.1.5-1.3-.2-1.8.3.2.6.3.9.4 0 .3.1.5.1.8.7-.5-.2-1.3-.8-1.3.1-.2.4-.3.6-.3 0-.3-.1-.7-.1-1 .1.1.3.1.4.2.3-.8.6-1.6.9-2.5.4.3.7.8.8 1.3.5-.5-.9-1.5-.4-2.2.1-.1.3-.1.4 0 .4-.6.8-1.4.3-1.8 1.6-.1 1.1 2.8.3 3.5-1.2 4.1-4 8-6.5 11.5-.1.1-.4.3-.5.1-.2-.7-1-1-1.5-1.5.2.5.4.9.7 1.3 2.5 1.2-2.9 3.1-2.5 4.8-1-1.2-.8.4-1.5.6-.6-.1-1.2.1-1.7.4 0 .1.1.2.1.3-.3.2-.8.1-.9-.3-.2.1-.3.3-.3.4v-.7c.6 0 1.1-.6 1-1.2.5.2 1 .3 1.5.5-.3-.4-.5-1-.3-1.5.2.5.4 1 .7 1.6.5-.9-.2-2.1.1-3-.1-.2-.2-.4-.2-.6 1.1.1-.1 1.3.7 1.8 0-.3.1-.6.1-.9.1 0 .3 0 .4-.1-.3-.7-.3-1.5 0-2.2.5.3 1 .6 1.4.9-.3-.1-.6-.3-.9-.4.1.5.6.8 1.1.7 0-1.3-1.7-1-1.8-2 .2-.1.2-.4.1-.6.2-.1.4.2.3.4m5.8-4.3v.3c.5.1.3 1.2.9 1-.1-.4-.3-.7-.6-.9v-.4H63m0 1.5c-.2 0-.4-.1-.5-.3-.1.1-.3.1-.4.2.1-.6-.4-1.1-.8-1.4v.4c-.5.2-.4-.6-.6-.7.4-.3-.4-.4-.5-.6-.2.1-.2.3-.2.5.2 0 .4.1.5.1-.1.4.3.9.7.9.6.2.8 1.1 1.5 1.3.2-.1.3-.2.3-.4m-4.7 3.3c0 .2.2.4.4.3-.1.7.1 1.1.8 1.2.2-.3-.2-.5-.4-.7-.2-.2-.2-.7-.6-.7 0-.1-.1-.2-.1-.2.1.1 0 .1-.1.1m-1.1 2.8l.3.6c.2-.1.2-.3.2-.5.1-.2.1-.5 0-.8-.2 0-.4-.2-.4-.5-.1 0-.2.1-.3.1.2.3.4.5.5.8l-.3.3m1.7-5.4c0 .2.1.4.1.6.1-.3.6 0 .8 0 .3-.4-.4-.9-.7-.8 0 0-.1.3-.2.2m-.2 2.5c.3.2.5.5.7.8.5-.5-.8-1-.5-1.5-.1-.1-.3-.1-.5-.1 0 .2.1.3.3.3-.1.2 0 .3 0 .5m2.2-.9c-.1-.2-.2-.3-.3-.5-.1.2-.1.5.1.7l.9-.3c.1-.1.1-.2.2-.3-.1-.1-.3 0-.3.1-.2 0-.4.1-.6.3M57 90.9c-.6-.7-.1.6.2.8.1-.2.1-.5-.2-.8m5.5-8.1c-.1 0-.1-.1-.2-.1-.3.2.2.6.3.9.1-.2.3.2.4.1 0-.2-.1-.3-.3-.2 0-.3-.1-.5-.2-.7M60.6 87c-.1-.3-.2-.5-.4-.7-.1.4 0 .8.4 1 .1-.1.1-.2 0-.3m5.7-8c.1-.2.1-.4 0-.6-.1.1-.2.2-.3.2l.3.6c.1.2.2 0 0-.2m-4.7 4.9c-.1-.1-.3-.2-.5-.2.1.3.5.6.7.4l-.2-.2m5.9-8.8c0 .1.1.3.2.3.1-.2.1-.4.1-.7-.2.1-.3.3-.3.4" />
</svg>