<?xml version="1.0" encoding="utf-8"?>
<!-- Generator: Adobe Adobe Illustrator 24.2.0, SVG Export Plug-In . SVG Version: 6.00 Build 0)  -->
<svg version="1.1" id="Contours" xmlns="http://www.w3.org/2000/svg" xmlns:xlink="http://www.w3.org/1999/xlink" x="0px" y="0px"
	 viewBox="0 0 100 100" style="enable-background:new 0 0 100 100;" xml:space="preserve">
<g>
	<path d="M58.9,30.3c-0.7-0.2-1.3-0.4-2-0.5c0.6,0.7,1.1,1.4,1.7,2.1c-2.4-2.2-5.3-3.9-8.4-4.9c-0.2-0.3-0.7,0.4-0.3,0.5
		c-0.9,0.1-1.1-1.7-0.2-1.8c-1.3,0.5-2.6,1-3.9,1.5c0.5-0.5,1-0.9,1.6-1.3c-1.5,0.3-7.8,2.6-5.9-0.8c-0.7,0.2-1,1.1-0.6,1.7
		c-0.5-0.2-0.9-0.5-1.4-0.7c0.4-0.2,0.6-0.7,0.6-1.2c-0.4,0.4-1,0.7-1.5,0.9c1.8-0.4-0.5,2.2-0.7-0.7c-0.6,0.4-1.5,0.5-2.2,0.2
		c-0.2,0.9-1.2,1.3-2,1.8c-2.7,1.7-3.1,5.8-5.8,7.3c0.3-0.3,0.8,0.2,0.5,0.5c-1,0.9-1.5,2.2-1.4,3.6c-0.1-0.3-0.2-0.6-0.4-0.8
		c-0.4,1.4-0.3,3,0.2,4.4c-0.3-1.1-0.2-2.3,0.4-3.3c-0.6,3.5,1.6,6.8,1.6,10.3c-0.4,4.7-2,9.3-1.2,14.1c0.1-0.7,0.2-1.5,0.2-2.2
		c0.9,3.4,1.6,6.8,2,10.3c0.5-0.2,0.9,0.7,0.4,1c0.3-0.2,0.6-0.4,0.9-0.5c0.1,0.5-0.3,1-0.8,1c0,0.4,0.4,0.8,0.8,0.7
		c-0.3,0.4-0.5,0.8-0.5,1.2c0.4-0.2,0.8-0.4,1.2-0.6c-1.1,0.4-0.8,2.1,0.1,1.2c-0.5,0.1-0.7,0.8-0.5,1.2c0-0.5,0.4-0.9,0.8-1.1
		c-0.4,0.3-0.6,1-0.4,1.5c0.4-0.6,0.9-1.3,1.3-1.9c-1,1.8,1.3,4.6-0.3,6c0.3,0.2,0.9,0.1,1.1-0.2c-0.2,0.3-0.2,0.7-0.1,1.1
		c0.1-0.6,0.4-1.1,0.9-1.3c-0.5,0.8-0.4,1.9,0.3,2.6c0.4-0.5,0.3-1.3-0.2-1.7c0.4,0.1,0.8,0.3,1.1,0.6c-0.5,0.4-0.4,1.3,0,1.7
		c0.3-0.3,0.5-0.7,0.8-1c0.7,0.8,0.9,1.9,0.5,2.9c0.7-0.5,1.3-0.9,2-1.4c-0.6,1-1.1,2.1-1.4,3.2c0.3-0.2,0.6-0.4,0.8-0.7
		c0.2,0.2,0.4,0.4,0.5,0.5c-0.3,0.4-0.7,0.9-1,1.3c-0.2-1,1.4-0.5,0.6,0.2c0.8-0.4,1.2-1.3,1.1-2.2c0.4,0.3,0.4,0.9,0.1,1.3
		c0.3-0.2,0.6-0.4,0.9-0.5c-0.4,0.8-0.9,1.4-1.6,1.9c0.5-0.3,1.1-0.6,1.6-0.8c-1.2,0.6-0.8,2.7,0.5,2.9c-0.1,0.4-0.1,0.8-0.2,1.2
		c-1.3-1.5-2.7-2.8-4.1-4.1c0.5-0.4,1-0.8,1.5-1.1c-2.3,2-3.5-3-4.4-1.9c0.2-0.5,0.5-1,0.7-1.5c-0.3,0.1-0.6,0.2-0.9,0.3
		c-0.3-0.6-0.6-1.3-0.9-1.9c0,0.3-0.2,0.5-0.4,0.7c-0.5-1.3-0.7-2.7-0.7-4.1c-0.3,0.1-0.6,0.2-0.9,0.3c0.1-3.5-11.4-36.2-4.3-32
		c-0.8-8.7-8.8-23.2,2.7-27.6c0.8-0.2,1.5-1.6,0.4-1.8c0.6-0.3,1.3-0.5,1.9-0.6c-1,0.5-1.6,1.8-1.2,3c-0.7-0.4-1.7-0.1-2.1,0.7
		c0.4-0.2,0.8-0.4,1.2-0.6c0.9,0.3,1.7,0.8,2.3,1.4c-1.1-1.7-0.6-4.2,1-5.3c-0.3,1.5-0.5,2.9-0.8,4.3c3.3-1.6-0.9-8.5,6.4-8.1
		c-1.4-2.4-2.5-0.1-1.2-0.5c-1-0.2-2.1,0.3-2.6,1.2c1.4-3.4,6.2-4.9,9.2-2.7c-0.8-1.7-3-2.4-4.6-1.5c1.9-1.6,5.2,1.2,7.4-0.6
		c-0.1,0.5-0.3,0.9-0.4,1.4c0.3,0.4,0.7,0.7,1,1.1c-0.1-0.6-0.2-1.2-0.2-1.8c0.3,0.2,0.5,0.3,0.8,0.5c0.7-1.2,2.3-1.9,3.6-1.3
		c-0.1-0.7,0.3-1.4,0.9-1.7c-0.2,0.7-0.4,1.3-0.6,2c-1.6-0.6-3.6,0.8-3.6,2.5c0.4-0.9,1.3-1.6,2.4-1.6c-0.2,0.4-0.3,0.9-0.2,1.4
		c0.5-0.4,0.7-1.2,0.3-1.8c0.3,0.1,0.7,0.1,1-0.1c-0.1,0.4-0.2,0.8-0.3,1.3c0.6-0.1,1.2-0.6,1.2-1.3c0.2,0.4,0.3,0.8,0.3,1.2
		c1.8-1.3,4.1-1.6,6.2-1c-1-0.2-2.1-0.2-3.2,0c7.3,0.3,11.4,6.7,12.3,4.6c-0.1,0.3-0.2,0.6-0.3,0.9c0.5,0.2,1,0.5,1.2,1
		c-0.7-0.4-1.5-0.7-2.2-1.1c0.7,1.7,2,3.2,3.6,4.1c-0.3-0.4-0.5-0.8-0.7-1.1c1,0.5,2.2,0.4,3.2-0.1c0.4,0.6,0.7,1.4,0.7,2.1
		c-0.2-2.5-4.3-1.9-3,0.4c-0.1-0.8,0.9-1.5,1.6-1.2c-0.3,0.1-0.7,0.2-1,0.3c-0.1,1.1,1.6,0.7,1.1-0.2c0.6,0.1,1,0.6,1,1.2
		c-0.2-0.5-0.8,0.3-0.7,0.9c0.4,0.1,0.8-0.3,0.9-0.7c5.4,8.4-0.1,17.7,0.2,26.2c0.7,0.9-0.2,2.1-0.8,3.1c-2.2,3.7,0.2,8.9-2,12.6
		c0.7-3.5,0.9-7.2,0.4-10.8c1.4-1.2,2.1-3.1,2-4.9c-0.6,1.5-1.1,3-1.7,4.6c-0.1-1.4,0.1-2.9,0.3-4.3c-0.1,2.2,1.6-5.5,1.6-6.2
		c0.4-4.4-3.1-7.7-3.9-12c-0.3,0.7-0.4,1.6-0.1,2.3c-0.6-1.1-1.2-2.2-1.7-3.4c0.1,1.3,0.3,2.5,0.6,3.8c-0.4-1-0.8-2-1.3-3
		c-0.8,0.5-2,0.2-2.4-0.7c-0.6,0.6-1.3,1.1-1.9,1.7c0-0.7,0.6-1.4,1.3-1.5c-0.5,0.1-1.1,0.3-1.6,0.4c-0.2,0.3-0.1,0.7,0.1,0.9
		c-0.7,0.2-1.4,0.4-2.1,0.7c0.6,0.1,1.3-0.2,1.8-0.6c-0.2,0.2-0.2,0.6,0.1,0.7c-1.1,0.6-2.3,0.9-3.5,1c-0.1-0.7-0.8-1.3-1.5-1.2
		C58,29.6,58.5,29.9,58.9,30.3 M45.5,15.8c0.4,0.3,0.6,0.8,0.8,1.3c0.3-0.6-0.2-1.2-0.7-1.5C45.7,15.6,45.6,15.7,45.5,15.8
		 M43.5,25.5c-0.1,0-0.2,0-0.3,0.1c0.2,0.2,0.4,0.4,0.6,0.5c0.1-0.1,0.2-0.2,0.2-0.2c0.2,0.2,0.5,0.2,0.7,0c0-0.2,0.1-0.9-0.3-0.7
		c-0.1,0.3,0,0.6,0.1,0.8c-0.2-0.2-0.5-0.2-0.7-0.1c0-0.4-0.1-0.8-0.2-1.1C43.3,25,43.3,25.3,43.5,25.5 M26.6,34.6
		c-0.1-0.3-0.2-0.7-0.4-1c-0.3,0.2-0.2,0.7,0.1,0.9c-0.1,0.2-0.3,0.3-0.4,0.4c0.2,0.6,0.3,1.3,0.4,1.9c0.1,0,0.3,0.1,0.4,0.1
		c-0.2-0.2-0.1-0.6,0.2-0.7c0-0.4,0-0.8,0-1.2c-0.3,0.3-0.4,0.8-0.2,1.2c-0.1,0-0.1,0.1-0.2,0.1C26.2,35.7,26.2,35.1,26.6,34.6
		 M35.9,15.4c0-0.5,0.1-1,0.3-1.5c0.4,0,0.2,0.6,0.3,0.8c0.4-0.1,0.4-0.7,0.7-1c0.3-0.3,0.9-0.4,0.9-0.9c-0.8-0.5-1.9,0.1-2,1.1
		c-2.3-0.7-1.2,2.4-1.8,3.5c0.1,0.1,0.2,0.1,0.2,0.2C34.6,16.8,35.7,16.2,35.9,15.4 M26.2,46.7c-0.8-0.2-1.5,0-1.3,1.1
		c0.2,1,1.3,1.4,1.8,2.2c-0.1,0.3-0.1,0.5-0.2,0.8c-0.1-0.3-0.1-0.7-0.2-1c-0.3,0-0.3,0.4-0.2,0.6c0.3,2.2-0.4,4.4,0.8,6.6
		c1-3.1,1.8-6.5,0.3-9.6c-0.2,0-0.3,0-0.4,0.1C26.5,47.3,26.3,47.1,26.2,46.7 M41.3,13.3c0.3,0,0.6,0.1,0.8,0.1
		c-0.3-1,1.2-1.9,0.5-2.7c0.1-0.1,0-0.3-0.1-0.3c0.6-0.3,0.5,1.4,0.3,1.8c3.9-2.7-4.5-4-5.7-1.3c1.3-0.2,2.4,0.2,3.4,0.8
		c1.4-0.8-1.3-1.9-2.1-1.7c0.6-0.1,1.2-0.2,1.8-0.3C40.5,10.8,43,12.4,41.3,13.3 M26.7,27.3c-0.1-0.5-0.2-1,0-1.5
		c-0.1,0.1-0.3,0.1-0.4,0.2c0.6,2.1-1.2,4.6,0.3,6.5c-0.4-1.7,0-3.5,0.3-5.2C26.8,27.3,26.8,27.3,26.7,27.3 M27.3,21.9
		c0,0.5-0.8,0.7-0.6,1.2c-0.9,1-1.3,2.7-1.7,4c1-1.3,1.1-2.8,2-4.1C27.4,22.8,27.5,22.3,27.3,21.9 M25.5,53.1
		c0.1-0.2,0.1-0.6-0.2-0.7c-0.3-1.1,0.3-2.6-0.3-3.5C25,50.3,24.5,51.9,25.5,53.1 M35.2,24.8c0.2-0.1,0.2-0.5,0-0.5
		c-0.1,0.2-0.2,0.3-0.4,0.4c0,0.1,0,0.1,0,0.2c-0.8,0.3-1.1,1.3-1.5,2c0.2-0.1,0.3-0.1,0.5-0.1c0-0.1,0.1-0.2,0.1-0.3
		c0.2,0.1,0.4-0.2,0.2-0.3c0.3,0.1,0.2-0.4,0.2-0.5C34.5,25.2,34.9,25.1,35.2,24.8 M29.1,22.8c1,0.3,1.5,1.2,2,2
		c0.4-0.9-1.1-2-1.9-2.3C29.2,22.7,29.2,22.7,29.1,22.8 M38,13.7c0.5,0.4-0.4,0.6-0.6,0.7c0,0.2,0,0.5-0.1,0.7
		c0.4,0,0.7-0.8,1.2-0.9c1-0.1-0.4-1.6-0.1-0.5c0,0.1-0.1,0.1-0.1,0.2C38.2,13.7,38,13.6,38,13.7 M61.1,27.2c1.1-0.6,2.4-2,2-3.3
		c-0.1,1.2-0.9,2.3-1.9,3C61.2,27,61.1,27.1,61.1,27.2 M67.5,17.3c0-0.3,0.1-0.6,0.3-0.8c-0.2-0.9-0.6-1.7-1.2-2.3
		c-0.2,0.6,0.5,1,0.8,1.4C67.5,16.1,67.5,16.8,67.5,17.3 M38.1,85.1c-0.1,0.7-0.9,1.2-0.7,2.1C37.6,86.7,39.1,85.3,38.1,85.1
		 M38.6,12.4c-0.2,0.3,0.4,0.4,0.6,0.5c0.3,0,0.2-0.7,0.5-0.8c-0.1-0.2-0.2-0.4-0.4-0.6c-0.2,0.3-0.3,0.7-0.2,1
		C39,12.5,38.8,12.4,38.6,12.4 M68,25.5c-0.1,0-0.3-0.1-0.4-0.1c0,0.4-0.1,0.8-0.3,1.1c0.3,0,0.3,0.8,0.6,0.5
		c-0.4-0.3,0-0.9,0.2-1.2C68.1,25.7,68,25.6,68,25.5 M69.3,18.2c0.2,0.1,0.4,0.1,0.5,0c-0.3-0.5-0.7-0.9-1.2-1.1
		C68.7,17.5,68.9,18,69.3,18.2 M24.6,24.7c0.4-0.5,1.5-1.4,1.1-2C25.2,23.3,24.8,24,24.6,24.7 M37.1,83.8c-0.3,0-0.3,0.4-0.5,0.6
		c-0.2,0.1-0.6,0-0.7,0.2C36.4,85.4,37.2,84.6,37.1,83.8 M74.8,22.9c0.1,0.7-1.1,1.3-0.2,1.9c0-0.3,0-0.7,0.1-1
		c0.1,0,0.2,0.1,0.3,0.1C75.1,23.6,75,23.2,74.8,22.9 M74,34.8c-0.5,0.4,0.1,1.6,0.7,1.5C74.4,35.8,74.2,35.3,74,34.8 M49.5,20.2
		c0.3-0.6,0.5-1.5,0.1-2C49.2,18.6,49.6,19.6,49.5,20.2 M57.3,11.1c-0.1,0.1-0.1,0.2-0.2,0.3c-0.1-0.1,0.2-0.6-0.1-0.6
		c-0.6,0.6,0.7,1,1.1,1.3C58,11.7,57.7,11.3,57.3,11.1 M25.7,33.4c0.1-0.1,0.2-0.1,0.3-0.2c-0.4-0.3,0.1-1-0.4-1.3
		c0.1,0.9-0.3,1.8-0.3,2.8C25.6,34.4,25.7,33.9,25.7,33.4 M45.6,11c0.2-0.5,0.5-1.3,0.3-1.8C45.4,9.7,45.3,10.4,45.6,11 M71.8,28.2
		c0.2-0.8-0.6-1.6-0.9-2.3C70.8,26.7,71.7,27.4,71.8,28.2 M67.2,25.3c-0.3,0.3-1.4,1.3-0.4,1.4C66.5,26.3,67.4,25.7,67.2,25.3
		 M69.8,19.6c-0.1,0.2-0.1,0.5,0.1,0.7c1-0.9-0.6-3,0.2-0.8C70,19.6,69.9,19.6,69.8,19.6 M74.6,29.1c0.2-0.4-0.9-0.6-0.5-1
		c-0.1,0-0.2-0.1-0.2-0.3c-0.1,0.1-0.3,0.1-0.2,0c-0.3,0.3,0.5,1,0.8,1.3C74.5,29,74.6,29,74.6,29.1 M45,9.5c0-0.2-0.1-0.5-0.3-0.4
		c-0.1,0.4-0.2,0.8-0.1,1.2c0.1,0,0.2,0,0.3,0C44.9,10.1,45,9.8,45,9.5 M72.6,22c0.3-0.2,0.9-0.2,1.1,0.2c0.1-0.1,0.3,0,0.2,0.1
		c0.2-0.9-1.3-0.6-1.8-0.5C72.3,21.9,72.4,22,72.6,22 M34.4,22.2c0-0.7,0.7-1.4,0.6-2.1C34.7,20.7,34,21.5,34.4,22.2 M53.9,27.7
		c0.1-0.1,0.2-0.2,0.3-0.2c-0.5-0.5-1.3-0.2-1.9-0.4c0,0.6,1.1,0,1.3,0.5C53.6,27.4,53.8,27.5,53.9,27.7 M25.4,27.6
		c0,0.1,0,0.2,0,0.3c0.4-0.4,0.6-1.1,0.4-1.7C25.7,26.7,25.6,27.2,25.4,27.6 M36,18.5c-0.5,0.2-0.7,0.8-0.4,1.3
		c0.1-0.3,0.3-0.6,0.5-0.9C36.1,18.8,36.1,18.7,36,18.5 M68.3,23.6c0.1,0.7,0.5,1.3,1,1.8c0-0.7-1-1.2-0.7-1.9
		C68.5,23.6,68.4,23.6,68.3,23.6 M28.5,49c0.1-0.3,0-0.6-0.1-0.8c-0.1,0.1-0.2,0.2-0.3,0.2c0.1,0.4,0.1,0.9,0.2,1.3
		C28.5,49.5,28.5,49.3,28.5,49 M40.9,24.6c-0.2,0.2-0.3,0.5-0.3,0.8c0.1,0,0.2,0,0.3,0c-0.1-0.3,0.2-0.6,0.5-0.7
		c-0.1-0.1-0.2-0.3-0.3-0.4C40.9,23.9,40.9,24.4,40.9,24.6 M73.9,33.2c-0.1-0.1-0.3-0.2-0.5-0.1c0,0.1,0.1,0.1,0.2,0.1
		c0,0.5,0,1,0.3,1.4c0-0.1,0.1-0.2,0.2-0.2c0-0.4-0.2-0.7-0.4-1C73.7,33.3,73.8,33.2,73.9,33.2 M67,27.1c-0.3,0-0.6,0.1-0.9,0.1
		c-0.1,0.1-0.1,0.2,0,0.3c0.3,0.1,0.6,0.1,0.8,0.2C67,27.5,67.1,27.3,67,27.1 M24.1,27.7c0.1,0.5,0.1,1.2,0.4,1.6
		c0.2-0.3,0.1-0.7-0.2-0.9C24.5,28.2,24.4,27.8,24.1,27.7 M60.5,10.3c-0.1-0.1-0.3-0.2-0.4-0.2c-0.4,0.2-0.7,0.3-1.1,0.5
		C59.5,10.4,60.4,10.6,60.5,10.3 M28.7,26.6c-0.4,0.2-0.6,0.8-0.3,1.2C28.7,27.4,28.9,27,28.7,26.6 M34.7,19.8
		c0.1,0.1,0.2,0.1,0.3,0.2c0.1-0.4,0.2-0.9,0.1-1.4c-0.1,0.1-0.2,0.3-0.4,0.4C34.9,19.2,34.8,19.5,34.7,19.8 M56.7,10
		c0.1-0.2,0.2-0.4,0.4-0.5c-0.3,0.1-0.7,0.1-1-0.1c-0.1,0.2,0.1,0.5,0.3,0.4c-0.1,0.1-0.2,0.1-0.2,0.2C56.4,10,56.6,10,56.7,10
		 M30.5,21.9c-0.2,0-0.4,0.1-0.5,0.1c0.1,0.2,0.2,0.3,0.2,0.5c0.3-0.2,0.6-0.4,1-0.5C30.9,21.9,30.7,21.9,30.5,21.9 M27.9,22.8
		c-0.6,0.3-0.8,0.9-0.8,1.5C27.5,24,27.5,23.2,27.9,22.8 M68.2,22.9c-0.1-0.4,0.2-1.1-0.2-1.2c-0.1,0.4-0.1,0.9,0,1.4
		C68.1,23,68.2,22.9,68.2,22.9 M74.2,32.1c0,0.2,0.1,0.5,0.3,0.6c0.1-0.5,0-1-0.2-1.4C74.1,31.6,74.1,31.9,74.2,32.1 M71.1,22.5
		c0.1,0.1,0.2,0.1,0.4,0.1c-0.2-0.4-0.5-0.7-1-0.7C70.5,22.1,70.8,22.4,71.1,22.5 M72.1,25.4c0.1,0,0.2,0.1,0.2,0
		c-0.4-0.3-0.8-0.6-1.2-0.8C71.3,25,71.7,25.3,72.1,25.4 M47.3,15.4c-0.3,0.4-0.4,0.9-0.4,1.4C47.4,16.7,47.2,15.7,47.3,15.4
		 M52.5,19.4c0.1-0.4,0.5-0.9,0.3-1.2c-0.3,0.3-0.5,0.7-0.5,1.1C52.5,19.4,52.5,19.4,52.5,19.4 M62.6,26.8c-0.3,0.3-1,0.7-0.9,1.2
		C62.1,27.6,62.4,27.2,62.6,26.8 M40.9,12.4c0,0.1,0.1,0.3,0.2,0.3c0.2-0.2,0.2-0.6,0.1-0.8C41,11.8,40.9,12.2,40.9,12.4 M73.8,24.9
		c0,0.3,0.1,0.5,0.3,0.7c-0.2,0-0.3,0.3-0.1,0.4c0.1,0,0.2-0.2,0.1-0.3c0.2-0.1,0.3-0.3,0.3-0.4c-0.2,0.3-0.1-0.4-0.3-0.2
		c-0.1,0,0-0.2,0.1-0.2C74.1,24.9,73.9,24.8,73.8,24.9 M61.7,28.4c0.1-0.1,0.1-0.2,0.2-0.3c-0.1,0-0.3-0.1-0.4-0.1
		c-0.2,0.1-0.3,0.3-0.5,0.4C61.2,28.7,61.5,28.7,61.7,28.4 M72,26.1c0.1,0.4,0.5,0.8,0.9,0.9C72.8,26.5,72.4,26.2,72,26.1
		 M25.8,22.5c0.3-0.2,0.6-0.5,0.8-0.8C26.1,21.3,25.9,22.2,25.8,22.5 M51.2,25.7c0.5-0.2-1.1-0.6-0.8,0.2
		C50.6,25.7,50.9,25.7,51.2,25.7 M33.6,20.5c-0.1,0-0.1,0.1-0.2,0.1c0,0.2,0,0.3,0,0.5c0.3-0.2,0.6-0.4,0.7-0.7
		C34,20.4,33.8,20.4,33.6,20.5 M43.3,23.4c0.1-0.1,0.1-0.2,0-0.2c-0.3,0.3-0.6,0.6-0.8,1C42.8,24,43.1,23.7,43.3,23.4 M29,23.6
		c0.3-0.2-0.2-0.6-0.4-0.7c0,0.3,0.1,0.6,0.2,0.9c0.1,0,0.2,0,0.3,0C29.1,23.7,29.1,23.7,29,23.6 M66.4,16.1
		c0.1-0.2,0.3-0.5,0.5-0.6C66.6,15.3,65.7,16,66.4,16.1 M59.6,29.1C59.7,29,59.9,29,60,29c0.1-0.1,0.1-0.2,0-0.3
		c-0.3,0.1-0.6,0.2-0.9,0.2c0.2,0.1,0.3,0.3,0.4,0.6C59.6,29.4,59.7,29.2,59.6,29.1 M60.8,13.4c0.1-0.4-0.2-1.2-0.6-1.2
		C60.4,12.6,60.6,13,60.8,13.4 M31.8,23.1c0-0.1,0-0.3-0.1-0.4c-0.1,0.3-0.6,1-0.2,1.1C31.6,23.5,31.7,23.3,31.8,23.1 M25.1,24.8
		c-0.1,0.2-0.2,0.5-0.2,0.7c0.4,0.2,0.5-0.7,0.5-1C25.3,24.6,25.2,24.7,25.1,24.8 M31.4,26.1c0,0.3,0,0.5,0,0.8
		c0.1,0,0.1-0.1,0.2-0.1c0.1-0.4,0-0.7-0.1-1.1C31.4,25.8,31.4,26,31.4,26.1 M61.1,20.2c0-0.3,0.2-1-0.1-1.1
		C60.7,19.5,60.8,20,61.1,20.2 M54.5,28c-0.3-0.2-0.6,0.1-0.4,0.4c0.1-0.1,0.2-0.1,0.4-0.2c0,0.2,0.3,0.4,0.5,0.3
		c-0.1,0-0.2,0-0.3-0.1C54.7,28.3,54.7,28.1,54.5,28 M60.9,27.3c-0.3,0-0.4,0.4-0.3,0.7C60.9,28,61.2,27.5,60.9,27.3 M74.3,33.7
		c0.1,0.1,0.2,0.1,0.3,0.2c-0.1-0.3-0.1-0.7-0.2-1c-0.1,0.1-0.3,0.2-0.3,0.4C74.2,33.4,74.3,33.6,74.3,33.7 M27.3,30.4
		c0.2-0.3,0.1-0.6-0.1-0.9C27.1,29.7,27,30.6,27.3,30.4 M35.5,84.2c0.3-0.2,0.6-0.3,0.9-0.3c-0.3-0.1-0.5-0.1-0.8-0.2
		c0,0.1-0.2,0.1-0.2,0.1c0,0.1-0.1,0.1-0.1,0.2C35.4,84,35.5,84.1,35.5,84.2 M37.6,19.6c0.2-0.1,0.4-0.3,0.5-0.5
		c-0.4,0.2-0.8,0.5-1.1,0.7C37.2,19.8,37.4,19.8,37.6,19.6 M69.3,27.6c-0.1,0.3,0,0.7,0.1,1c0.1-0.3,0.1-0.5,0.2-0.8
		C69.5,27.8,69.4,27.7,69.3,27.6 M28.4,31.9c0.3-0.1,0.7-0.7,0.5-0.9C28.6,31.2,28.5,31.5,28.4,31.9 M27.7,20.6
		c-0.3,0-0.9,0.6-0.5,0.8C27.4,21.2,27.6,20.9,27.7,20.6 M60.9,20.6c-0.3,0.3-0.3,0.8,0.1,1C60.9,21.3,60.9,20.9,60.9,20.6 M66.5,19
		c0.1,0.1,0.2,0.1,0.3,0.1c0-0.3-0.1-0.6-0.1-0.8C66.4,18.3,66.4,18.7,66.5,19 M69.2,27.1c0.2,0.1,0.4,0.2,0.6,0.3
		c-0.1-0.4-0.3-0.7-0.7-0.8C69.1,26.8,69.2,27,69.2,27.1 M42.4,25.5c0.2-0.1,0.3-0.5,0.1-0.6c-0.1,0.2-0.6,0.8-0.1,0.9
		C42.4,25.6,42.4,25.6,42.4,25.5 M72.2,23.2c-0.2-0.2-0.3-0.4-0.3-0.6c-0.1,0.1-0.2,0.2-0.4,0.2c0.3,0.1,0.5,0.9,0.8,0.7
		C72.2,23.4,72.2,23.3,72.2,23.2 M26,37.9c0.2-0.3,0.3-0.7,0.3-1.1C26,37.1,25.9,37.6,26,37.9 M34.1,19.9c0.1-0.2,0.3-0.4,0.3-0.7
		c-0.2,0.3-0.4,0.5-0.7,0.8C33.8,20.1,34,20,34.1,19.9 M32.5,21.7c0,0.2,0,0.4-0.1,0.5c0.5,0.1,0.4-0.6,0.2-0.8
		C32.6,21.5,32.5,21.6,32.5,21.7 M26.8,33.2c-0.6-0.4,0.1,0.3-0.1,0.6c0.1,0,0.1,0.1,0.2,0.1C27,33.7,26.9,33.4,26.8,33.2
		 M34.4,18.4c0.1,0.1,0,0.3-0.2,0.3c0.5,0.2,0.7-0.6,0.2-0.7C34.4,18.1,34.4,18.2,34.4,18.4 M25,31.8c0,0.1-0.2,0.1-0.2,0
		c-0.1,0.4-0.1,0.8,0,1.1C24.9,32.6,25,32.2,25,31.8 M63.7,20.6c0-0.1-0.1-0.3-0.3-0.3c0,0.3,0.1,0.7,0.1,1c0.1-0.1,0.1-0.1,0.2-0.2
		C63.7,21,63.7,20.8,63.7,20.6 M37.4,18.3c0-0.1,0-0.3-0.2-0.3c0,0.4,0,0.8,0,1.2C37.3,18.9,37.4,18.6,37.4,18.3 M52.5,18
		c0.1,0,0.2-0.2,0.2-0.3c-0.3,0.2-0.6,0.4-0.8,0.6C52.1,18.5,52.4,18.3,52.5,18 M52.1,10.4c-0.2,0.1-0.3,0.3-0.3,0.5
		c0.3,0,0.6-0.3,0.6-0.6C52.3,10.3,52.2,10.3,52.1,10.4 M54,14.9c-0.2,0.2-0.2,0.5-0.1,0.8c0.3-0.2,0.3-0.5,0.2-0.8 M56,28.4
		c0.3,0.2,0.9,0.7,1.2,0.3C56.8,28.6,56.4,28.5,56,28.4 M74.9,29.8c0,0.1,0.2,0.1,0.2,0c-0.2-0.1-0.3-0.4-0.1-0.5
		c-0.1,0-0.2-0.1-0.3-0.1C74.6,29.4,74.6,29.7,74.9,29.8 M63.1,25.9c-0.2,0.1-0.3,0.3-0.3,0.5c0.3-0.2,0.6-0.5,0.6-0.9
		C63.3,25.7,63.2,25.8,63.1,25.9 M28.9,22.4c0,0.1,0.1,0.2,0.2,0.3c0-0.3,0.1-0.7,0.1-1C29,21.8,28.9,22.1,28.9,22.4 M38.1,18.3
		c-0.1,0,0,0.2,0.1,0.2c0.1-0.1,0.2-0.1,0.3,0c0.2-0.1,0.3-0.3,0.3-0.5C38.5,18.1,38.3,18.2,38.1,18.3 M73.2,30.4
		c-0.1-0.3-0.2-0.7-0.5-1C72.7,29.8,72.8,30.2,73.2,30.4 M30.5,25c-0.1,0.1-0.2,0.2-0.2,0.4c0.3,0.1,0.5-0.2,0.7-0.5
		C30.8,24.9,30.7,24.9,30.5,25 M44.7,22.5c0.2,0.1,0.4,0.2,0.6,0.4c0.1-0.1,0.2-0.2,0.3-0.3C45.3,22.5,45,22.5,44.7,22.5 M56,20.4
		c-0.3,0.2-0.7,0.4-1,0.6C55.4,21.1,55.9,20.8,56,20.4 M72.8,34.5c0,0.3,0.2,0.5,0.4,0.7c0.1-0.3,0-0.6-0.2-0.8
		C72.9,34.4,72.8,34.5,72.8,34.5 M75.1,33.2c0.1-0.1,0-0.3-0.1-0.3c-0.2,0.2-0.2,0.5,0,0.8C75.2,33.6,75.2,33.4,75.1,33.2
		 M37.9,17.1c-0.1,0.2-0.2,0.4-0.3,0.5c0.3-0.1,0.6-0.3,0.5-0.6C38.1,17.1,38,17.1,37.9,17.1 M29.3,25.7c0.2,0.2,0.5,0.2,0.8,0.1
		c-0.4-0.1-0.7-0.2-1.1-0.3C29,25.6,29.2,25.8,29.3,25.7 M36.2,17.1c-0.1-0.2-0.1-0.4-0.2-0.6c-0.4-0.1-0.1,0.5-0.2,0.6
		C36,17,36.1,17,36.2,17.1 M45,13c0-0.2,0.1-0.5,0.1-0.7c-0.2,0-0.3,0.3-0.2,0.4c-0.1,0.1-0.2,0.2-0.2,0.3
		C44.7,13.1,44.9,13.1,45,13 M73.6,26.1C73.5,26,73.4,26,73.3,26c0.2,0.2,0.4,0.5,0.4,0.7C73.9,26.6,73.9,26.2,73.6,26.1 M52.7,24.1
		c0.1,0,0.3,0,0.4,0.1c0-0.1,0.1-0.1,0-0.2c-0.3-0.1-0.6-0.1-0.9,0.1C52.5,24,52.6,24.1,52.7,24.1 M66.1,13.9
		c-0.1-0.1-0.2-0.2-0.3-0.2c-0.1,0-0.1,0.1-0.2,0.1c0.2,0.1,0.4,0.3,0.4,0.5C66.2,14.3,66.2,14,66.1,13.9 M55.9,27.4
		c-0.1-0.1-0.3-0.3-0.4-0.3c0.1,0.2,0.1,0.4,0.1,0.5C55.7,27.8,55.9,27.6,55.9,27.4 M44.1,18.3c0,0.1,0.1,0.2,0.1,0.2
		c0.2-0.3,0.1-0.7-0.2-0.9C43.9,17.8,44,18,44.1,18.3 M25.6,31c0-0.1,0-0.3-0.1-0.4c-0.2,0.2-0.3,0.7,0,0.8
		C25.6,31.3,25.6,31.1,25.6,31 M27.9,30.4c-0.3,0.3,0.7,0.1,0.7-0.3C28.4,30.2,28.1,30.3,27.9,30.4 M66.2,25.1c0,0.1,0,0.2-0.1,0.2
		c0.3,0.2,0.4-0.3,0.4-0.5c-0.1,0-0.2-0.1-0.2,0C66.3,24.9,66.2,25,66.2,25.1 M24.3,27.2c0.1-0.3,0.2-0.6,0.1-0.9
		C24.1,26.5,24.1,26.9,24.3,27.2 M28.2,46.5c0-0.2,0-0.4-0.1-0.5C28,46.3,28,46.6,28,46.9C28.2,46.9,28.3,46.6,28.2,46.5 M65.7,26.5
		c-0.3,0.1,0,0.5,0.2,0.5c0.1-0.1,0.1-0.3,0-0.5C65.9,26.6,65.8,26.6,65.7,26.5 M42.5,22.4c0.2,0,0.3-0.2,0.3-0.3
		c-0.3,0.1-0.6,0.4-0.6,0.7C42.5,22.7,42.6,22.6,42.5,22.4 M72.1,31c0.1,0.1,0.2,0.3,0.2,0.5c0.1-0.3,0.1-0.8-0.2-1
		C72.2,30.7,72.2,30.8,72.1,31 M33.1,79.2C33,79.1,33,79,32.9,78.9c-0.2,0.3-0.1,0.6,0,0.9C33.1,79.6,33.1,79.4,33.1,79.2
		 M74.4,26.8c0.1,0.1,0.2,0,0.3-0.1c-0.1,0-0.2,0-0.2,0c0-0.2,0-0.4-0.2-0.4c0,0.2-0.1,0.4-0.1,0.6C74.3,26.9,74.4,26.9,74.4,26.8
		 M30.8,23.2c0-0.2,0.1-0.4,0.2-0.6C30.7,22.5,30.5,23,30.8,23.2 M55.1,15.7c0,0.1,0,0.2,0,0.3c0.2-0.2,0.3-0.6,0.2-0.9
		C55.2,15.3,55.1,15.5,55.1,15.7 M73.4,32c0.1,0.2,0.2,0.4,0.3,0.6c0.1-0.3,0-0.6-0.2-0.8C73.4,31.7,73.3,31.9,73.4,32 M51.7,25.6
		c0-0.1,0.2-0.1,0.2,0c0.1-0.1,0.1-0.1,0.1-0.2c-0.2-0.1-0.4-0.1-0.6,0C51.5,25.4,51.5,25.5,51.7,25.6 M31.3,25c0,0.2,0,0.3,0,0.5
		c0.1,0,0.1,0.1,0.2,0.1C31.6,25.4,31.5,25.1,31.3,25 M32.4,77.6c-0.1,0-0.2,0-0.2,0c0,0.2,0,0.3,0,0.4
		C32.5,78.2,32.7,77.8,32.4,77.6 M31.9,76.9c0,0.2,0.2,0.5,0.4,0.6C32.4,77.2,32.1,76.9,31.9,76.9 M29.8,21.4
		c-0.1-0.1-0.2,0.1-0.1,0.2c0.3,0,0.5,0.1,0.7,0.1C30.4,21.4,30.1,21.3,29.8,21.4 M73.3,31.5c-0.1,0.1,0,0.3,0.1,0.2
		c0-0.3-0.1-0.6-0.1-0.8c-0.1,0.1-0.2,0.3-0.2,0.5C73.2,31.3,73.3,31.4,73.3,31.5 M26.9,42.2c-0.1,0.2,0,0.5,0.1,0.6
		C27.2,42.7,27.1,42.3,26.9,42.2 M68,18.1c0,0.2,0.2,0.5,0.4,0.3c-0.2-0.2-0.3-0.4-0.3-0.6C68,17.9,68,18,68,18.1 M66.7,20.2
		c0.2-0.2,0.2-0.5,0-0.7C66.6,19.7,66.6,20,66.7,20.2 M51.5,13.2c0-0.1-0.1-0.2-0.1-0.3c-0.1,0-0.3,0-0.4,0c0.2,0.2,0.4,0.3,0.5,0.5
		C51.5,13.4,51.5,13.3,51.5,13.2 M39.8,23.6c-0.1,0-0.2,0.1-0.3,0.1c0.2,0.2,0.5,0.2,0.7,0.1c0-0.1-0.1-0.1-0.1-0.2
		C40,23.6,39.9,23.6,39.8,23.6 M40,90c-0.1-0.1-0.1-0.2,0-0.3c-0.1-0.1-0.1-0.1-0.2-0.1c0,0.2-0.1,0.4,0,0.6
		C39.8,90.1,39.9,90.1,40,90 M40.3,15.3c0,0.1,0.1,0.3,0.3,0.3C40.7,15.2,40.2,14.9,40.3,15.3 M71.6,24.5c0.1,0.1,0.2,0.2,0.3,0.3
		c-0.1-0.3-0.2-0.6-0.5-0.8C71.5,24.2,71.5,24.4,71.6,24.5 M36.4,19.7c0.1-0.1,0-0.2-0.1-0.2c-0.1,0.2-0.2,0.4-0.3,0.6
		C36.3,20.1,36.5,19.9,36.4,19.7 M37.7,22.3c-0.1,0.2-0.1,0.4,0.1,0.5c0.1-0.2,0.1-0.4,0.2-0.6C37.9,22.2,37.8,22.2,37.7,22.3
		 M29.8,30c-0.2,0.3-0.2,0.6-0.1,0.9C29.8,30.6,29.8,30.3,29.8,30 M30.9,27.6c-0.2,0-0.3,0.3-0.1,0.4c0.2-0.2,0.2-0.4,0.2-0.6
		C31,27.4,30.9,27.5,30.9,27.6 M32.9,21.1c0.1,0.3,0.2-0.1,0.2-0.3C32.9,20.5,32.6,20.9,32.9,21.1 M37,86.3
		c-0.1,0.1-0.1,0.3-0.1,0.4c0.3,0.1,0.3-0.4,0.2-0.6C37,86.1,36.9,86.2,37,86.3 M43.9,20.7c0.2-0.2,0.2-0.5,0.2-0.7
		c-0.1,0.3-0.2,0.5-0.3,0.8C43.8,20.8,43.9,20.8,43.9,20.7 M35,25.8c0.1-0.3-0.4-0.2-0.4,0.1C34.7,26,34.9,26,35,25.8"/>
	<path d="M61.3,77.2c0.1,0.2,0.2,0.4,0.1,0.6c-0.1,0-0.1-0.1-0.2-0.1C61.1,77.5,61.1,77.3,61.3,77.2"/>
	<path d="M65.5,12c0-0.1-0.1-0.2-0.1-0.3c0.2,0,0.4,0,0.6,0.2C65.9,12,65.7,12,65.5,12"/>
	<path d="M61.7,60.4c-0.1-0.1-0.2-0.3-0.1-0.5C62,59.7,62.2,60.5,61.7,60.4"/>
	<path d="M41.7,87.7c-0.3,0.1,0-0.5,0.2-0.5c0,0.1,0,0.3,0,0.4C41.9,87.7,41.8,87.7,41.7,87.7"/>
	<path d="M51.1,27.7c0.3,0.3-0.3,0.4-0.4,0.2c-0.1-0.3,0.3-0.2,0.4-0.1"/>
	<path d="M47,91c-0.3-0.1-0.3-0.5-0.1-0.6C47,90.5,47,90.7,47,91"/>
	<path d="M53,80.4c0.1,0.1,0.1,0.3-0.1,0.3c-0.1-0.2-0.1-0.3-0.2-0.5c0.1,0,0.1-0.1,0.2-0.1C53,80.2,53,80.3,53,80.4"/>
	<path d="M46.2,7.3c0.1-0.1,0.2-0.1,0.4-0.2c0,0.3-0.2,0.5-0.5,0.4C46.1,7.4,46.1,7.3,46.2,7.3"/>
	<path d="M53.2,87.9c0.2,0,0.3,0.2,0.4,0.3c-0.2,0-0.4-0.1-0.5-0.1C53,88.1,53.1,88,53.2,87.9"/>
	<path d="M55.7,7.4c0.2,0.1,0.2,0.4-0.1,0.4C55.6,7.7,55.4,7.3,55.7,7.4"/>
	<path d="M42.9,90.2c-0.2-0.2,0-0.5,0.2-0.6c0.1,0.1,0.2,0.3,0.1,0.5C43.1,90,43,90.1,42.9,90.2"/>
	<path d="M62.2,74.7c0.2,0,0.4,0.2,0.4,0.4c-0.1,0.1-0.3,0.1-0.4-0.1C62.2,74.9,62.2,74.8,62.2,74.7"/>
	<path d="M62.7,74.3c-0.3,0.1-0.6-0.2-0.5-0.4C62.4,73.9,62.6,74,62.7,74.3"/>
	<path d="M49.4,90.1c0,0.1,0,0.2,0,0.3c-0.2-0.1-0.3-0.3-0.3-0.5C49.3,89.8,49.7,90,49.4,90.1"/>
	<path d="M57,57.1c0.1-0.1,0.1-0.1,0.2-0.1c0.1,0,0.1,0.1,0.1,0.2c-0.1,0.1-0.3,0.3-0.4,0.4C57,57.4,57,57.3,57,57.1"/>
	<path d="M31.9,51.2c0.1,0,0.3-0.1,0.4-0.1c-0.1,0.2-0.3,0.3-0.5,0.4c-0.1,0-0.1-0.1-0.1-0.2C31.8,51.3,31.9,51.3,31.9,51.2"/>
	<path d="M38.1,82.6c-0.2,0.1-0.4,0.2-0.7,0.1c0-0.1,0.1-0.2,0.1-0.2C37.7,82.5,37.9,82.5,38.1,82.6"/>
	<path d="M40.3,77.4c0.1,0.2,0,0.5-0.2,0.5c0-0.2,0.1-0.5,0.2-0.6"/>
	<path d="M36,48.7c0.5-0.1-0.1,0.3-0.4,0.2c0.1,0,0.2-0.1,0.2-0.2C35.9,48.7,36,48.7,36,48.7"/>
	<path d="M64.8,77.2c-0.1,0.1-0.1,0.2-0.2,0.4c-0.2-0.2-0.2-0.4-0.1-0.6c0,0.1,0.1,0.2,0.1,0.3"/>
	<path d="M47.2,85.1c0.1,0,0.2-0.1,0.2-0.1c0.1,0.2,0.2,0.5,0.1,0.7C47.3,85.6,47.1,85.3,47.2,85.1"/>
	<path d="M36.7,81.6c0-0.2,0.1-0.4,0.2-0.5c0.1,0.2,0.1,0.4,0.1,0.6c-0.1,0-0.2,0.1-0.2,0.1C36.8,81.8,36.8,81.7,36.7,81.6"/>
	<path d="M61.2,72c0.2,0.1,0.2,0.4,0,0.6C61.1,72.4,61,72.2,61,72C61.1,72,61.2,72,61.2,72"/>
	<path d="M43.2,88.9c0,0.2,0,0.3-0.1,0.5c-0.2-0.2-0.3-0.4-0.2-0.6C43,88.7,43.2,88.8,43.2,88.9"/>
	<path d="M47.2,87c0.2,0.2,0.3,0.5,0.2,0.8C47,87.7,47.1,87.3,47.2,87"/>
	<path d="M39.9,79.1c0.1,0.2,0,0.4-0.1,0.6c-0.1-0.3-0.2-0.6,0-0.9C39.9,78.9,40,79,39.9,79.1"/>
	<path d="M51.7,84.6c-0.3,0-0.5-0.4-0.3-0.6c0.1,0.1,0.2,0.3,0.1,0.4C51.6,84.4,51.7,84.5,51.7,84.6"/>
	<path d="M46.1,88.5c-0.1-0.2,0.1-0.4,0.3-0.5c0,0.3-0.1,0.5-0.2,0.7C46.1,88.7,46.1,88.6,46.1,88.5"/>
	<path d="M55.1,88.9c-0.1,0-0.2,0.3,0,0.3c-0.1,0-0.2,0.1-0.2,0.1c-0.1-0.2-0.1-0.4,0-0.6C54.9,88.7,55.1,88.7,55.1,88.9"/>
	<path d="M48.3,82.6c0.1-0.2,0.5-0.1,0.4,0.2c-0.1-0.1-0.2,0-0.3,0.1C48.3,82.8,48,82.5,48.3,82.6"/>
	<path d="M71.6,34c-0.1-0.1-0.1-0.2,0-0.4c0.1,0,0.1,0,0.2,0c0.2,0.1,0.2,0.3,0.1,0.5C71.9,34,71.7,33.8,71.6,34"/>
	<path d="M41.6,8.9c-0.1,0-0.1,0-0.2,0c0.1-0.3,0.7-0.4,0.7,0C41.9,8.8,41.7,8.8,41.6,8.9"/>
	<path d="M56.5,6.7c-0.1,0.2-0.1,0.3-0.2,0.5c-0.2-0.1-0.3-0.3-0.3-0.6C56.2,6.6,56.7,6.5,56.5,6.7"/>
	<path d="M34.4,80.1c0,0.1-0.1,0.2-0.2,0.1c0.1-0.1,0.1-0.3,0-0.4c0.1-0.1,0.2-0.2,0.4-0.2C34.7,79.7,34.6,80,34.4,80.1"/>
	<path d="M52.7,83.7c0,0,0.1-0.1,0.1-0.1c0.2,0.3,0.2,0.6,0,0.9C52.8,84.3,52.8,84,52.7,83.7"/>
	<path d="M63,75c-0.1-0.1-0.1-0.3-0.1-0.4c0.1,0,0.2,0,0.2,0c0,0.1,0.1,0.3,0.2,0.4c0,0.1-0.1,0.1-0.1,0.2
		C63.1,75.2,62.9,75.1,63,75"/>
	<path d="M41.1,86.4c0.1-0.2,0.2-0.4,0.4-0.4c-0.1,0.2-0.2,0.5-0.3,0.7C41.1,86.7,41.1,86.6,41.1,86.4"/>
	<path d="M33.6,14.6c0.1-0.2,0.2-0.5,0.4-0.6C34,14.2,33.9,14.6,33.6,14.6"/>
	<path d="M30.9,51.6c0,0.2,0,0.3-0.1,0.5c-0.1-0.1-0.1-0.2-0.2-0.3c0.1-0.2,0.2-0.3,0.3-0.5C30.9,51.4,30.9,51.5,30.9,51.6"/>
	<path d="M62.6,59.3c-0.1-0.1-0.1-0.1-0.2-0.2c0.3,0,0.5,0,0.8,0c0,0.1-0.1,0.1-0.1,0.2C62.9,59.3,62.7,59.3,62.6,59.3"/>
	<path d="M36.1,81.1c0-0.2,0.2-0.4,0.4-0.6c-0.1,0.3-0.2,0.5-0.3,0.8C36.2,81.3,36.1,81.2,36.1,81.1"/>
	<path d="M42.2,87.8c0.2-0.2,0.5-0.1,0.6,0.1c-0.1,0.1-0.3,0-0.4-0.1c0,0.1-0.1,0.2-0.3,0.3C42.2,88,42.2,87.9,42.2,87.8"/>
	<path d="M36.3,27.5c-0.1,0.2-0.5,0-0.5-0.2c0,0.1,0.1,0.1,0.1,0.2c0.1-0.1,0.1-0.2,0.2-0.3C36.2,27.3,36.3,27.4,36.3,27.5"/>
	<path d="M60.1,74.8c0.1,0.1,0.2,0.2,0.4,0.3c-0.2,0.2-0.5-0.2-0.7-0.3C59.9,74.8,60,74.8,60.1,74.8"/>
	<path d="M33.7,77.7c0.3,0,0.5,0,0.8-0.1C34.3,77.8,33.9,77.9,33.7,77.7"/>
	<path d="M42.4,11.3c-0.3,0.5-0.1-0.9,0.3-0.4C42.5,11,42.4,11.1,42.4,11.3"/>
	<path d="M52.6,76c0,0.2,0,0.4-0.1,0.6c-0.4,0.2-0.4-0.7-0.1-0.8C52.4,75.8,52.5,75.9,52.6,76"/>
	<path d="M44.6,77.1c0-0.2,0.1-0.5,0.1-0.7C45,76.6,45.1,77.3,44.6,77.1"/>
	<path d="M49.6,80.3c0.1,0.2,0.1,0.5-0.2,0.7c-0.1-0.2-0.1-0.4-0.1-0.6C49.4,80.3,49.5,80.3,49.6,80.3"/>
	<path d="M57.9,75.2c-0.3,0.3-0.7-0.2-0.4-0.4c-0.1,0.3,0.9,0.3,0.4,0.5"/>
	<path d="M51.9,86.3c0-0.1,0-0.4,0.1-0.4c0,0.3,0.1,0.6,0.2,0.9C52,86.8,51.9,86.5,51.9,86.3"/>
	<path d="M47.1,92.5c0.1,0.1,0,0.2-0.1,0.2c-0.2-0.2-0.2-0.5-0.1-0.8C47,92.2,47,92.3,47.1,92.5"/>
	<path d="M44.3,57.3c0.1-0.1,0.1-0.3-0.1-0.3c0.1-0.1,0.2-0.2,0.3-0.2c0.1,0.2,0.1,0.3,0,0.5C44.5,57.3,44.4,57.3,44.3,57.3"/>
	<path d="M54.7,81.1c0.1,0,0.1,0,0.2,0c-0.2,0.1-0.3,0.1-0.5,0.2c0.1-0.3,0.2-0.5,0.2-0.8C54.6,80.8,54.6,81,54.7,81.1"/>
	<path d="M37.4,25.1c0.1,0.1,0.2,0.2,0.3,0.3c0.1,0.2-0.2,0.4-0.3,0.3C37.5,25.5,37.5,25.3,37.4,25.1"/>
	<path d="M64.6,55.6c0.2,0,0.3,0,0.4,0.1c-0.3,0.1-0.6,0-0.9-0.1C64.3,55.6,64.4,55.6,64.6,55.6"/>
	<path d="M35.1,15.5c-0.1,0.1-0.1,0.3-0.2,0.4c-0.1-0.3,0.2-0.6,0.4-0.6C35.3,15.4,35.3,15.5,35.1,15.5"/>
	<path d="M56,75.6c-0.1,0-0.2,0-0.2-0.1c-0.1-0.2-0.1-0.4,0-0.6C55.8,75.1,55.9,75.3,56,75.6"/>
	<path d="M60.6,75.9c0.3-0.1,0.7,0.2,0.6,0.5c-0.3-0.1-0.5-0.3-0.7-0.5"/>
	<path d="M57.8,7.7c0-0.2,0-0.3,0.2-0.4c0,0.3,0.2,0.6,0.4,0.7C58.1,8.2,57.7,8,57.8,7.7"/>
	<path d="M47,7.6C47,7.4,47.2,7.1,47.4,7C47.3,7.1,47.3,7.9,47,7.6"/>
	<path d="M44.8,48.6c-0.1-0.3,0.2-0.7,0.5-0.6c0,0.1,0,0.2,0,0.2C45.1,48.2,44.9,48.4,44.8,48.6"/>
	<path d="M40.9,77c0-0.1,0.1-0.2,0.2-0.2c0.1,0.2,0.2,0.5,0,0.7c-0.1-0.1-0.2-0.2-0.2-0.3C40.9,77.2,40.9,77.1,40.9,77"/>
	<path d="M57.7,6.8c0.2,0,0.3,0.2,0.2,0.4c-0.2-0.2-0.5-0.4-0.8-0.4C57.3,6.7,57.5,6.7,57.7,6.8"/>
	<path d="M43.7,89c0.2-0.2,0,0.6,0,0.8c-0.1,0-0.1-0.1-0.2-0.1C43.5,89.5,43.6,89.2,43.7,89"/>
	<path d="M36.7,56.1c0.1,0.1,0.3,0.1,0.4,0.2c0-0.1,0.1-0.2,0.3-0.3c0.1,0.1,0,0.3-0.1,0.4C37.1,56.3,36.9,56.2,36.7,56.1"/>
	<path d="M59.5,31.1c0.1,0,0.3,0,0.4,0.1c0,0.1,0.1,0.1,0,0.2c-0.1,0-0.1,0.1-0.2,0.1c0-0.1-0.1-0.2-0.1-0.3c0,0.1-0.1,0.2-0.1,0.3
		C59.5,31.4,59.5,31.3,59.5,31.1"/>
	<path d="M54.9,79.8c0.4,0.2-0.3,0.6-0.3,0.1c-0.2,0.2-0.4-0.2-0.1-0.3C54.6,79.6,55.1,79.6,54.9,79.8"/>
	<path d="M58.2,30.6c0.2,0,0.5-0.1,0.7-0.1c0,0.1,0.1,0.2,0.1,0.3c-0.1,0.1-0.2,0.2-0.4,0.2c-0.1-0.1-0.3-0.2-0.4-0.3"/>
	<path d="M61.1,9.5c0.1-0.2,0.3-0.5,0.4-0.7c0,0.3,0,0.6-0.1,0.9C61.3,9.7,61.2,9.6,61.1,9.5"/>
	<path d="M47.1,6.1c-0.1,0.2-0.4,0.2-0.6,0.1c0.3-0.2,0.7-0.3,1.1-0.2C47.5,6,47.3,6.1,47.1,6.1"/>
	<path d="M37.8,81.8c0.1,0.2-0.1,0.5-0.3,0.5c0.1-0.3,0.2-0.6,0.4-0.9C37.9,81.5,37.9,81.6,37.8,81.8"/>
	<path d="M60.9,81.1c-0.2,0-0.3-0.1-0.5-0.1c-0.1-0.1,0-0.3,0.2-0.3c0.1,0.1,0.1,0.2,0.2,0.2c0.2,0,0.3,0.1,0.5,0.1
		C61.1,81.1,61,81.1,60.9,81.1"/>
	<path d="M60.5,75.7c-0.2-0.1-0.5-0.2-0.7-0.3c0.1,0,0.3-0.1,0.3-0.3c0.1,0.2,0.3,0.3,0.5,0.4C60.6,75.6,60.6,75.6,60.5,75.7"/>
	<path d="M51.2,80.8c0.1-0.1,0.1-0.1,0.2-0.2c0.2,0.2,0.3,0.5,0.3,0.8C51.5,81.3,51.3,81.1,51.2,80.8"/>
	<path d="M48.9,81.9c0,0.1,0,0.2,0.2,0.2c-0.2,0.1-0.3,0.1-0.5,0C48.7,82.1,48.7,82,48.9,81.9c-0.2,0-0.3-0.2-0.3-0.3
		c0.1-0.1,0.2-0.1,0.3,0C48.8,81.6,48.8,81.8,48.9,81.9"/>
	<path d="M38.2,83.2c-0.1,0-0.2,0.1-0.3,0.1c0.1-0.2,0.3-0.4,0.6-0.5c0,0.2,0.1,0.3,0,0.5C38.4,83.3,38.3,83.2,38.2,83.2"/>
	<path d="M56.1,74.8c-0.1,0-0.3,0.1-0.4,0.1c0.1-0.1,0-0.4-0.1-0.5C55.9,74.4,56.1,74.6,56.1,74.8"/>
	<path d="M52.5,87.5c0,0.3-0.1,0.5-0.2,0.8c-0.2-0.4-0.2-0.9,0-1.2C52.5,87.1,52.6,87.3,52.5,87.5"/>
	<path d="M53.7,51.2c0.1,0,0.1-0.1,0.2-0.1c0.2,0.3,0.3,0.8-0.1,1c0-0.1,0-0.3-0.1-0.3C53.8,51.6,53.8,51.4,53.7,51.2"/>
	<path d="M55,90.3c-0.1,0-0.2,0-0.3,0.1c-0.2-0.3-0.2-0.6,0-0.9c0,0.1,0.1,0.2,0.2,0.2C54.9,89.9,54.9,90.1,55,90.3"/>
	<path d="M47.3,82.7c-0.1,0-0.3-0.1-0.4-0.1c0.2-0.1,0.4-0.3,0.3-0.6c0.1-0.1,0.2-0.1,0.3,0C47.5,82.3,47.4,82.5,47.3,82.7"/>
	<path d="M45,27.6c0.2,0.2-1.1,0.1-0.6-0.4C44.6,27.3,44.8,27.5,45,27.6"/>
	<path d="M53,88.2c0,0.2,0.1,0.4,0.1,0.6c-0.2-0.2-0.4-0.4-0.6-0.6c0.1,0,0.3,0,0.4,0.1C52.7,88.2,53,88.1,53,88.2"/>
	<path d="M31.5,50.6c0,0.3-0.1,0.5-0.2,0.8C31,51,31,50.4,31.4,50.2C31.4,50.3,31.4,50.4,31.5,50.6"/>
	<path d="M44.6,81c-0.2,0.1-0.4-0.3-0.1-0.4c-0.2-0.1-0.1-0.5,0.1-0.5C44.8,80.4,44.8,80.8,44.6,81"/>
	<path d="M60.6,77.3c0.4,1.4-0.1,0.7-0.3-0.1C60.3,77,60.6,77.2,60.6,77.3"/>
	<path d="M42.2,88.9c0,0.1,0,0.3,0,0.4c-0.1,0.1-0.2,0.1-0.3,0.1c-0.1-0.2-0.1-0.5,0-0.7c0.1-0.1,0.2-0.2,0.3-0.3
		C42.2,88.5,42.1,88.7,42.2,88.9"/>
	<path d="M44.9,73.4c0,0.1-0.1,0.3-0.2,0.3c0-0.4,0.2-0.8,0.5-1C45.1,72.9,45,73.1,44.9,73.4"/>
	<path d="M56.1,74.8c0.2,0,0.4,0.1,0.6,0.1c-0.1,0.2-0.2,0.5-0.3,0.7C56.3,75.3,56.2,75,56.1,74.8"/>
	<path d="M28.2,39.3c0,0.2,0,0.4-0.1,0.5c-0.2-0.4-0.1-0.9,0.2-1.1C28.3,38.9,28.2,39.1,28.2,39.3"/>
	<path d="M55.3,75.6c0.1,0.2,0.2,0.5,0.1,0.8c-0.1-0.3-0.2-0.7-0.4-1c0.1,0,0.1-0.1,0.2-0.1C55.3,75.3,55.3,75.5,55.3,75.6"/>
	<path d="M56.5,59.6c-0.1,0.1,0.1,0.3,0.2,0.2c0.1,0.1,0.1,0.4,0,0.5c-0.1-0.1-0.1-0.3-0.1-0.4c-0.2,0-0.4-0.1-0.5-0.2
		c0.1,0,0.2-0.2,0.2-0.3C56.4,59.4,56.5,59.5,56.5,59.6"/>
	<path d="M52.2,81.1c-0.2,0-0.3-0.2-0.3-0.4c0.3,0.1,0.6,0.3,0.9,0.4C52.7,81,52.4,81,52.2,81.1"/>
	<path d="M59,52.5c-0.2,0-0.4,0.1-0.6,0.1c0.2-0.1,0.5-0.3,0.7-0.4c0.1,0.1,0.1,0.2,0.2,0.4C59.2,52.6,59.1,52.6,59,52.5"/>
	<path d="M43.9,59.3c0.2-0.3,0.4-0.6,0.7-0.9c0,0.1,0,0.2,0,0.3C44.3,58.9,44.1,59.1,43.9,59.3"/>
	<path d="M47.1,73c0.1,0.2,0.3,0.4,0.2,0.6C47,73.4,46.9,73,47,72.7c0.1,0,0.1-0.1,0.2,0C47.1,72.8,47.1,72.9,47.1,73"/>
	<path d="M33.2,18.3c0.2,0.2,0.3,0.5,0.3,0.8c-0.1,0.1-0.2,0.2-0.4,0.3C33.1,19,33,18.5,33.2,18.3"/>
	<path d="M36.6,55.4c-0.2,0-0.4-0.1-0.4-0.3c0.3-0.3,0.9-0.1,0.9,0.3C37,55.4,36.8,55.4,36.6,55.4"/>
	<path d="M33.8,18c0,0.1,0,0.2,0.1,0.3c-0.1,0-0.1,0.1-0.2,0.1c-0.1-0.1-0.1-0.1-0.2-0.2c0-0.2,0-0.5,0.1-0.7
		C33.7,17.7,33.8,17.8,33.8,18"/>
	<path d="M52.5,8.6c-0.1,0-0.2-0.3-0.1-0.3c0.3,0.3,0.2,0.8-0.2,1C52.3,9,52.4,8.8,52.5,8.6"/>
	<path d="M55.1,74.3c0.3,0.1,0.4,0.5,0.5,0.8c-0.1,0-0.2,0-0.3,0C55.3,74.7,55.2,74.5,55.1,74.3"/>
	<path d="M50,8.6c0.3-0.2,0.7-0.2,1,0c-0.2,0.2-0.6,0.4-0.9,0.3C50.1,8.7,50.1,8.6,50,8.6"/>
	<path d="M49.3,83.9c0,0.1,0,0.2,0,0.3c-0.1,0-0.2,0-0.3,0c0.1-0.3,0.1-0.6,0.2-0.9c0.1,0.1,0.1,0.2,0.2,0.3
		C49.3,83.7,49.3,83.8,49.3,83.9"/>
	<path d="M29.3,33.7c-0.2-0.2,0-0.6,0.3-0.7c-0.1-0.1,0-0.3,0.1-0.3C29.6,33.1,29.5,33.4,29.3,33.7"/>
	<path d="M35,14.6c0.1-0.2,0.3-0.4,0.4-0.7c0,0.1,0.1,0.2,0.2,0.3c-0.3,0.2-0.4,0.4-0.5,0.7C35,14.9,35,14.8,35,14.6"/>
	<path d="M60.4,83.4c0.1,0.2,0.1,0.4,0.2,0.6c-0.2,0-0.3,0.1-0.5,0.1c-0.1-0.3,0-0.5,0.1-0.8c0,0.1,0.1,0.2,0.1,0.3
		C60.3,83.5,60.3,83.5,60.4,83.4"/>
	<path d="M39.8,86.1c0.1,0,0.2,0,0.3,0.1c-0.1,0.1-0.1,0.2,0,0.3c-0.2,0.1-0.3,0.3-0.4,0.4c-0.2,0,0.3-0.5,0-0.4
		C39.8,86.5,39.9,86.3,39.8,86.1"/>
	<path d="M56.3,76.7c-0.3-0.2-0.8-1.1-0.2-1.1C56.3,75.9,56.4,76.3,56.3,76.7"/>
	<path d="M48.5,88.8c0-0.1,0-0.2,0-0.3c0.1-0.1,0.3-0.1,0.4,0c-0.1,0.2,0.3,1-0.2,1c0-0.2,0.1-0.3,0.1-0.5
		C48.7,88.9,48.6,88.9,48.5,88.8"/>
	<path d="M59.1,74.9c-0.2-0.1-0.3-0.2-0.4-0.3c0.3,0.1,0.5,0.2,0.8,0.2c0.1,0.2,0.1,0.4,0.1,0.5C59.4,75.3,59.2,75.1,59.1,74.9"/>
	<path d="M59.9,76.8c-0.1,0.3-0.5-0.3-0.4-0.4c0.3,0,0.5,0,0.8,0.1c0.1,0.1,0.1,0.2,0,0.3c-0.1-0.1-0.1-0.1-0.2-0.2
		c-0.1,0.1-0.2,0.1-0.3,0.1C59.8,76.7,59.8,76.8,59.9,76.8"/>
	<path d="M53.3,5.5c0.3,0,0.5,0.1,0.8,0.1c-0.1,0-0.2,0.1-0.3,0.2c0.1,0.1,0,0.3-0.1,0.4c0-0.1,0-0.3,0-0.4
		c-0.1-0.1-0.3-0.2-0.5-0.1C53.1,5.6,53.2,5.5,53.3,5.5"/>
	<path d="M55.9,88.2c0-0.1,0-0.2-0.1-0.3c0-0.1,0.1-0.1,0.2-0.1c-0.3,0.4,0.6,0.8,0.2,1c0-0.2-0.1-0.3-0.3-0.4
		C55.9,88.3,55.9,88.3,55.9,88.2"/>
	<path d="M53,82.1c0.1-0.2,0.1-0.5,0.1-0.7c0.2,0.1,0.4,0.3,0.5,0.4C53.6,82.1,52.7,82.6,53,82.1"/>
	<path d="M50,80.6c0.3-0.1,0.5-0.1,0.8-0.1c-0.2,0.1-0.4,0.2-0.5,0.1c0.1,0.2,0.1,0.5,0.1,0.7c-0.1,0-0.2,0.1-0.3,0
		C49.9,81.2,49.9,80.9,50,80.6"/>
	<path d="M46.1,54.8c0.1,0.3,0.2,0.6,0.3,1c-0.2-0.2-0.5-0.4-0.7-0.6c0-0.1,0.1-0.2,0.1-0.2c0,0,0.1,0.1,0.1,0.1
		C45.9,54.9,46,54.8,46.1,54.8"/>
	<path d="M67.8,50.6c-0.2-0.3-0.3-0.5-0.5-0.8C67.7,49.8,68.3,50.3,67.8,50.6"/>
	<path d="M47.9,8.5c0.1-0.4,0.3-0.9,0.8-1C48.4,7.8,48.3,8.4,47.9,8.5"/>
	<path d="M52.7,5.6c-0.3,0.2-0.6,0.9-1,0.8C51.8,6,52.2,5.7,52.7,5.6"/>
	<path d="M66.5,49.8c-0.1-0.1-0.2-0.2-0.2-0.3c0-0.2,0.5,0.1,0.6-0.1c0.2,0.1,0.3,0.3,0.5,0.4C67,49.7,66.7,49.7,66.5,49.8"/>
	<path d="M56.1,51.3c0-0.1,0-0.1,0-0.2c0.1,0.1,0.2,0.4,0,0.4c0.1,0.1,0.1,0.1,0.2,0.2c-0.1,0.1-0.2,0-0.2-0.1
		c-0.1,0.1-0.2,0.2-0.3,0.3c-0.1-0.1-0.1-0.2-0.2-0.3c0.1-0.1,0.2-0.1,0.3-0.1C55.8,51.4,56,51.2,56.1,51.3"/>
	<path d="M51.9,94c-0.4,0.2-0.6-0.5-0.4-0.7c0.1,0.1,0.2,0.2,0.3,0.3c0-0.1,0.2-0.1,0.2,0c0-0.2,0.1-0.3,0.3-0.3
		c-0.1,0.2-0.1,0.4-0.1,0.5C52.1,93.9,52,94,51.9,94"/>
	<path d="M33.1,73.7c-0.2,0.2-0.3,0.3-0.4,0.6c-0.3-0.5,0.4-0.9,0.8-1C33.5,73.5,33.3,73.7,33.1,73.7"/>
	<path d="M54.7,6.5c-0.2,0.1-0.4,0.2-0.6,0.3c-0.2-0.2,0.1-0.5,0.3-0.3C54.5,6.3,54.7,6.3,54.7,6.5c0.2-0.2,0.4-0.3,0.6-0.3
		C55.2,6.5,55,6.6,54.7,6.5"/>
	<path d="M32.6,74.9c-0.3,0.1-0.5,0.2-0.8,0.2c0.3-0.3,0.5-0.5,0.8-0.8C32.7,74.6,32.6,74.8,32.6,74.9"/>
	<path d="M45.3,58c-0.2,0.1-0.4,0.3-0.4,0.6c-0.1-0.3,0-0.6,0.2-0.8c-0.1-0.1-0.1-0.2-0.1-0.3c0,0,0.1,0.1,0.1,0.1
		c0-0.1,0.2-0.2,0.3-0.2C45.4,57.6,45.3,57.8,45.3,58"/>
	<path d="M52.7,94c0-0.2,0.1-0.4,0.2-0.5c-0.1,0.3,0,0.7,0.3,0.8c-0.1,0-0.2,0.1-0.1,0.2c-0.2,0-0.3,0-0.5,0
		C52.7,94.4,52.8,94.1,52.7,94"/>
	<path d="M63,75.9c0.1,0.1,0.1,0.2,0.1,0.3c-0.2-0.1-0.4-0.2-0.6-0.3c0-0.2,0-0.4,0.2-0.6c0.1,0.2,0.1,0.4,0.1,0.6
		C62.9,75.9,63,75.9,63,75.9"/>
	<path d="M49.5,7.6C50,7.4,50.6,7,51,7.2C50.7,7.6,50.1,7.7,49.5,7.6"/>
	<path d="M47.3,81.9c-0.1-0.5,0-1.1,0.2-1.6C47.6,80.9,47.6,81.5,47.3,81.9"/>
	<path d="M48.9,84.3c0.1,0.4-0.2,0.9-0.5,1.1c-0.2-0.1-0.1-0.4,0.1-0.5c0-0.2-0.1-0.3-0.2-0.4c0.1,0,0.3,0,0.3,0.1
		C48.6,84.4,48.7,84.3,48.9,84.3"/>
	<path d="M56.7,85.5c0.5,0.2,0.9,0.5,1.1,0.9C57.4,86.6,56.9,85.9,56.7,85.5"/>
	<path d="M52.9,28.5c0,0.1,0.1,0.2,0.1,0.3c0.2-0.2,0.6,0,0.6,0.3c-0.5,0-1-0.3-1.3-0.7C52.5,28.4,52.7,28.4,52.9,28.5"/>
	<path d="M34.2,48.5c-0.2-0.2-0.5-0.1-0.5,0.2c-0.5-0.6,0.6-0.6,1-0.5c-0.1,0-0.3,0-0.4,0.1c0,0.1,0.1,0.1,0.1,0.1
		C34.3,48.3,34.2,48.4,34.2,48.5"/>
	<path d="M41.4,89c-0.1,0.5-0.3,0.9-0.6,1.3c-0.1-0.2-0.2-0.3-0.3-0.5C41,89.9,41,88.8,41.4,89"/>
	<path d="M38.5,84c0,0.2-0.1,0.5-0.1,0.7c-0.1,0-0.1,0-0.2,0c0-0.4,0-0.7-0.1-1.1c0.1-0.1,0.1-0.2,0.2-0.3c0.1,0.2,0.3,0.4,0.4,0.6
		C38.6,83.9,38.5,83.9,38.5,84"/>
	<path d="M51,87.9c-0.3-0.4-0.9-0.6-1-1.1C50.6,86.6,51,87.4,51,87.9"/>
	<path d="M42.9,57.4c0-0.1,0-0.2,0-0.3c0.1,0.3,0.4,0.4,0.6,0.4c0,0.1,0,0.2-0.1,0.3c-0.3,0.1-0.6,0.2-0.8,0.3
		C42.5,57.8,42.7,57.5,42.9,57.4"/>
	<path d="M57.8,41.5c0.1,0,0.3,0,0.4,0.1c-0.6,0.1-1.1,0.1-1.7,0C56.9,41.6,57.3,41.5,57.8,41.5"/>
	<path d="M52.7,92c0.1,0.4,0.2,0.8,0.2,1.2c-0.1-0.1-0.4-0.1-0.3,0.1c-0.1-0.1-0.2-0.1-0.2-0.2c0.2-0.2,0-0.8,0.1-1.1
		C52.6,92,52.7,92,52.7,92"/>
	<path d="M37.6,78.6c0.2,0.6,0.2,1.4-0.4,1.7C37.3,79.7,37.5,79.1,37.6,78.6"/>
	<path d="M43.5,57.4c0-0.2-0.1-0.3-0.1-0.5c0.1-0.1,0.3,0,0.3,0.1c0.4-0.2,0.7,0.4,0.4,0.6c-0.1-0.2-0.2-0.3-0.2-0.5
		C43.8,57.2,43.6,57.3,43.5,57.4"/>
	<path d="M44.2,74.6c0,0.2,0.1,0.5,0.1,0.7C43.9,75.5,43.9,74.6,44.2,74.6c0.2-0.1,0.5-0.2,0.5-0.3c0.1,0.2,0.1,0.5,0,0.7
		c0-0.1,0-0.2-0.1-0.3C44.5,74.6,44.4,74.6,44.2,74.6"/>
	<path d="M37.4,25.7c0.2,0.2,0.4,0.4,0.6,0.6c-0.4-0.1-0.8-0.2-1.1-0.5c0-0.1,0-0.2,0.1-0.3c0.1,0,0.2,0.1,0.2,0.2
		c0.1-0.1,0.2-0.1,0.3-0.1"/>
	<path d="M35.5,48.5c-0.1-0.1-0.3-0.1-0.4-0.1c0,0.4-0.3,0.7-0.7,0.8c0.1-0.1,0.1-0.2,0-0.3c0.3-0.3,0.6-0.5,0.8-0.8
		C35.4,48.1,35.5,48.3,35.5,48.5"/>
	<path d="M41.8,92.2c0.1-0.3,0.3-0.6,0.6-0.7c0,0.1,0.1,0.1,0.1,0.2c-0.3,0.3-0.2,0.8,0.1,1.1C42.3,92.8,42,92.5,41.8,92.2"/>
	<path d="M44.6,92.5c-0.2-0.5-0.5-1.8,0.3-1.8C44.5,91.2,45.2,92.1,44.6,92.5"/>
	<path d="M64.7,28.1c0,0.1,0.1,0.2,0.2,0.2c-0.1,0-0.2,0.1-0.2,0.2c-0.4,0.2-0.7,0.3-1.1,0.4c0-0.1,0-0.3-0.1-0.4
		c0.3-0.1,0.6-0.1,0.9-0.2C64.5,28.3,64.6,28.2,64.7,28.1"/>
	<path d="M46.3,54c-0.2-0.1-0.5-0.3-0.7-0.4c0.5-0.5,1.2,0.6,1.1,1.1C46.5,54.5,46.4,54.3,46.3,54"/>
	<path d="M63.2,76.1c0.1,0.1,0.1,0.2,0.2,0.3c-0.3,0.2,0.3,0.9-0.2,1c0.1-0.5-0.9-0.6-0.7-1.1c0.2,0.1,0.4,0.2,0.6,0.3
		C63.2,76.4,63.2,76.2,63.2,76.1"/>
	<path d="M42.2,77.8c0.1-0.6,0.3-1.2,0.7-1.7c0.1,0,0.2,0.1,0.2,0.2C42.6,76.7,42.6,77.6,42.2,77.8"/>
	<path d="M52.8,74.6c0.1,0.3,0.2,0.6,0.3,1c-0.1,0-0.3-0.1-0.3-0.2c-0.3,0.1-0.5-0.2-0.6-0.5c0-0.2,0.5,0.3,0.4,0
		c0,0.1,0,0.1,0.1,0.2c0.1,0.1,0.2,0,0.2-0.1C52.7,74.8,52.6,74.5,52.8,74.6"/>
	<path d="M70.7,63.8c0.2-0.6,0-1.7,0.5-2C71.5,62.5,71.3,63.4,70.7,63.8"/>
	<path d="M43.9,80.8c0.1,0.1,0.3,0.2,0.4,0.4c-0.1,0-0.1,0.1-0.2,0.1c0-0.1-0.2-0.2-0.3-0.1c-0.3-0.2-1.2-0.4-0.8-0.9
		c0,0.2,0.2,0.4,0.4,0.4c0.1-0.1,0.2-0.2,0.3-0.3C43.9,80.4,43.9,80.6,43.9,80.8"/>
	<path d="M41.7,90.7c0.1-0.6,0.4-1.1,0.8-1.5c0.2,0.5-0.5,1.3-0.6,2C41.8,91,41.7,90.9,41.7,90.7"/>
	<path d="M46.4,27.5c0.2-0.2,0.6-0.2,0.7,0.1c-0.1,0-0.2,0.1-0.3,0.1c0.3,0.2,0.6,0.4,0.9,0.7c-0.4,0.2-0.8,0-1-0.4
		c0.1-0.1,0.1-0.3,0-0.4C46.6,27.6,46.5,27.6,46.4,27.5"/>
	<path d="M45.2,82.1c0.2-0.1,0-0.3-0.1-0.1c0-0.1-0.1-0.2-0.1-0.3c-0.2,0.1-0.6-0.1-0.4-0.3c0,0.2,0.3,0.1,0.3-0.1
		c0,0.5,1,0.4,0.8,0.6c0.1,0,0.2-0.1,0.2-0.2c0.1,0.2,0,0.4-0.1,0.6C45.6,82.2,45.4,82.1,45.2,82.1"/>
	<path d="M38.4,26.9c0.1-0.2,0.5,0.1,0.6-0.2c0.1-0.3,0.4-0.4,0.6-0.5c0.1,0.1,0.2,0.1,0.2,0.1c-0.3,0.3-0.5,0.5-0.8,0.8
		c-0.1,0-0.4-0.1-0.4,0c-0.1-0.1-0.1-0.2-0.1-0.3C38.5,27,38.4,27,38.4,26.9"/>
	<path d="M51.3,75.7c0.1,0,0.3-0.1,0.3-0.2c0,0.1,0.1,0.2,0.2,0.2c0.1,0.3-0.2,1.3,0.3,1c0.1,0,0.2,0,0.2,0.1
		c-0.2,0.2-0.4,0.3-0.7,0.5c0.3-0.5-0.3-1.1-0.1-1.4C51.4,75.7,51.3,75.7,51.3,75.7"/>
	<path d="M44.4,49.5c-0.4-0.2-0.9-0.3-1.2-0.6c-0.1-0.4-0.2-0.8-0.5-1c0.6-0.2,1,1,1.6,0.9C44.3,49,44.3,49.2,44.4,49.5"/>
	<path d="M68.4,51.3c-0.1-0.2-0.1-0.4-0.2-0.7c0.7,0,1.6,0.8,1,1.4c-0.1,0-0.1,0-0.2,0c0.4-0.4-0.5-1.7-0.4-0.9
		C68.6,51.2,68.5,51.3,68.4,51.3"/>
	<path d="M49.5,75.9c0.2-0.4,0.3-0.9,0.5-1.3c0.6,0.6-0.3,1.4-0.2,2c-0.1,0-0.2,0.2-0.1,0.3C49.1,77,49.5,76.2,49.5,75.9"/>
	<path d="M53.5,7.9c-0.1,0-0.1-0.1-0.2-0.1c-0.1,0.1-0.1,0.3,0,0.4c-0.4,0-0.7-0.1-1-0.3c0.6-0.2,1.3-0.5,2-0.7
		c-0.2,0.3-0.5,0.6-0.7,1C53.5,8.1,53.5,8,53.5,7.9"/>
	<path d="M56.2,72.8c0.3,0.5,1.8,1.3,1,1.9c-0.1-0.3-0.2-0.7-0.3-1c-0.5-0.1-0.9-0.5-0.9-0.9C56,72.8,56.1,72.8,56.2,72.8"/>
	<path d="M45.6,73.8c-0.2,0.1-0.3,0-0.5-0.1c0.2-0.2,0.5-0.4,0.7-0.6c0.1,0.2,0,0.5-0.1,0.6c0.1,0,0.2,0.1,0.2,0.2
		c-0.3,0-0.2,0.7-0.3,1c-0.2,0.1-0.3,0.2-0.4,0.3C45.2,74.8,45.3,74.2,45.6,73.8"/>
	<path d="M51.3,77.1c-0.4,0-0.6-1-1.1-0.7c0.3-0.3,0.4-0.8,0.4-1.2C50.8,75.8,51.1,76.4,51.3,77.1"/>
	<path d="M49.1,79.1c-0.4-0.3-0.9-0.4-1.4-0.4c0.5,0.1-0.6,0.3-0.7,0c0.6-0.4,1.4-0.4,1.9,0.1c0.1-0.1,0.2,0,0.3,0
		C49.2,78.9,49.1,79,49.1,79.1"/>
	<path d="M33.4,80c0.1,0,0.2,0.1,0.3,0.1c0-0.5,0.1-1,0.1-1.5c0.7,0.2,0.4,1.9-0.3,2.2C33.4,80.5,33.3,80.2,33.4,80"/>
	<path d="M46.2,71.9c-0.1,0-0.2,0.3,0,0.3c-0.1,0-0.2,0.1-0.3,0.1c0.1-0.2-0.1-0.4-0.2-0.6c0.3,0-0.1-0.4,0-0.4
		c-0.4,0.3-0.9-0.2-0.8-0.6c0.1,0.5,0.9,0.1,1.1,0.5c-0.1,0.1-0.1,0.1-0.2,0.2C45.9,71.5,46.1,71.7,46.2,71.9"/>
	<path d="M44.4,48.9c0.1-0.1,0.3-0.2,0.4-0.3c-0.2,0.9,0.9,1.7,0.7,2.5c-0.1-0.1-0.2-0.3-0.1-0.5c-0.6-0.3-1-1-0.8-1.7
		C44.5,49,44.5,48.9,44.4,48.9"/>
	<path d="M61.9,42.3c-1-0.1-2-0.4-3-0.6c0.5-0.3,1.2,0.2,1.8,0.3C61.1,42,61.7,41.9,61.9,42.3"/>
	<path d="M69.8,16c0,0.4,0.1,0.8,0.1,1.2c-0.6,0.2-0.4-1-0.6-1.3c-0.5-0.1-0.9-0.4-1.2-0.8c0.4,0.1,0.7,0.4,1.1,0.6
		C69.3,15.5,69.6,15.9,69.8,16"/>
	<path d="M47.8,87c0.1,0,0.3,0,0.4,0c0,0.6-0.1,1.2-0.3,1.7c0.4,0.3,0.1,0.8,0.1,1.2C47.5,89.2,47.9,87.9,47.8,87"/>
	<path d="M54.3,9c0-0.2,0-0.5,0-0.7c-0.8,1.5-0.4-0.6,0.5-0.7c0.4,0.2,0.7,0.5,0.9,0.8c-0.4-0.4-1.3-0.1-1.1,0.5
		C54.5,9,54.4,9,54.3,9"/>
	<path d="M31.5,51.8c0.2,0.1,0.5,0.2,0.7,0.1c0.2-0.5,1.1-0.1,1.5-0.5c-0.1,0.2-0.4,0.4-0.7,0.4c-0.1-0.2-0.4-0.1-0.5,0.1
		c-0.4,0.5-1.1,0.1-1.7,0.1C31.1,51.8,31.3,51.7,31.5,51.8"/>
	<path d="M33.4,49.5c-0.2,0.5-0.7,0.9-1.2,0.9c0,0.2-0.2,0.3-0.4,0.3c0.3-0.4,1-0.8,1.1-1.3c0-1,1-1.2,0.6,0.1
		C33.5,49.5,33.4,49.5,33.4,49.5"/>
	<path d="M40.8,85.5c-0.2-0.1-0.4-0.1-0.6-0.1c-0.1,0.3-0.1,0.5-0.1,0.8c-0.2,0.1-0.2-0.2-0.1-0.3c-0.5-0.3-0.6,1.1-1,0.4
		C39.4,85.8,39.9,84.6,40.8,85.5"/>
	<path d="M40.4,40.4c-4.2,0.5-3.8,0,0.1-0.2C40.6,40.2,40.5,40.4,40.4,40.4"/>
	<path d="M53.5,78.4c-0.4,0.3-0.9,0.5-1.3,0.8c-0.1-0.1-0.1-0.3-0.3-0.3c0.1-0.1,0.3-0.1,0.5,0c0-0.1,0.2-0.2,0.3-0.2
		c-0.3-0.6,1.6-0.9,2-0.5c0,0.1-0.1,0.2-0.1,0.2C54.2,78.5,53.8,78.1,53.5,78.4"/>
	<path d="M44.8,92.6c0.8-0.6,0.4-1.9,0.6-2.8c0.1,0,0.2,0,0.2-0.1c0.4,1.2-0.5,2.4-0.2,3.6c-0.2,0-0.3,0-0.5-0.1
		C44.9,93.1,44.8,92.9,44.8,92.6"/>
	<path d="M47.4,76.6c-0.1-0.2-0.1-0.3-0.1-0.5c0.1,0.1,0.2,0.3,0.3,0.5c0.1,0,0.2,0,0.3,0c0.4-0.5-0.2-1.1-0.1-1.6
		c-0.1,0-0.2-0.1-0.1-0.2c0.5,0.3,0.6,1,0.9,1.4c-0.1,0-0.2-0.1-0.2-0.1c0,0.2,0,0.5,0,0.7c-0.1,0-0.2-0.1-0.3-0.1
		c-0.1,0-0.3,0.1-0.4,0.1C47.6,76.7,47.5,76.6,47.4,76.6"/>
	<path d="M48.8,41.6c-1.4-0.4-2.8,0.3-4.2-0.1c1,0,2.2-0.6,3.1-0.1C48,41.3,48.5,41.4,48.8,41.6"/>
	<path d="M42.7,92.8c-0.2-0.5-0.2-1.7,0.4-1.8c0,0.4,0,0.7,0,1c0.2-0.2,0.5-1.1,0.8-0.3c0,0.4-0.4,0.8-0.1,1.1
		c0.1-0.2,0.3-0.2,0.5-0.2c0.2,0.1,0.2,0.3,0.2,0.5C43.9,93.2,43.3,93.2,42.7,92.8"/>
	<path d="M46.5,50.2c0-0.3,0.1-0.6,0.3-0.8c-0.1-0.1-0.3-0.2-0.3-0.4c0,0.1-0.1,0.1-0.1,0.1c0-0.1-0.1-0.2-0.1-0.2
		c-0.2,0.1-0.3,0.2-0.5,0.3c-0.1-0.1-0.1-0.1-0.2-0.2c0.2-0.1,0.3-0.3,0.2-0.5c-0.2,0-0.2-0.3,0-0.2c0.1,0.2,0.2,0.4,0.4,0.6
		c0-0.1,0-0.2,0.1-0.3c0.3,0.1,0.5,0.3,0.6,0.6c0.1,0,0.2,0.1,0.3,0.1c0,0.2,0,0.3,0,0.5c0.3,0.1,0.5,0.2,0.7,0.4
		c-0.3,0-0.5,0.1-0.8,0.3C46.8,50.3,46.7,50.2,46.5,50.2"/>
	<path d="M47.6,71.5c-0.8-0.7-2.2-0.9-3-1.6c1.3-0.5,3.2,1.1,4.1,2.1C48.3,72,47.8,71.8,47.6,71.5"/>
	<path d="M45.4,8.8c-0.1-0.5-0.4-1.1-0.9-1c0,0.3,0,0.6-0.2,0.8c0-1.8-1.1-0.3-1.8-1c1.1-0.1,2.8-0.6,3.7,0.3
		C45.5,7.7,45.7,8.5,45.4,8.8"/>
	<path d="M54.3,50.4c-0.1,0-0.2,0.1-0.3,0.1c0.6,0.3,1.2,0.7,0.4,1.2c0-0.3,0-0.5,0-0.7c-1.1,0.1-0.5-1.1-0.2-0.9
		c0.3-0.5,0.7-0.9,1.2-1.1c0,0.1,0,0.1,0,0.2c0.1,0,0.2,0.1,0.3,0.1c-0.1,0.2-0.4,0.3-0.5,0.1c-0.5,0.2-0.7,0.7-0.7,1.2
		C54.4,50.6,54.3,50.5,54.3,50.4"/>
	<path d="M47.5,74.2c-0.3,0-0.5,0.3-0.4,0.5c0.6,0.6-0.5,1.5-0.1,2.3c-0.1-0.2-0.3-0.4-0.4-0.6c0.7-1.1-0.1-2.4,0.1-3.6
		c0.2,0.4,0.4,0.9,0.4,1.3c0.1-0.1,0.3-0.2,0.3-0.3c0,0.1,0.1,0.2,0.2,0.1C47.5,74.1,47.5,74.2,47.5,74.2"/>
	<path d="M51.3,89c0.2,0.7,0.3,1.5,0.5,2.2c-0.1,0-0.3,0-0.4,0.1c0,0.1,0.1,0.2,0.1,0.2c-0.1,0.3-0.2,0.6-0.3,0.9
		c-0.4-0.7,0.6-2.4-0.3-3c0-0.1,0.1-0.2,0.1-0.3c-0.2-0.2-0.4-0.3-0.6-0.3c-0.3-0.2-0.5-0.8-0.1-1C50.2,88.5,51,88.6,51.3,89"/>
	<path d="M56.1,41.9c-2.4-0.2-4.9-0.5-7.3-0.3c2.2-0.7,5.4-0.2,7.7,0.2C56.4,41.8,56.2,41.8,56.1,41.9"/>
	<path d="M68.9,73.2c0.1-0.1,0-0.2-0.1-0.2c-0.6-0.3-1.1-0.7-1.6-1.1c0.3-0.5,0.7,0.4,1,0.4c0.8-1.6,1-3.1,1.6-4.8
		c0-1.2,0.5-2.3,0.7-3.4c0.7,1.7-1.2,4.5-0.9,6.5c-0.2,0.5-0.6,1-0.2,1.7c-0.2,0-0.4-0.1-0.5-0.3c0,0.4,0.2,0.8,0.4,1
		C69,73.6,67.9,74,68.9,73.2"/>
	<path d="M49.2,85.7c0,0.5-0.1,1.1-0.1,1.6c-0.8-0.4,0.1-1.4-0.4-1.7c0-0.3,0.4-0.6,0.6-0.3c0-0.4,0.1-0.7,0-1
		c0.2,0.3,0.3,0.6,0.5,1c0.4,0,0-0.7,0.3-0.9c-0.1-0.1-0.1-0.1-0.2-0.2c0.1-0.2,0.3-0.4,0.3-0.7c-0.1-0.1-0.3-0.1-0.5-0.1
		c-0.1-0.1-0.1-0.1,0-0.2c0.6,0.1,1.3,0.1,1.9-0.1c0,0.1-0.1,0.3-0.2,0.3c-0.1-0.1-0.3-0.1-0.4-0.1c0,0.1-0.1,0.2-0.2,0.3
		c-0.6-0.6-0.7,1-0.5,1.4c0-0.1,0.1-0.1,0.2,0c0.7-0.8,1.1,0.7,1.2,1.2c-0.5,0.2-0.8-0.9-1.3-0.6c0,0.2,0,0.5,0.1,0.7
		c-0.1,0-0.2,0.1-0.2,0.2c-0.1-0.4-0.4-0.7-0.8-0.9c-0.2,0.8,0.3,1.6,0.1,2.5c0,0.4-0.1,1.1,0.4,1.2c-0.1,0.1-0.1,0.1-0.2,0.2
		c0.1,0,0.2,0,0.2,0c0,0.4,0.1,0.7,0.3,1c-0.2,0-0.3,0.1-0.5,0.1c0-0.4,0-1-0.6-1c-0.1-0.7,0.2-1.7-0.3-2.4
		C49.7,87,49.2,86.2,49.2,85.7"/>
	<path d="M41.5,48.2c0.1,0,0.3,0,0.4,0c0,0.2,0,0.3-0.2,0.4c-0.1-0.1-0.4,0-0.4,0.2c1,0,2,0.4,2.8,0.9c-0.7,0-2.4-0.9-2.5,0.1
		c0.2,0,0.3-0.1,0.4-0.3c0.9,0.1,1.7,0.4,2.4,0.9c-0.7-0.1-1.6-0.2-2,0.4c-0.3,0.5-1.4-0.2-1.6,0.4c-2.3-0.4-4.6-0.5-6.9-0.2
		c0.3-0.6-0.6-0.4-0.8-0.1c-0.7,0.3-0.6-0.7-0.1-0.2c1.8-1.9,4.7-2.3,7.2-2.4c-0.2,0.2-0.4,0.4-0.6,0.5
		C40.2,48.9,41.1,48.9,41.5,48.2 M37,49c0,0.1,0.1,0.2,0.1,0.1c-0.1,0.1-0.1,0.2-0.2,0.3c-0.2-0.2-0.3,0.3,0,0.1
		c-0.2,0.3-0.4,0.6-0.7,0.8c0.7,0.1,1.3-1.2,2.2-1.3c-0.1-0.2-0.3-0.2-0.5-0.1C37.6,49,37.3,49,37,49 M35.9,49.4
		c-0.1,0-0.1,0.1-0.1,0.2c0.3,0.1,0.6,0.1,0.9,0C36.6,49.4,36.2,49.4,35.9,49.4"/>
	<path d="M50.6,94c0.1-0.2,0.2-0.4,0.2-0.7c-0.2,0-0.3-0.1-0.4-0.3c-0.1,0-0.2,0-0.3,0c0,0.3,0,0.7-0.1,1c-1-0.3-2.8,0.1-3.3-0.9
		c-0.1,0.2-0.1,0.4-0.1,0.6c-0.3,0.1-0.7-0.2-0.8-0.5c-0.8-0.3,0.3-1.1,0.1-1.6c0.1-0.1,0.2-0.1,0.4-0.2c-0.1-0.2-0.1-0.5,0.1-0.6
		c0.1,0.2,0.2,0.4,0.3,0.6c-0.1,0.1-0.2,0.1-0.3,0c-0.1,0.4,0,0.9,0.2,1.2c0.2,0,0.3,0,0.5,0c0,0.1,0.1,0.1,0.2,0
		c0,0.2,0,0.4-0.1,0.5c0.5-0.2,0-0.9,0.3-1.3c0.2-0.7-0.6-1.6-0.4-2.4c0.2,0.7,1.3,1.8,0.7,2.5c0.1,0.6,0,1.3,0.7,1.5
		c0-0.3,0-0.5,0-0.8c-0.5-0.3-0.1-1,0.1-1.4c0.2-0.7-0.1-1.5-0.2-2.2c0.7,0.2,0.2,1.2,0.9,1.5c1.6,0,0,1.7,0.7,2.2
		c0.1,0,0.1-0.2,0-0.3c0-0.4,0.2-0.7,0.5-1c-0.1-0.4-0.1-0.9-0.1-1.4c0.1,0.1,0.2,0.2,0.3,0.2c-0.2,0.7-0.2,1.5,0,2.3
		c0.1,0,0.2-0.1,0.2-0.2c0.5,0.4-0.5,1.2,0.1,1.6C50.9,94.3,50.7,94.2,50.6,94 M46.3,93.3c0.1-0.2,0.2-0.3,0.3-0.4
		c-0.2-0.1-0.4-0.2-0.5-0.3c0.1,0.2,0.1,0.5,0,0.7C46.1,93.3,46.2,93.3,46.3,93.3 M49.8,91.4c-0.2-0.1-0.3-0.2-0.5-0.3
		c0,0.2,0.1,0.3,0.3,0.4c-0.1,0.1-0.1,0.3,0,0.4c0.1,0,0.1,0,0.2,0C49.7,91.7,49.7,91.6,49.8,91.4 M49.2,92.9c-0.1,0-0.1,0-0.2,0
		c-0.1,0.2,0,0.6,0.3,0.6C49.3,93.3,49.2,93.1,49.2,92.9"/>
	<path d="M51.5,72.9c1.2-1.1,2.8-3.1,4.5-3c2.2,0.2,0.9-3.3,0.2-4.5c0.5-0.7,0.7,0.7,1.1,0.8c0.3,1.4,0.9,3.8-1.1,4.2
		c-0.1-0.1-0.2-0.2-0.1-0.3c-0.1,0.1-0.2,0.1-0.3,0.2c-0.2,0.8,0.5,2.6-0.7,2.8c0.3,0.4,0.5,0.8,0.6,1.2c-0.1-0.2-0.5-0.3-0.7,0
		c0-0.7-1.2-1.5-1.4-0.5c0.1,0,0.2-0.1,0.4-0.1c0.7,0.4,1,1.4,0.5,2c-0.2-0.2-0.2-0.5,0.1-0.6c-0.2-0.4-0.5-0.8-0.8-1.2
		c-0.1,0-0.3,0.1-0.4,0.1c0.4,0.7,1.5,2.1,0.9,2.8c0-1.6-1.7-2.7-1.5-4.2c-0.2-0.1-0.5,0.1-0.5,0.4C52,72.9,51.7,72.9,51.5,72.9
		 M54.7,72.9c-0.1-0.1-0.3-0.1-0.4-0.1c0.1-0.2,0-0.5-0.2-0.3c0.1,0.2,0.2,0.4,0.3,0.6C54.5,73,54.6,72.9,54.7,72.9"/>
	<path d="M55.6,80.1c-0.3-0.4,0.2-0.7,0.6-0.7c-0.2-0.1-0.4-0.2-0.6-0.3c0,0.2-0.1,0.3-0.1,0.5c-0.1-0.1-0.1-0.3-0.1-0.4
		c-2.4,0.3-4.8,1.5-7.3,0.9c0.4,0.3,0.3,1.1-0.2,1.3c0.9-1.5-1.7-2.2-1.6-0.4c-0.2-0.4-0.1-0.9,0.2-1.2c-0.4,0.1-0.9,0.1-1.3,0.2
		c0.2,0,0.3-0.2,0.3-0.4c-1.2,0.3-2.7,0.6-3.7-0.2c-0.4-0.3-1-0.2-1.2,0.3c-0.6-1.1,1.1-1.3,1.7-0.7c5,0.8,10.9,1.1,15.8-1.1
		c0.5-0.5,1.8-1.1,1.9,0c-0.6,1-2.5,0.4-3,1.8c-0.2,0-0.4-0.1-0.6-0.1c-0.1,0.6-0.5,1.2-0.9,1.7c-0.1-0.2-0.2-0.3-0.3-0.5
		C55.2,80.5,55.4,80.3,55.6,80.1"/>
	<path d="M67,53c-0.1-0.1,0.1-0.3,0.2-0.2c-2.4-0.5-5.1-1.3-7.6-1.1c-0.4,0.1-1.1,0-1-0.5c-0.4,0-0.8,0.3-1,0.7
		c0-0.2,0.1-0.4,0.1-0.7c-0.6,0.2-1.3-0.5-1.2-1.1c-0.3,0.3-0.6,0.7-0.9,1c-0.1-0.4,0-0.9,0.3-1.3c0.1,0.2,0.1,0.3,0.1,0.5
		c0.3-0.4,0.7-0.8,1.2-0.8c-0.2,0.2-0.3,0.4-0.4,0.6c0.5-0.3,0.9-0.7,1.2-1.1c0.9,0,1.9,0,2.8-0.1c0.7,0.6,2.1-0.3,2.6,0.5
		c-0.1,0.4,0.4,0.6,0.8,0.6c-0.1-0.1-0.2-0.2-0.3-0.3c0.7-0.3,1.4-0.3,2.1-0.1c-0.1,0-0.3,0.1-0.4,0.2c0.4,0.2,0.7,0.6,0.7,1.1
		c0.1-0.1,0.2-0.2,0.3-0.3c-0.2-0.3-0.3-0.5-0.5-0.7c0.6,0,1.7,0.5,1.3,1.2c0.8,0.4,1,2,2.4,1.4C69.3,53.7,67.9,52.7,67,53 M67,51.8
		c-0.2-0.2-0.8,0-0.5,0.3c0.2,0.1,0.5,0,0.5,0.1c0.2,0.4,0.8,0.7,1.2,0.4C68.4,52.3,66.9,52.2,67,51.8 M65.1,51.7
		c-0.2-0.1-0.4-0.2-0.6-0.1c0.1,0.2,0.4,0.3,0.6,0.3C65.1,51.8,65.1,51.7,65.1,51.7 M57.2,50.4c-0.1,0.1-0.1,0.3,0,0.4
		c0.1-0.2,0.2-0.4,0.2-0.5c0-0.1-0.1-0.2-0.1-0.3C57.3,50,57.2,50.2,57.2,50.4 M66.3,51.3c0-0.1,0-0.1,0-0.2
		c-0.1,0.1-0.3,0.2-0.4,0.3c0.1,0,0.2,0.1,0.2,0.3c0.2,0,0.3-0.2,0.1-0.2C66.1,51.4,66.2,51.3,66.3,51.3"/>
	<path d="M42.6,54.5c-0.2-0.3-0.5-0.5-0.8-0.6c0.4,2.5-4.6,2.6-4.5,0.3c-1.2,0.6-2.3,2.1-3.9,1.5c-0.1,0.3-0.2,0.6-0.2,0.9
		c-0.5-0.5,0.1-1.5,0.8-1.1c2.4-2.2,6-3,9-2c-2.9-1.7-6.9,0-9.2,1.6c2.3-3,8-3.6,11.2-1.4c-0.2,0.3,0.3,0.3,0.4,0.1
		c0.1,0.1-0.1,0.4-0.2,0.3c0.1,0.1,0.2,0.2,0.3,0.2c0,0.3-0.1,0.5-0.1,0.8c-0.1,0-0.2,0-0.4,0c0.1-0.5-1.1-1.7-1-0.7
		c0.2,0.4,0.7,0.8,0.7,1.2c-0.1,0.1,0,0.5,0.2,0.4c-0.4,0.2-0.9,0.2-1.3,0.1c-0.2,0.2-0.3,0.3-0.5,0.5c-0.1-0.1-0.1-0.3-0.2-0.4
		c-0.4,1.2-0.7,0.2-1.6,0.3C41.7,55.7,42.2,55.2,42.6,54.5 M43.7,55.2c0.2,0.2,0.5,0.2,0.7,0.1C44.3,55.1,44,55,43.7,55.2
		c0.1-0.2,0-0.5-0.2-0.5c-0.2,0.2-0.4,0.6,0,0.7C43.6,55.3,43.7,55.2,43.7,55.2 M39.6,55.3c0.2,0.1,0.6-0.1,0.4-0.4
		c-0.5,0.2-1.4,0-1.2-0.7c0.1-0.2,0.6-0.5,0.4-0.8c-0.8,0.3-0.6,1.1-0.5,1.7C39,55.2,39.3,55.2,39.6,55.3 M40.4,54.5
		c-0.1,0.2,0.2,0.5,0.4,0.3c0.1-0.4,0-0.8-0.2-1.2C40.5,53.9,40.4,54.2,40.4,54.5"/>
	<path d="M54.7,56.7c0.2,0.5,2,0,1.5,0.9c-0.1-0.2-0.3-0.4-0.6-0.4c0.2,0.3,0.3,0.7,0.3,1.1c0.2-0.1,0.3-0.3,0.4-0.4
		c0,0.3-0.2,0.7-0.5,0.8c-0.4-0.6-0.9-1.1-1.3-1.7c-0.3,0-0.8,0.1-0.7,0.4c-0.1-0.1-0.3-0.1-0.4-0.2c0.5,0.7,0.8,1.5,0.9,2.3
		c-0.6-0.7-1.1-1.6-1.4-2.4c0.1,0.1,0.3,0.1,0.4,0.2c0.2-0.3,0.3-0.8,0.1-1.2c-0.1,0.2-0.2,0.4-0.3,0.7c0.1-0.6,0.1-1.1,0.2-1.7
		c0.7-0.9,1.7-1.6,2.7-2c-0.2,0.2-0.4,0.5-0.3,0.7c4.1-2.6,8.6,0.6,12.2,2c-1.5,1.3-2.5-1-4-0.4c-0.5,0.2-1,0.4-1.5,0.2
		c0.4-0.2,0.8-0.5,1.2-0.8c-0.3-0.2-0.5-0.4-0.8-0.6c-0.2,2.6-3.1,1.3-4.7,1.3c0.4,0.4,0.9,0.6,1.4,0.7c-0.2,0.1-0.3,0.2-0.5,0.3
		c0-0.1-0.1-0.3-0.2-0.3c-0.1,0.2-0.3,0.3-0.4,0.5c-0.2-0.3-0.8-0.6-0.9-0.1c-0.7-0.9-2.3,0-1.4-2c-0.6,0.2-0.8,1.2-0.3,1.6
		c-0.5-0.1-1-0.7-1-1.2C54.8,55.6,54.5,56.2,54.7,56.7 M60.1,53.9c-0.7-0.3-1.1,0.7-0.7,1.2c0.1,0.3,1.4,0.7,1.1,0.1
		C59.4,55.1,59.3,54.5,60.1,53.9 M57.8,55.2c0,0.2,0.3,0.3,0.4,0.1c0-0.4-0.1-0.8-0.3-1.1C57.7,54.4,57.7,54.9,57.8,55.2 M61.1,54.4
		c0.3-0.3-0.3-0.5-0.5-0.3c0.2,0.1,0.3,0.3,0.5,0.4 M61.5,54.4c-0.1-0.3-0.4,0.6,0,0.6C61.6,54.8,61.6,54.6,61.5,54.4 M62,54.5
		c0.5,0.3-0.2-0.7-0.4-0.3C61.7,54.3,61.9,54.4,62,54.5"/>
	<path d="M57.2,86.9c0.3,0.1,0.5,0.2,0.7,0.2c0.4-0.7-0.4-2.1,0.6-2.4c-0.1,0.6,0.1,1.2,0.6,1.6c0.3-0.2-0.1-0.5-0.3-0.8
		c-0.4-0.6,0.4-1.4,0-2c0.3,0.1,0.5,0.4,0.4,0.7c1.2-0.7,1.4,1.5,2.3,1c-0.3-0.2-0.6-0.5-0.8-0.8c0.5-0.5,1.6,1.5,1.3-0.2
		c-0.1,0.2-0.2,0.3-0.4,0.4c-0.3-0.3-0.7-0.6-1.2-0.7c-0.1-0.3-0.1-0.6-0.1-0.9c-3.2-1.8,1.2-1.9,2.6-0.8c0.6,0.2,0.8-0.6,0.7-1
		c0.3,0.2,0.7,0.3,1.1,0.3c0-0.2-0.1-0.4-0.1-0.6c-0.2,0.1-0.2,0.2-0.2,0.4c-0.7-0.1,0.5-1.3-0.2-1.8c0.3,0.2,0.6,0.3,0.9,0.4
		c0,0.3,0.1,0.5,0.1,0.8c0.7-0.5-0.2-1.3-0.8-1.3c0.1-0.2,0.4-0.3,0.6-0.3c0-0.3-0.1-0.7-0.1-1c0.1,0.1,0.3,0.1,0.4,0.2
		c0.3-0.8,0.6-1.6,0.9-2.5c0.4,0.3,0.7,0.8,0.8,1.3c0.5-0.5-0.9-1.5-0.4-2.2c0.1-0.1,0.3-0.1,0.4,0c0.4-0.6,0.8-1.4,0.3-1.8
		c1.6-0.1,1.1,2.8,0.3,3.5c-1.2,4.1-4,8-6.5,11.5c-0.1,0.1-0.4,0.3-0.5,0.1c-0.2-0.7-1-1-1.5-1.5c0.2,0.5,0.4,0.9,0.7,1.3
		c2.5,1.2-2.9,3.1-2.5,4.8c-1-1.2-0.8,0.4-1.5,0.6c-0.6-0.1-1.2,0.1-1.7,0.4c0,0.1,0.1,0.2,0.1,0.3c-0.3,0.2-0.8,0.1-0.9-0.3
		c-0.2,0.1-0.3,0.3-0.3,0.4C53,93.9,53,93.7,53,93.5c0.6,0,1.1-0.6,1-1.2c0.5,0.2,1,0.3,1.5,0.5c-0.3-0.4-0.5-1-0.3-1.5
		c0.2,0.5,0.4,1,0.7,1.6c0.5-0.9-0.2-2.1,0.1-3c-0.1-0.2-0.2-0.4-0.2-0.6c1.1,0.1-0.1,1.3,0.7,1.8c0-0.3,0.1-0.6,0.1-0.9
		c0.1,0,0.3,0,0.4-0.1c-0.3-0.7-0.3-1.5,0-2.2c0.5,0.3,1,0.6,1.4,0.9c-0.3-0.1-0.6-0.3-0.9-0.4c0.1,0.5,0.6,0.8,1.1,0.7
		c0-1.3-1.7-1-1.8-2c0.2-0.1,0.2-0.4,0.1-0.6C57.1,86.4,57.3,86.7,57.2,86.9 M63,82.6c0,0.1,0,0.2,0,0.3c0.5,0.1,0.3,1.2,0.9,1
		c-0.1-0.4-0.3-0.7-0.6-0.9c0-0.1,0-0.2,0-0.4C63.2,82.6,63.1,82.6,63,82.6 M63,84.1c-0.2,0-0.4-0.1-0.5-0.3
		c-0.1,0.1-0.3,0.1-0.4,0.2c0.1-0.6-0.4-1.1-0.8-1.4c0,0.1,0,0.3,0,0.4c-0.5,0.2-0.4-0.6-0.6-0.7c0.4-0.3-0.4-0.4-0.5-0.6
		C60,81.8,60,82,60,82.2c0.2,0,0.4,0.1,0.5,0.1c-0.1,0.4,0.3,0.9,0.7,0.9c0.6,0.2,0.8,1.1,1.5,1.3C62.9,84.4,63,84.3,63,84.1
		 M58.3,87.4c0,0.2,0.2,0.4,0.4,0.3c-0.1,0.7,0.1,1.1,0.8,1.2c0.2-0.3-0.2-0.5-0.4-0.7c-0.2-0.2-0.2-0.7-0.6-0.7
		c0-0.1-0.1-0.2-0.1-0.2C58.5,87.4,58.4,87.4,58.3,87.4 M57.2,90.2c0.1,0.2,0.2,0.4,0.3,0.6c0.2-0.1,0.2-0.3,0.2-0.5
		c0.1-0.2,0.1-0.5,0-0.8c-0.2,0-0.4-0.2-0.4-0.5c-0.1,0-0.2,0.1-0.3,0.1c0.2,0.3,0.4,0.5,0.5,0.8C57.4,90,57.3,90.1,57.2,90.2
		 M58.9,84.8c0,0.2,0.1,0.4,0.1,0.6c0.1-0.3,0.6,0,0.8,0c0.3-0.4-0.4-0.9-0.7-0.8C59.1,84.6,59,84.9,58.9,84.8 M58.7,87.3
		c0.3,0.2,0.5,0.5,0.7,0.8c0.5-0.5-0.8-1-0.5-1.5c-0.1-0.1-0.3-0.1-0.5-0.1c0,0.2,0.1,0.3,0.3,0.3C58.6,87,58.7,87.1,58.7,87.3
		 M60.9,86.4c-0.1-0.2-0.2-0.3-0.3-0.5c-0.1,0.2-0.1,0.5,0.1,0.7c0.3-0.1,0.6-0.2,0.9-0.3c0.1-0.1,0.1-0.2,0.2-0.3
		c-0.1-0.1-0.3,0-0.3,0.1C61.3,86.1,61.1,86.2,60.9,86.4 M57,90.9c-0.6-0.7-0.1,0.6,0.2,0.8C57.3,91.5,57.3,91.2,57,90.9 M62.5,82.8
		c-0.1,0-0.1-0.1-0.2-0.1c-0.3,0.2,0.2,0.6,0.3,0.9c0.1-0.2,0.3,0.2,0.4,0.1c0-0.2-0.1-0.3-0.3-0.2C62.7,83.2,62.6,83,62.5,82.8
		 M60.6,87c-0.1-0.3-0.2-0.5-0.4-0.7c-0.1,0.4,0,0.8,0.4,1C60.7,87.2,60.7,87.1,60.6,87 M66.3,79c0.1-0.2,0.1-0.4,0-0.6
		c-0.1,0.1-0.2,0.2-0.3,0.2c0.1,0.2,0.2,0.4,0.3,0.6C66.4,79.4,66.5,79.2,66.3,79 M61.6,83.9c-0.1-0.1-0.3-0.2-0.5-0.2
		c0.1,0.3,0.5,0.6,0.7,0.4C61.8,84.1,61.7,84,61.6,83.9 M67.5,75.1c0,0.1,0.1,0.3,0.2,0.3c0.1-0.2,0.1-0.4,0.1-0.7
		C67.6,74.8,67.5,75,67.5,75.1"/>
</g>
</svg>
