<?xml version="1.0" encoding="utf-8"?>
<!-- Generator: Adobe Adobe Illustrator 24.2.0, SVG Export Plug-In . SVG Version: 6.00 Build 0)  -->
<svg version="1.1" id="daisy" xmlns="http://www.w3.org/2000/svg" xmlns:xlink="http://www.w3.org/1999/xlink" x="0px"
	y="0px"
	viewBox="0 0 100 100" style="enable-background:new 0 0 100 100;" xml:space="preserve">
	<style type="text/css">
		.st0 {
			fill: #F2A516;
			stroke: #000000;
			stroke-miterlimit: 10;
		}

		.st1 {
			fill: #FFFFFF;
			stroke: #000000;
			stroke-miterlimit: 10;
		}

		#petals {
			animation: spin 10s infinite alternate ease-in-out;
			transform-origin: 50px 50px;
		}

		@keyframes spin {
			0% {
				transform: rotate(0deg);
			}

			100% {
				transform: rotate(360deg);
			}
		}
	</style>
	<circle id="center" class="st0" cx="50" cy="50" r="12.5" />
	<g id="petals">
		<path class="st1" d="M51.31,63.14c0,0,7.92,23.86-1.34,23.86c-8.32,0-2.35-23.87-2.35-23.87L51.31,63.14z" />
		<path class="st1" d="M47.38,62.94c0,0,0.53,25.13-8.32,22.41c-7.95-2.45,4.8-23.5,4.8-23.5L47.38,62.94z" />
		<path class="st1" d="M43.68,61.59c0,0-6.9,24.17-14.55,18.96C22.25,75.86,40.64,59.5,40.64,59.5L43.68,61.59z" />
		<path class="st1" d="M40.54,59.21c0,0-13.72,21.07-19.49,13.83c-5.19-6.51,17.2-16.72,17.2-16.72L40.54,59.21z" />
		<path class="st1" d="M38.25,56.02c0,0-19.32,16.09-22.7,7.47c-3.04-7.75,21.37-10.91,21.37-10.91L38.25,56.02z" />
		<path class="st1" d="M37,52.28c0,0-23.2,9.68-23.89,0.44c-0.62-8.3,23.63-4.12,23.63-4.12L37,52.28z" />
		<path class="st1" d="M36.9,48.35c0,0-25.02,2.41-22.96-6.62c1.85-8.11,23.8,3.03,23.8,3.03L36.9,48.35z" />
		<path class="st1" d="M37.97,44.56c0,0-24.62-5.08-19.99-13.09c4.16-7.21,21.85,9.91,21.85,9.91L37.97,44.56z" />
		<path class="st1" d="M40.11,41.26c0,0-22.03-12.11-15.25-18.4c6.1-5.66,17.96,15.9,17.96,15.9L40.11,41.26z" />
		<path class="st1" d="M43.12,38.73c0,0-17.48-18.06-9.14-22.08c7.5-3.61,12.47,20.49,12.47,20.49L43.12,38.73z" />
		<path class="st1" d="M46.75,37.2c0,0-11.38-22.41-2.23-23.79c8.23-1.24,5.88,23.26,5.88,23.26L46.75,37.2z" />
		<path class="st1" d="M50.67,36.81c0,0-4.27-24.77,4.88-23.39c8.23,1.24-1.24,23.96-1.24,23.96L50.67,36.81z" />
		<path class="st1" d="M54.52,37.6c0,0,3.22-24.93,11.56-20.92c7.5,3.61-8.24,22.53-8.24,22.53L54.52,37.6z" />
		<path class="st1" d="M57.98,39.48c0,0,10.43-22.88,17.21-16.58C81.29,28.56,60.67,42,60.67,42L57.98,39.48z" />
		<path class="st1" d="M60.73,42.3c0,0,16.71-18.79,21.34-10.77c4.16,7.21-19.5,13.97-19.5,13.97L60.73,42.3z" />
		<path class="st1" d="M62.52,45.8c0,0,21.5-13.03,23.56-4c1.85,8.11-22.75,7.6-22.75,7.6L62.52,45.8z" />
		<path class="st1" d="M63.2,49.68c0,0,24.39-6.11,23.69,3.12c-0.62,8.3-23.98,0.56-23.98,0.56L63.2,49.68z" />
		<path class="st1" d="M62.71,53.58c0,0,25.1,1.35,21.72,9.97c-3.04,7.75-23.08-6.54-23.08-6.54L62.71,53.58z" />
		<path class="st1" d="M61.09,57.17c0,0,23.59,8.69,17.82,15.93c-5.19,6.51-20.13-13.05-20.13-13.05L61.09,57.17z" />
		<path class="st1" d="M58.48,60.12c0,0,19.98,15.26,12.33,20.47c-6.87,4.69-15.39-18.4-15.39-18.4L58.48,60.12z" />
		<path class="st1" d="M55.12,62.17c0,0,14.6,20.47,5.75,23.2c-7.95,2.45-9.28-22.12-9.28-22.12L55.12,62.17z" />
	</g>
</svg>