<svg version="1.1" id="prefix__Ebene_1" xmlns="http://www.w3.org/2000/svg" x="0" y="0" width="100" height="100"
	xml:space="preserve">
	<style>
		.prefix__st1 {
			fill: none;
			stroke: #000;
			stroke-miterlimit: 10;
			stroke-dasharray: 0, 0, 0, 0, 0, 0
		}

		.prefix__st2 {
			fill: #0071bc
		}

		.prefix__st5,
		.prefix__st6 {
			fill: none;
			stroke: #fad856;
			stroke-miterlimit: 10;
			stroke-dasharray: 0, 0, 0, 0, 0, 0
		}

		.prefix__st6 {
			stroke: #ff9b45
		}
	</style>
	<path
		d="M 45.08 18.71 c-3.5.6-5.89 3.94-7.01 7.31-1.03 3.09-1.17 6.92 1.16 9.2 2.27 2.22 6.2 2.03 8.74.14 2.55-1.89 3.87-5.06 4.3-8.21.3-2.18.14-4.63-1.36-6.23-1.59-1.72-4.21-1.95-5.83-2.21z"
		fill="#f9d1b9" stroke="#000" stroke-miterlimit="10" stroke-dasharray="0 0 0 0 0 0" />
	<path class="prefix__st1"
		d="M44.59 36.73c-.11 5.85.06 11.7 0 17.72-1.5 3.08-2.89 6.21-4.16 9.39M44.31 54.79c1.51 2.83 2.79 5.78 3.82 8.82M44.6 43.03c-4.24 1.67-5.2-.35-5.2-2.53M44.6 43.03c4.78 0 6.22.36 7.54-2.53" />
	<circle class="prefix__st2" cx="42.23" cy="24.11" r=".69" />
	<circle class="prefix__st2" cx="48.13" cy="24.11" r=".69" />
	<circle cx="44.89" cy="28.08" r=".69" />
	<path
		d="M42.59 42.08c-.37 3.29-.97 7.49-2.42 16.2-.2 1.21 3.3.89 4.43.93 1.25.04.79-.04 4.87-.2 1.55-.06-1.45-12.88-2.47-17.07-.23-.95-1.46-.97-2.4-.97-.69-.01-1.95.59-2.01 1.11z"
		fill="#662d91" stroke="#000" stroke-miterlimit="10" stroke-dasharray="0 0 0 0 0 0" />
	<path
		d="M48.11 29.88c.11.48-.52.9-1.14 1.22-.53.27-1.08.52-1.66.74-.47.19-.97.36-1.53.41-.56.05-1.18-.05-1.52-.32-.2-.16-.28-.37-.34-.57-.27-.85-.4-1.73-.38-2.6"
		fill="none" stroke="red" stroke-miterlimit="10" stroke-dasharray="0 0 0 0 0 0" />
	<path class="prefix__st5"
		d="M49.29 17.68c-1.63-.44-3.31-.77-5-.67-1.69.1-3.39.68-4.6 1.85-.95.92-1.58 2.16-2.67 2.9-1.58 1.07-3.68.82-5.56.49" />
	<path class="prefix__st5"
		d="M48.21 15.81c-2.46-1.31-5.56-1.33-8.03-.04-1.77.92-3.18 2.43-4.98 3.27-1.76.82-3.83.95-5.67.34M49.31 19.85c1.11-.38 2.37.03 3.3.74s1.6 1.71 2.25 2.69c.37.56.76 1.23.56 1.87-.16.48-.61.8-.96 1.16-.75.77-1.11 1.84-1.27 2.9-.33 2.11.05 4.32 1.01 6.23.86 1.73 2.16 3.19 3.45 4.63" />
	<path class="prefix__st5"
		d="M50.86 17.19c1.65 1.31 3.34 2.67 4.33 4.53.59 1.1.9 2.32 1.13 3.55.22 1.15.37 2.33.26 3.5-.13 1.36-.62 2.66-1.19 3.91-.49 1.08-1.06 2.21-.94 3.39.06.62.32 1.2.6 1.76.99 1.99 2.32 3.79 3.64 5.58M49.67 14.74c-.73-.31-1.47-.62-2.2-.92-.26-.11-.52-.22-.8-.23-.33-.02-.65.09-.97.15-1.16.22-2.37-.2-3.51.08-.49.12-.95.36-1.44.48-1.01.26-2.09.02-3.1.29-.54.14-1.03.43-1.51.72-1.28.76-2.54 1.57-3.95 2.06-1.4.49-3 .62-4.36.02M42.14 18.63a5.89 5.89 0 00-3.57 3.13c-.55 1.18-.7 2.52-1.36 3.63-.81 1.34-2.24 2.15-3.61 2.9-1.25.68-2.56 1.38-3.98 1.45" />
	<path class="prefix__st5"
		d="M49.26 18.8c.06-2.42 1.98-4.67 4.36-5.11.46-.08.96-.1 1.38.1.44.21.73.63.95 1.06.85 1.63.9 3.57 1.63 5.26.47 1.08 1.2 2.03 1.72 3.09.75 1.53 1.02 3.24 1.51 4.87a19.41 19.41 0 004.15 7.41" />
	<path class="prefix__st6"
		d="M48.26 18.06c.71-1.66 1.43-3.38 1.39-5.19s-1.06-3.72-2.8-4.2c-1.16-.32-2.39.03-3.49.5-1.78.76-3.45 1.83-5.35 2.17-.85.15-1.73.15-2.56.4-.77.23-1.46.68-2.09 1.18-1.07.86-1.98 1.9-2.84 2.98-1.41 1.77-2.74 3.77-2.9 6.03-.07 1.01.1 2.03.08 3.04-.04 3.21-1.88 6.1-2.61 9.22M51.16 19.73c-.01-2.26 1.4-4.46 3.46-5.39.54-.24 1.13-.4 1.71-.34.59.07 1.16.39 1.43.91.19.39.2.84.18 1.28-.14 2.49-1.21 4.93-.83 7.4.15.97.52 1.88.89 2.79.98 2.42 2 4.9 3.8 6.79" />
	<path class="prefix__st6"
		d="M45.95 16.88c-.24-.53-.8-.88-1.37-1.01s-1.17-.06-1.75.03a17 17 0 00-2.62.65c-.87.3-1.79.74-2.18 1.57-.41.87-.12 1.91-.36 2.83-.26.99-1.07 1.72-1.88 2.34-2.26 1.74-4.77 3.12-7.27 4.5M52.46 21.63c1.15.27 2.51.73 2.79 1.88.12.49 0 1-.1 1.48-.32 1.45-.57 2.91-.77 4.39-.05.36-.09.73.01 1.08.3 1.01 1.58 1.27 2.41 1.91.78.6 1.18 1.58 1.29 2.56.11.98-.05 1.96-.2 2.93" />
</svg>