<?xml version="1.0" encoding="utf-8"?>
<!-- Generator: Adobe Adobe Illustrator 24.2.0, SVG Export Plug-In . SVG Version: 6.00 Build 0)  -->
<svg version="1.1" id="Ebene_1" xmlns="http://www.w3.org/2000/svg" xmlns:xlink="http://www.w3.org/1999/xlink" x="0px"
	y="0px"
	viewBox="0 0 100 100" style="enable-background:new 0 0 100 100;" xml:space="preserve">
	<style type="text/css">
		.st0 {
			fill: none;
			stroke: #000000;
			stroke-width: 0.5;
			stroke-miterlimit: 10;
		}

		.st1 {
			fill: #FFED00;
			stroke: #000000;
			stroke-width: 0.5;
			stroke-miterlimit: 10;
		}

		.st2 {
			fill: #FF8C00;
			stroke: #000000;
			stroke-width: 0.5;
			stroke-miterlimit: 10;
		}

		.st3 {
			fill: #E40303;
			stroke: #000000;
			stroke-width: 0.5;
			stroke-miterlimit: 10;
		}

		.st4 {
			fill: #732982;
			stroke: #000000;
			stroke-width: 0.5;
			stroke-miterlimit: 10;
		}

		.st5 {
			fill: #24408E;
			stroke: #000000;
			stroke-width: 0.5;
			stroke-miterlimit: 10;
		}

		.st6 {
			fill: #008026;
			stroke: #000000;
			stroke-width: 0.5;
			stroke-miterlimit: 10;
		}
	</style>
	<rect x="10" y="10" class="st0" width="80" height="80" />
	<rect x="25.1" y="15" class="st1" width="2.3" height="70" />
	<rect x="28.9" y="18.8" class="st2" width="2.3" height="66.2" />
	<rect x="32.8" y="22.5" class="st3" width="2.3" height="62.5" />
	<rect x="51.5" y="68.4" transform="matrix(0.7071 -0.7071 0.7071 0.7071 -39.4882 59.9539)" class="st4" width="2.3"
		height="18.5" />
	<rect x="55.6" y="65.1" transform="matrix(0.7071 -0.7071 0.7071 0.7071 -37.3547 62.4956)" class="st5" width="2.3"
		height="22.5" />
	<rect x="59.7" y="61.8" transform="matrix(0.7071 -0.7071 0.7071 0.7071 -35.2094 65.0085)" class="st6" width="2.3"
		height="26.4" />
	<rect x="42.6" y="50.8" transform="matrix(0.7071 0.7071 -0.7071 0.7071 54.4782 -13.7162)" class="st1" width="2.3"
		height="16.1" />
	<rect x="46.5" y="50.9" transform="matrix(0.7071 0.7071 -0.7071 0.7071 56.7408 -15.9461)" class="st2" width="2.3"
		height="19.3" />
	<rect x="51.3" y="48.5" transform="matrix(0.7071 0.7071 -0.7071 0.7071 58.584 -19.1884)" class="st3" width="2.3"
		height="25.2" />
</svg>