<svg width="32" height="15" viewBox="0 -1 52 25" fill="none" xmlns="http://www.w3.org/2000/svg">
    <style>
        #rainbow {
            animation: rainbow 5s infinite;
            transform-origin: 26px 25px;
        }

        @keyframes rainbow {
            0% {
                transform: rotate(-180deg);
            }

            90% {
                transform: rotate(0deg);
                opacity: 1;
                filter: none;
            }

            100% {
                opacity: 0;
                filter: blur(1px);
            }
        }
    </style>
    <clipPath id="clip">
        <rect width="52" height="24" x="0" y="0" />
    </clipPath>
    <g id="rainbow" clip-path="url(#clip)">
        <path id="red" d="M 1 26 a 25 25 0 0 1 50 0 Z" fill="none" stroke="#E40303" stroke-width="2" />
        <path id="orange" d="M 3 26 a 23 23 0 0 1 46 0 Z" fill="none" stroke="#FF8C00" stroke-width="2" />
        <path id="yellow" d="M 5 26 a 21 21 0 0 1 42 0 Z" fill="none" stroke="#FFED00" stroke-width="2" />
        <path id="green" d="M 7 26 a 19 19 0 0 1 38 0 Z" fill="none" stroke="#008026" stroke-width="2" />
        <path id="blue" d="M 9 26 a 17 17 0 0 1 34 0 Z" fill="none" stroke="#24408E" stroke-width="2" />
        <path id="purple" d="M 11 26 a 15 15 0 0 1 30 0 Z" fill="none" stroke="#732982" stroke-width="2" />
    </g>
</svg>