<?xml version="1.0" encoding="utf-8"?>
<!-- Generator: Adobe Adobe Illustrator 24.2.0, SVG Export Plug-In . SVG Version: 6.00 Build 0)  -->
<svg version="1.1" id="rainbow_1_" xmlns="http://www.w3.org/2000/svg" xmlns:xlink="http://www.w3.org/1999/xlink" x="0px"
	y="0px"
	viewBox="0 0 100 100" style="enable-background:new 0 0 100 100;" xml:space="preserve">
	<style type="text/css">
		.st0 {
			clip-path: url(#cut_1_);
			fill: none;
			stroke: #E40303;
			stroke-width: 5;
		}

		.st1 {
			clip-path: url(#cut_1_);
			fill: none;
			stroke: #FF8C00;
			stroke-width: 5;
		}

		.st2 {
			clip-path: url(#cut_1_);
			fill: none;
			stroke: #FFED00;
			stroke-width: 5;
		}

		.st3 {
			clip-path: url(#cut_1_);
			fill: none;
			stroke: #008026;
			stroke-width: 5;
		}

		.st4 {
			clip-path: url(#cut_1_);
			fill: none;
			stroke: #24408E;
			stroke-width: 5;
		}

		.st5 {
			clip-path: url(#cut_1_);
			fill: none;
			stroke: #732982;
			stroke-width: 4;
			stroke-miterlimit: 10;
		}

		#rainbow {
			animation: rainbow 5s infinite;
			transform-origin: 50px 100px;
		}

		@keyframes rainbow {
			0% {
				transform: rotate(-180deg);
			}

			90% {
				transform: rotate(0deg);
				opacity: 1;
				filter: none;
			}

			100% {
				opacity: 0;
				filter: blur(1px);
			}
		}
	</style>
	<g id="rainbow">
		<defs>
			<rect id="cut" y="50" width="100" height="49" />
		</defs>
		<clipPath id="cut_1_">
			<use xlink:href="#cut" style="overflow:visible;" />
		</clipPath>
		<path id="red" class="st0" d="M6.73,103C6.73,78.34,26.1,58.36,50,58.36S93.27,78.34,93.27,103H6.73z" />
		<path id="orange" class="st1" d="M10.19,103c0-22.68,17.82-41.07,39.81-41.07S89.81,80.32,89.81,103H10.19z" />
		<path id="yellow" class="st2" d="M13.65,103c0-20.71,16.27-37.5,36.35-37.5S86.35,82.29,86.35,103H13.65z" />
		<path id="green" class="st3" d="M17.12,103c0-18.74,14.72-33.93,32.88-33.93S82.88,84.26,82.88,103H17.12z" />
		<path id="blue" class="st4" d="M20.58,103c0-16.77,13.17-30.36,29.42-30.36S79.42,86.23,79.42,103H20.58z" />
		<path id="purple" class="st5" d="M24.04,103c0-14.79,11.62-26.79,25.96-26.79S75.96,88.21,75.96,103H24.04z" />
	</g>
</svg>